<svg width="67" height="67" viewBox="0 0 67 67" fill="none" xmlns="http://www.w3.org/2000/svg">
<path d="M58.625 13.9585L33.5 39.0835L22.3333 27.9168" stroke="#03071E" stroke-width="5.58333" stroke-linecap="round" stroke-linejoin="round"/>
<path d="M58.4575 30.7083C58.5698 31.6346 58.6257 32.5669 58.625 33.5C58.625 38.4693 57.1514 43.3269 54.3907 47.4587C51.6299 51.5905 47.7059 54.8108 43.1149 56.7125C38.5239 58.6141 33.4721 59.1117 28.5984 58.1422C23.7246 57.1728 19.2477 54.7799 15.7339 51.2661C12.2201 47.7523 9.82722 43.2754 8.85777 38.4016C7.88831 33.5279 8.38587 28.4761 10.2875 23.8851C12.1892 19.2941 15.4095 15.3701 19.5413 12.6093C23.6731 9.84856 28.5307 8.375 33.5 8.375C37.3904 8.41131 41.2169 9.36794 44.6667 11.1667" stroke="#03071E" stroke-width="5.58333" stroke-linecap="round" stroke-linejoin="round"/>
</svg>
