<svg width="52" height="52" viewBox="0 0 52 52" fill="none" xmlns="http://www.w3.org/2000/svg">
<path d="M25.3014 35.2297C22.8612 35.2297 20.5494 34.2547 18.8155 32.4997C15.2194 28.8597 15.2194 23.0096 18.8155 19.4346C20.5494 17.6796 22.8612 16.7046 25.3014 16.7046C27.7417 16.7046 30.0535 17.6796 31.7873 19.4346C32.3011 19.9546 32.3011 20.7996 31.7873 21.3846C31.2736 21.9046 30.4388 21.9046 29.8608 21.3846C28.6407 20.1496 27.0353 19.4996 25.3014 19.4996C23.5676 19.4996 21.9622 20.1496 20.742 21.3846C18.2376 23.9196 18.2376 28.0797 20.742 30.6147C21.9622 31.8497 23.5676 32.4997 25.3014 32.4997C27.0353 32.4997 28.6407 31.8497 29.8608 30.6147C30.3746 30.0947 31.2094 30.0947 31.7873 30.6147C32.3011 31.1347 32.3011 31.9797 31.7873 32.5647C29.9893 34.3197 27.7417 35.2297 25.3014 35.2297ZM25.3014 41.8597C16.6322 41.8597 9.63253 34.7097 9.63253 25.9996C9.63253 17.2896 16.6322 10.1396 25.3014 10.1396C33.9065 10.1396 40.9704 17.2246 40.9704 25.9996C40.9704 34.7747 33.9065 41.8597 25.3014 41.8597ZM25.3014 12.8696C18.1734 12.8696 12.3296 18.7196 12.3296 25.9996C12.3296 33.2797 18.1092 39.1297 25.3014 39.1297C32.4295 39.1297 38.2733 33.2797 38.2733 25.9996C38.2733 18.7196 32.4937 12.8696 25.3014 12.8696Z" fill="#231F20"/>
</svg>
