<svg width="62" height="62" viewBox="0 0 62 62" fill="none" xmlns="http://www.w3.org/2000/svg">
<g clip-path="url(#clip0_43_826)">
<path d="M55.7261 26.6226C55.7306 26.6106 55.7301 26.5984 55.7339 26.5862C55.7517 26.5296 55.7653 26.4732 55.7708 26.4154C55.7725 26.3904 55.7696 26.3663 55.7688 26.3412C55.7683 26.2948 55.768 26.2502 55.7593 26.2051C55.7543 26.1776 55.7444 26.1516 55.737 26.1258C55.7252 26.0846 55.7123 26.0438 55.6943 26.0054C55.6818 25.9794 55.6656 25.9544 55.6501 25.9298C55.6358 25.9065 55.6256 25.8813 55.6092 25.8589C55.5993 25.8466 55.5865 25.8375 55.5763 25.826C55.5681 25.816 55.5629 25.8047 55.5544 25.7955L39.0014 8.45427C38.8274 8.27167 38.5782 8.18215 38.3274 8.21257L15.946 10.9021C15.9361 10.9034 15.9283 10.9082 15.9184 10.9096C15.9084 10.911 15.8978 10.9096 15.8869 10.9114C15.8555 10.9176 15.8282 10.9312 15.7979 10.9412C15.7697 10.9503 15.7406 10.9572 15.713 10.9691C15.6739 10.9869 15.6396 11.0098 15.6043 11.0333C15.5814 11.0486 15.5564 11.0606 15.5352 11.0783C15.4971 11.1092 15.4653 11.146 15.434 11.1838C15.4202 11.2 15.4042 11.2128 15.3917 11.2303C15.3516 11.2844 15.3174 11.3459 15.2923 11.4125L6.27584 35.3722C6.16905 35.6559 6.23179 35.9753 6.43772 36.1981L22.242 53.2576C22.2512 53.267 22.2641 53.2693 22.2733 53.2788C22.3541 53.357 22.4437 53.4232 22.5471 53.4621C22.6504 53.501 22.7622 53.5106 22.8741 53.504C22.8873 53.503 22.8992 53.51 22.9116 53.5087L46.0418 51.101C46.3432 51.07 46.6009 50.8712 46.7077 50.5874L55.7242 26.6278C55.7242 26.6278 55.7247 26.6263 55.7253 26.6248L55.7261 26.6226ZM22.536 51.2202L7.94745 35.473L16.3339 13.1875L30.9224 28.9347L22.536 51.2202ZM32.1603 27.9167L17.6938 12.3017L38.1201 9.8467L53.271 25.7192L32.1603 27.9167ZM26.0169 48.7845C25.6036 48.629 25.3944 48.1673 25.5499 47.754C25.7055 47.3407 26.1671 47.1315 26.5804 47.287C26.9937 47.4426 27.2029 47.9042 27.0474 48.3175C26.8919 48.7308 26.4302 48.94 26.0169 48.7845ZM27.7075 44.2921C27.2942 44.1365 27.085 43.6749 27.2405 43.2616C27.396 42.8483 27.8577 42.6391 28.271 42.7946C28.6843 42.9501 28.8935 43.4118 28.738 43.8251C28.5825 44.2384 28.1208 44.4476 27.7075 44.2921ZM29.3981 39.7996C28.9848 39.6441 28.7756 39.1824 28.9311 38.7691C29.0866 38.3558 29.5483 38.1466 29.9616 38.3022C30.3749 38.4577 30.5841 38.9194 30.4286 39.3327C30.273 39.746 29.8114 39.9552 29.3981 39.7996ZM31.0887 35.3072C30.6754 35.1517 30.4661 34.69 30.6217 34.2767C30.7772 33.8634 31.2389 33.6542 31.6522 33.8097C32.0655 33.9653 32.2747 34.4269 32.1192 34.8402C31.9636 35.2535 31.502 35.4627 31.0887 35.3072ZM32.7792 30.8148C32.3659 30.6592 32.1567 30.1976 32.3123 29.7843C32.4678 29.371 32.9295 29.1618 33.3428 29.3173C33.7561 29.4728 33.9653 29.9345 33.8097 30.3478C33.6542 30.7611 33.1925 30.9703 32.7792 30.8148ZM27.4178 51.876C27.0045 51.7205 26.7953 51.2588 26.9508 50.8455C27.1064 50.4322 27.568 50.223 27.9813 50.3785C28.3947 50.5341 28.6039 50.9957 28.4483 51.409C28.2928 51.8223 27.8311 52.0315 27.4178 51.876ZM29.1084 47.3836C28.6951 47.228 28.4859 46.7664 28.6414 46.3531C28.797 45.9398 29.2586 45.7306 29.6719 45.8861C30.0852 46.0416 30.2944 46.5033 30.1389 46.9166C29.9834 47.3299 29.5217 47.5391 29.1084 47.3836ZM30.799 42.8911C30.3857 42.7356 30.1765 42.2739 30.332 41.8606C30.4876 41.4473 30.9492 41.2381 31.3625 41.3937C31.7758 41.5492 31.985 42.0109 31.8295 42.4242C31.674 42.8375 31.2123 43.0467 30.799 42.8911ZM32.4896 38.3987C32.0763 38.2432 31.8671 37.7815 32.0226 37.3682C32.1781 36.9549 32.6398 36.7457 33.0531 36.9012C33.4664 37.0568 33.6756 37.5184 33.5201 37.9317C33.3645 38.345 32.9029 38.5542 32.4896 38.3987ZM34.1802 33.9063C33.7669 33.7508 33.5577 33.2891 33.7132 32.8758C33.8687 32.4625 34.3304 32.2533 34.7437 32.4088C35.157 32.5643 35.3662 33.026 35.2107 33.4393C35.0551 33.8526 34.5935 34.0618 34.1802 33.9063ZM35.8708 29.4139C35.4574 29.2583 35.2482 28.7967 35.4038 28.3834C35.5593 27.9701 36.021 27.7608 36.4343 27.9164C36.8476 28.0719 37.0568 28.5336 36.9013 28.9469C36.7457 29.3602 36.2841 29.5694 35.8708 29.4139ZM30.5093 50.4751C30.096 50.3195 29.8868 49.8579 30.0424 49.4446C30.1979 49.0313 30.6596 48.8221 31.0729 48.9776C31.4862 49.1331 31.6954 49.5948 31.5398 50.0081C31.3843 50.4214 30.9226 50.6306 30.5093 50.4751ZM32.1999 45.9827C31.7866 45.8271 31.5774 45.3655 31.7329 44.9521C31.8885 44.5388 32.3501 44.3296 32.7634 44.4852C33.1767 44.6407 33.3859 45.1024 33.2304 45.5157C33.0749 45.929 32.6132 46.1382 32.1999 45.9827ZM33.8905 41.4902C33.4772 41.3347 33.268 40.873 33.4235 40.4597C33.5791 40.0464 34.0407 39.8372 34.454 39.9927C34.8673 40.1483 35.0765 40.6099 34.921 41.0232C34.7655 41.4366 34.3038 41.6458 33.8905 41.4902ZM35.5811 36.9978C35.1678 36.8423 34.9586 36.3806 35.1141 35.9673C35.2696 35.554 35.7313 35.3448 36.1446 35.5003C36.5579 35.6559 36.7671 36.1175 36.6116 36.5308C36.4561 36.9441 35.9944 37.1533 35.5811 36.9978ZM37.2717 32.5054C36.8584 32.3498 36.6492 31.8882 36.8047 31.4749C36.9602 31.0616 37.4219 30.8524 37.8352 31.0079C38.2485 31.1634 38.4577 31.6251 38.3022 32.0384C38.1466 32.4517 37.685 32.6609 37.2717 32.5054ZM33.6008 49.0742C33.1875 48.9186 32.9783 48.457 33.1339 48.0437C33.2894 47.6304 33.7511 47.4211 34.1644 47.5767C34.5777 47.7322 34.7869 48.1939 34.6313 48.6072C34.4758 49.0205 34.0141 49.2297 33.6008 49.0742ZM35.2914 44.5817C34.8781 44.4262 34.6689 43.9645 34.8244 43.5512C34.98 43.1379 35.4416 42.9287 35.855 43.0843C36.2683 43.2398 36.4775 43.7015 36.3219 44.1148C36.1664 44.5281 35.7047 44.7373 35.2914 44.5817ZM36.982 40.0893C36.5687 39.9338 36.3595 39.4721 36.515 39.0588C36.6706 38.6455 37.1322 38.4363 37.5455 38.5918C37.9588 38.7474 38.168 39.209 38.0125 39.6223C37.857 40.0356 37.3953 40.2448 36.982 40.0893ZM38.6726 35.5969C38.2593 35.4413 38.0501 34.9797 38.2056 34.5664C38.3612 34.1531 38.8228 33.9439 39.2361 34.0994C39.6494 34.2549 39.8586 34.7166 39.7031 35.1299C39.5476 35.5432 39.0859 35.7524 38.6726 35.5969ZM40.3632 31.1044C39.9499 30.9489 39.7407 30.4872 39.8962 30.0739C40.0517 29.6606 40.5134 29.4514 40.9267 29.607C41.34 29.7625 41.5492 30.2242 41.3937 30.6375C41.2381 31.0508 40.7765 31.26 40.3632 31.1044ZM35.0018 52.1657C34.5885 52.0101 34.3792 51.5485 34.5348 51.1352C34.6903 50.7219 35.152 50.5127 35.5653 50.6682C35.9786 50.8237 36.1878 51.2854 36.0323 51.6987C35.8767 52.112 35.4151 52.3212 35.0018 52.1657ZM36.6923 47.6732C36.279 47.5177 36.0698 47.056 36.2254 46.6427C36.3809 46.2294 36.8426 46.0202 37.2559 46.1758C37.6692 46.3313 37.8784 46.793 37.7228 47.2063C37.5673 47.6196 37.1056 47.8288 36.6923 47.6732ZM38.3829 43.1808C37.9696 43.0253 37.7604 42.5636 37.916 42.1503C38.0715 41.737 38.5332 41.5278 38.9465 41.6833C39.3598 41.8389 39.569 42.3005 39.4134 42.7138C39.2579 43.1271 38.7962 43.3363 38.3829 43.1808ZM40.0735 38.6884C39.6602 38.5328 39.451 38.0712 39.6065 37.6579C39.7621 37.2446 40.2237 37.0354 40.637 37.1909C41.0503 37.3464 41.2596 37.8081 41.104 38.2214C40.9485 38.6347 40.4868 38.8439 40.0735 38.6884ZM41.7641 34.196C41.3508 34.0404 41.1416 33.5788 41.2971 33.1654C41.4527 32.7521 41.9143 32.5429 42.3276 32.6985C42.7409 32.854 42.9501 33.3157 42.7946 33.729C42.6391 34.1423 42.1774 34.3515 41.7641 34.196ZM43.4547 29.7035C43.0414 29.548 42.8322 29.0863 42.9877 28.673C43.1432 28.2597 43.6049 28.0505 44.0182 28.206C44.4315 28.3616 44.6407 28.8232 44.4852 29.2365C44.3297 29.6499 43.868 29.8591 43.4547 29.7035ZM38.0933 50.7647C37.68 50.6092 37.4708 50.1475 37.6263 49.7342C37.7818 49.3209 38.2435 49.1117 38.6568 49.2673C39.0701 49.4228 39.2793 49.8845 39.1238 50.2978C38.9682 50.7111 38.5066 50.9203 38.0933 50.7647ZM39.7839 46.2723C39.3705 46.1168 39.1613 45.6551 39.3169 45.2418C39.4724 44.8285 39.9341 44.6193 40.3474 44.7748C40.7607 44.9304 40.9699 45.392 40.8144 45.8053C40.6588 46.2186 40.1972 46.4279 39.7839 46.2723ZM41.4744 41.7799C41.0611 41.6244 40.8519 41.1627 41.0075 40.7494C41.163 40.3361 41.6247 40.1269 42.038 40.2824C42.4513 40.4379 42.6605 40.8996 42.5049 41.3129C42.3494 41.7262 41.8877 41.9354 41.4744 41.7799ZM43.165 37.2875C42.7517 37.1319 42.5425 36.6703 42.698 36.257C42.8536 35.8437 43.3152 35.6344 43.7286 35.79C44.1419 35.9455 44.3511 36.4072 44.1955 36.8205C44.04 37.2338 43.5783 37.443 43.165 37.2875ZM44.8556 32.795C44.4423 32.6395 44.2331 32.1778 44.3886 31.7645C44.5442 31.3512 45.0058 31.142 45.4191 31.2976C45.8324 31.4531 46.0416 31.9148 45.8861 32.3281C45.7306 32.7414 45.2689 32.9506 44.8556 32.795ZM46.5462 28.3026C46.1329 28.1471 45.9237 27.6854 46.0792 27.2721C46.2348 26.8588 46.6964 26.6496 47.1097 26.8051C47.523 26.9607 47.7322 27.4223 47.5767 27.8356C47.4212 28.2489 46.9595 28.4581 46.5462 28.3026ZM41.1848 49.3638C40.7715 49.2083 40.5623 48.7466 40.7178 48.3333C40.8733 47.92 41.335 47.7108 41.7483 47.8663C42.1616 48.0219 42.3708 48.4835 42.2153 48.8969C42.0597 49.3102 41.5981 49.5194 41.1848 49.3638ZM42.8754 44.8714C42.4621 44.7159 42.2529 44.2542 42.4084 43.8409C42.5639 43.4276 43.0256 43.2184 43.4389 43.3739C43.8522 43.5295 44.0614 43.9911 43.9059 44.4044C43.7503 44.8177 43.2887 45.0269 42.8754 44.8714ZM44.5659 40.379C44.1526 40.2234 43.9434 39.7618 44.099 39.3485C44.2545 38.9352 44.7162 38.726 45.1295 38.8815C45.5428 39.037 45.752 39.4987 45.5964 39.912C45.4409 40.3253 44.9792 40.5345 44.5659 40.379ZM46.2565 35.8865C45.8432 35.731 45.634 35.2693 45.7896 34.856C45.9451 34.4427 46.4068 34.2335 46.8201 34.3891C47.2334 34.5446 47.4426 35.0063 47.287 35.4196C47.1315 35.8329 46.6698 36.0421 46.2565 35.8865ZM47.9471 31.3941C47.5338 31.2386 47.3246 30.7769 47.4801 30.3636C47.6357 29.9503 48.0973 29.7411 48.5106 29.8966C48.9239 30.0522 49.1332 30.5138 48.9776 30.9271C48.8221 31.3404 48.3604 31.5496 47.9471 31.3941ZM44.2763 47.9629C43.863 47.8074 43.6538 47.3457 43.8093 46.9324C43.9648 46.5191 44.4265 46.3099 44.8398 46.4654C45.2531 46.621 45.4623 47.0826 45.3068 47.4959C45.1512 47.9092 44.6896 48.1184 44.2763 47.9629ZM45.9669 43.4705C45.5536 43.3149 45.3444 42.8533 45.4999 42.44C45.6554 42.0267 46.1171 41.8175 46.5304 41.973C46.9437 42.1285 47.1529 42.5902 46.9974 43.0035C46.8418 43.4168 46.3802 43.626 45.9669 43.4705ZM47.6575 38.978C47.2441 38.8225 47.0349 38.3608 47.1905 37.9475C47.346 37.5342 47.8077 37.325 48.221 37.4806C48.6343 37.6361 48.8435 38.0978 48.688 38.5111C48.5324 38.9244 48.0708 39.1336 47.6575 38.978ZM49.348 34.4856C48.9347 34.3301 48.7255 33.8684 48.8811 33.4551C49.0366 33.0418 49.4983 32.8326 49.9116 32.9881C50.3249 33.1437 50.5341 33.6053 50.3785 34.0186C50.223 34.4319 49.7613 34.6412 49.348 34.4856ZM51.0386 29.9932C50.6253 29.8377 50.4161 29.376 50.5717 28.9627C50.7272 28.5494 51.1889 28.3402 51.6022 28.4957C52.0155 28.6512 52.2247 29.1129 52.0691 29.5262C51.9136 29.9395 51.4519 30.1487 51.0386 29.9932Z" fill="url(#paint0_linear_43_826)"/>
</g>
<defs>
<linearGradient id="paint0_linear_43_826" x1="39.4524" y1="8.53916" x2="22.5471" y2="53.4621" gradientUnits="userSpaceOnUse">
<stop stop-color="#5E2A7B"/>
<stop offset="1" stop-color="#C86BFA"/>
</linearGradient>
<clipPath id="clip0_43_826">
<rect width="48" height="48" fill="white" transform="translate(16.9908 0.0848999) rotate(20.6223)"/>
</clipPath>
</defs>
</svg>
