<svg width="86" height="86" viewBox="0 0 86 86" fill="none" xmlns="http://www.w3.org/2000/svg">
<g clip-path="url(#clip0_32_288)">
<path fill-rule="evenodd" clip-rule="evenodd" d="M21.1641 75.25C30.0694 75.25 37.2891 68.0307 37.2891 59.125V51.7344H48.7109V59.125C48.7109 68.0307 56.1016 75.25 64.8359 75.25C73.5703 75.25 9.88329 75.25 21.1641 75.25Z" fill="#FCC402"/>
<path fill-rule="evenodd" clip-rule="evenodd" d="M64.8359 86H21.1641C18.1954 86 15.7891 83.5933 15.7891 80.625C15.7891 77.6563 18.1954 75.25 21.1641 75.25C24.2839 75.25 61.8044 75.25 64.8359 75.25C67.8043 75.25 70.2109 77.6563 70.2109 80.625C70.2109 83.5933 67.8043 86 64.8359 86Z" fill="#FCE202"/>
<path fill-rule="evenodd" clip-rule="evenodd" d="M83.3125 20.8281H79.2812C72.973 20.8281 67.5234 25.9418 67.5234 32.25H65.5078V20.8281C66.4417 16.2281 70.3742 12.7656 75.25 12.7656H83.3125C84.7967 12.7656 86 13.969 86 15.4531V18.1406C86 19.6248 84.7967 20.8281 83.3125 20.8281ZM6.71875 20.8281H2.6875C1.20333 20.8281 0 19.6248 0 18.1406V15.4531C0 13.969 1.20333 12.7656 2.6875 12.7656H10.75C15.6255 12.7656 19.5583 16.2281 20.4922 20.8281V32.25H18.4766C18.4766 25.9418 13.027 20.8281 6.71875 20.8281Z" fill="#FCE202"/>
<path fill-rule="evenodd" clip-rule="evenodd" d="M18.1406 10.75H67.8594V32.9219C67.8594 46.6513 56.7294 57.7812 43 57.7812C29.2706 57.7812 18.1406 46.6513 18.1406 32.9219V10.75Z" fill="url(#paint0_linear_32_288)"/>
<path fill-rule="evenodd" clip-rule="evenodd" d="M17.4688 0H68.5312C70.0154 0 71.2188 1.20333 71.2188 2.6875V5.375C71.2188 6.85917 70.0154 8.0625 68.5312 8.0625H17.4688C15.9846 8.0625 14.7812 6.85917 14.7812 5.375V2.6875C14.7812 1.20333 15.9846 0 17.4688 0Z" fill="#FCC402"/>
<path fill-rule="evenodd" clip-rule="evenodd" d="M54.7094 30.3516C52.8047 32.3349 50.3449 35.0127 50.3449 35.0127C50.3449 35.0127 50.7672 38.3489 51.0974 41.0324C51.4394 43.8089 49.8988 43.5553 48.2241 42.8007C45.8114 41.7136 43 40.3501 43 40.3501C43 40.3501 40.1885 41.7136 37.7758 42.8007C36.1012 43.5553 34.5602 43.8089 34.9022 41.0324C35.2328 38.3489 35.655 35.0127 35.655 35.0127C35.655 35.0127 33.1953 32.3349 31.2905 30.3516C30.3257 29.3471 30.0671 27.9782 32.1287 27.5922C34.838 27.0846 38.4605 26.3754 38.4605 26.3754C38.4605 26.3754 40.0179 22.8306 41.408 20.4199C42.1218 19.1816 43.8781 19.1816 44.592 20.4199C45.9821 22.8306 47.5395 26.3754 47.5395 26.3754C47.5395 26.3754 51.1619 27.0846 53.8713 27.5922C55.9326 27.9782 55.6742 29.3471 54.7094 30.3516Z" fill="white"/>
</g>
<defs>
<linearGradient id="paint0_linear_32_288" x1="43" y1="57.7812" x2="43" y2="10.75" gradientUnits="userSpaceOnUse">
<stop stop-color="#FC9502"/>
<stop offset="1" stop-color="#FCBE02"/>
</linearGradient>
<clipPath id="clip0_32_288">
<rect width="86" height="86" fill="white"/>
</clipPath>
</defs>
</svg>
