<svg width="138" height="138" viewBox="0 0 138 138" fill="none" xmlns="http://www.w3.org/2000/svg">
<circle cx="69" cy="69" r="69" fill="#3D0066" fill-opacity="0.65"/>
<g clip-path="url(#clip0_152_3)">
<path fill-rule="evenodd" clip-rule="evenodd" d="M47.1641 101.25C56.0694 101.25 63.2891 94.0307 63.2891 85.125V77.7344H74.7109V85.125C74.7109 94.0307 82.1016 101.25 90.8359 101.25C99.5703 101.25 35.8833 101.25 47.1641 101.25Z" fill="#FCC402"/>
<path fill-rule="evenodd" clip-rule="evenodd" d="M90.8359 112H47.1641C44.1954 112 41.7891 109.593 41.7891 106.625C41.7891 103.656 44.1954 101.25 47.1641 101.25C50.2839 101.25 87.8044 101.25 90.8359 101.25C93.8043 101.25 96.2109 103.656 96.2109 106.625C96.2109 109.593 93.8043 112 90.8359 112Z" fill="#FCE202"/>
<path fill-rule="evenodd" clip-rule="evenodd" d="M109.312 46.8281H105.281C98.973 46.8281 93.5234 51.9418 93.5234 58.25H91.5078V46.8281C92.4417 42.2281 96.3742 38.7656 101.25 38.7656H109.312C110.797 38.7656 112 39.969 112 41.4531V44.1406C112 45.6248 110.797 46.8281 109.312 46.8281ZM32.7188 46.8281H28.6875C27.2033 46.8281 26 45.6248 26 44.1406V41.4531C26 39.969 27.2033 38.7656 28.6875 38.7656H36.75C41.6255 38.7656 45.5583 42.2281 46.4922 46.8281V58.25H44.4766C44.4766 51.9418 39.027 46.8281 32.7188 46.8281Z" fill="#FCE202"/>
<path fill-rule="evenodd" clip-rule="evenodd" d="M44.1406 36.75H93.8594V58.9219C93.8594 72.6513 82.7294 83.7812 69 83.7812C55.2706 83.7812 44.1406 72.6513 44.1406 58.9219V36.75Z" fill="url(#paint0_linear_152_3)"/>
<path fill-rule="evenodd" clip-rule="evenodd" d="M43.4688 26H94.5312C96.0154 26 97.2188 27.2033 97.2188 28.6875V31.375C97.2188 32.8592 96.0154 34.0625 94.5312 34.0625H43.4688C41.9846 34.0625 40.7812 32.8592 40.7812 31.375V28.6875C40.7812 27.2033 41.9846 26 43.4688 26Z" fill="#FCC402"/>
<path fill-rule="evenodd" clip-rule="evenodd" d="M80.7094 56.3516C78.8047 58.3349 76.3449 61.0127 76.3449 61.0127C76.3449 61.0127 76.7672 64.3489 77.0974 67.0324C77.4394 69.8089 75.8988 69.5553 74.2241 68.8007C71.8114 67.7136 69 66.3501 69 66.3501C69 66.3501 66.1885 67.7136 63.7758 68.8007C62.1012 69.5553 60.5602 69.8089 60.9022 67.0324C61.2328 64.3489 61.655 61.0127 61.655 61.0127C61.655 61.0127 59.1953 58.3349 57.2905 56.3516C56.3257 55.3471 56.0671 53.9782 58.1287 53.5922C60.838 53.0846 64.4605 52.3754 64.4605 52.3754C64.4605 52.3754 66.0179 48.8306 67.408 46.4199C68.1218 45.1816 69.8781 45.1816 70.592 46.4199C71.9821 48.8306 73.5395 52.3754 73.5395 52.3754C73.5395 52.3754 77.1619 53.0846 79.8713 53.5922C81.9326 53.9782 81.6742 55.3471 80.7094 56.3516Z" fill="white"/>
</g>
<defs>
<linearGradient id="paint0_linear_152_3" x1="69" y1="83.7812" x2="69" y2="36.75" gradientUnits="userSpaceOnUse">
<stop stop-color="#FC9502"/>
<stop offset="1" stop-color="#FCBE02"/>
</linearGradient>
<clipPath id="clip0_152_3">
<rect width="86" height="86" fill="white" transform="translate(26 26)"/>
</clipPath>
</defs>
</svg>
