<svg width="50" height="50" viewBox="0 0 50 50" fill="none" xmlns="http://www.w3.org/2000/svg">
<path fill-rule="evenodd" clip-rule="evenodd" d="M25 34C29.9705 34 34 29.9705 34 25C34 20.0294 29.9705 16 25 16C20.0294 16 16 20.0294 16 25C16 29.9705 20.0294 34 25 34ZM25 31C28.3137 31 31 28.3137 31 25C31 21.6863 28.3137 19 25 19C21.6863 19 19 21.6863 19 25C19 28.3137 21.6863 31 25 31Z" fill="white" fill-opacity="0.55"/>
<path d="M34 14.5C33.1716 14.5 32.5 15.1716 32.5 16C32.5 16.8284 33.1716 17.5 34 17.5C34.8284 17.5 35.5 16.8284 35.5 16C35.5 15.1716 34.8284 14.5 34 14.5Z" fill="white" fill-opacity="0.55"/>
<path fill-rule="evenodd" clip-rule="evenodd" d="M9.48094 13.4141C8.5 15.3393 8.5 17.8595 8.5 22.9V27.1C8.5 32.1404 8.5 34.6607 9.48094 36.5858C10.3438 38.2793 11.7206 39.6562 13.4141 40.519C15.3393 41.5 17.8595 41.5 22.9 41.5H27.1C32.1404 41.5 34.6607 41.5 36.5858 40.519C38.2793 39.6562 39.6562 38.2793 40.519 36.5858C41.5 34.6607 41.5 32.1404 41.5 27.1V22.9C41.5 17.8595 41.5 15.3393 40.519 13.4141C39.6562 11.7206 38.2793 10.3438 36.5858 9.48094C34.6607 8.5 32.1404 8.5 27.1 8.5H22.9C17.8595 8.5 15.3393 8.5 13.4141 9.48094C11.7206 10.3438 10.3438 11.7206 9.48094 13.4141ZM27.1 11.5H22.9C20.3303 11.5 18.5834 11.5023 17.2331 11.6126C15.9179 11.7201 15.2453 11.9149 14.7761 12.154C13.6471 12.7292 12.7292 13.6471 12.154 14.7761C11.9149 15.2453 11.7201 15.9179 11.6126 17.2331C11.5023 18.5834 11.5 20.3303 11.5 22.9V27.1C11.5 29.6698 11.5023 31.4166 11.6126 32.7669C11.7201 34.0822 11.9149 34.7548 12.154 35.224C12.7292 36.3529 13.6471 37.2707 14.7761 37.846C15.2453 38.0851 15.9179 38.28 17.2331 38.3874C18.5834 38.4976 20.3303 38.5 22.9 38.5H27.1C29.6698 38.5 31.4166 38.4976 32.7669 38.3874C34.0822 38.28 34.7548 38.0851 35.224 37.846C36.3529 37.2707 37.2707 36.3529 37.846 35.224C38.0851 34.7548 38.28 34.0822 38.3874 32.7669C38.4976 31.4166 38.5 29.6698 38.5 27.1V22.9C38.5 20.3303 38.4976 18.5834 38.3874 17.2331C38.28 15.9179 38.0851 15.2453 37.846 14.7761C37.2707 13.6471 36.3529 12.7292 35.224 12.154C34.7548 11.9149 34.0822 11.7201 32.7669 11.6126C31.4166 11.5023 29.6698 11.5 27.1 11.5Z" fill="white" fill-opacity="0.55"/>
<circle cx="25" cy="25" r="24.5" stroke="white" stroke-opacity="0.55"/>
</svg>
