<svg width="384" height="84" viewBox="0 0 384 84" fill="none" xmlns="http://www.w3.org/2000/svg">
<path fill-rule="evenodd" clip-rule="evenodd" d="M177.336 44.8426C176.784 45.8483 176.078 46.8113 175.234 47.7216C175.247 47.7408 175.259 47.7601 175.272 47.7793C172.117 52.8455 170.317 58.4895 169.872 64.7112C169.517 70.3107 170.561 74.8659 173.005 78.3767C175.45 81.8875 179.049 83.5985 183.805 83.5096C188.249 83.4207 191.982 82.2208 195.004 79.9099C196.265 78.941 197.447 77.7428 198.551 76.3151C198.142 78.0731 197.75 79.8269 197.373 81.5764C197.195 82.2875 197.55 82.7541 198.439 82.9763C199.328 83.1985 200.283 83.1985 201.306 82.9763C202.372 82.7541 202.95 82.443 203.039 82.0431C204.061 77.1102 205.194 72.3994 206.439 67.9109C207.905 65.5111 209.572 63.4224 211.438 61.6448C213.349 59.8672 214.993 58.9784 216.371 58.9784C217.215 58.9784 217.793 59.2672 218.104 59.845C218.46 60.3782 218.593 60.9782 218.504 61.6448C218.46 62.267 218.304 63.0225 218.038 63.9113C217.86 64.7556 217.304 66.8221 216.371 70.1107C215.482 73.3994 214.971 75.5325 214.838 76.5102C214.527 78.8211 214.727 80.5988 215.438 81.8431C216.149 83.043 217.638 83.6207 219.904 83.5763C223.061 83.4571 226.098 81.2024 229.016 76.8121C228.695 78.861 228.836 80.4491 229.437 81.5764C230.104 82.9097 231.548 83.5541 233.77 83.5096C235.281 83.5096 236.77 83.0652 238.236 82.1764C239.747 81.2431 241.103 79.9988 242.303 78.4434C243.397 77.0249 244.362 75.6063 245.197 74.1878C245.211 74.7692 245.24 75.3433 245.286 75.9103C245.464 78.1323 246.086 79.9099 247.152 81.2431C248.263 82.5319 249.819 83.2874 251.819 83.5096C253.863 83.7763 255.729 83.5763 257.418 82.9097C259.107 82.2431 260.618 81.132 261.951 79.5766C263.073 78.2737 264.033 76.9708 264.831 75.6679C264.881 77.3615 265.245 78.8866 265.924 80.2432C267.035 82.5097 268.99 83.6207 271.79 83.5763C274.056 83.5318 276.078 82.6875 277.856 81.0432C279.678 79.3544 281.145 77.3101 282.256 74.9103C281.9 77.3546 282.167 79.3322 283.055 80.8432C283.944 82.3542 285.255 83.0874 286.988 83.043C289.655 82.9985 292.121 81.5987 294.388 78.8433C296.699 76.088 298.699 72.7105 300.387 68.7109C300.392 68.6955 300.397 68.6801 300.401 68.6648C302.042 64.886 303.404 60.9017 304.488 56.7119C304.577 56.8452 304.91 57.2452 305.488 57.9118C306.11 58.5339 306.532 59.0006 306.755 59.3117C306.977 59.6227 307.243 60.0672 307.554 60.6449C307.91 61.1782 308.066 61.6892 308.021 62.1781C307.977 62.6669 307.799 63.1336 307.488 63.578C303.755 68.9109 301.91 73.1327 301.955 76.2436C301.955 78.3323 302.555 80.0655 303.755 81.4431C304.955 82.7763 306.688 83.4652 308.954 83.5096C314.014 83.6511 318.411 80.5678 322.146 74.2595C322.366 75.7903 322.861 77.2293 323.631 78.5767C325.453 81.6431 328.608 83.3096 333.097 83.5763C339.306 83.8837 344.356 81.6186 348.248 76.7811C347.761 78.6253 347.354 80.2015 347.027 81.5098C346.982 81.9986 347.227 82.3764 347.76 82.643C348.293 82.9097 348.915 83.043 349.626 83.043C350.293 83.0874 350.915 83.043 351.493 82.9097C352.115 82.7319 352.493 82.4875 352.626 82.1764C353.959 76.3102 355.181 71.4884 356.293 67.711C357.803 65.4 359.559 63.378 361.559 61.6448C363.559 59.8672 365.247 58.9784 366.625 58.9784C368.491 58.9784 369.003 60.6227 368.158 63.9113C366.203 71.955 365.181 76.4435 365.092 77.3768C364.514 81.5098 366.181 83.5763 370.091 83.5763C371.513 83.5763 372.913 83.1096 374.291 82.1764C375.669 81.2431 376.913 79.9988 378.024 78.4434C379.179 76.8435 380.179 75.2881 381.024 73.7771C381.913 72.2217 382.735 70.5552 383.49 68.7775C383.624 68.4664 383.535 68.1554 383.224 67.8443C382.912 67.5332 382.579 67.3554 382.224 67.311C381.868 67.2665 381.624 67.3332 381.49 67.511C380.113 70.8885 378.468 73.7771 376.557 76.1769C374.691 78.5767 373.047 79.7766 371.625 79.7766C371.18 79.7766 370.847 79.6211 370.625 79.31C370.447 78.9989 370.358 78.5323 370.358 77.9101C370.402 77.2879 370.469 76.7546 370.558 76.3102C370.647 75.8658 370.78 75.2214 370.958 74.3771C371.225 73.266 371.713 71.5773 372.424 69.3108C373.136 66.9999 373.602 65.3112 373.824 64.2446C374.535 61.3559 374.491 59.045 373.691 57.3118C372.936 55.5342 371.358 54.6232 368.958 54.5787C366.914 54.5343 364.847 55.3787 362.759 57.1118C360.67 58.8006 358.848 60.7115 357.292 62.8447L358.959 56.5786C358.915 55.6453 358.115 55.0898 356.559 54.912C355.048 54.6898 354.115 54.9787 353.759 55.7786C352.954 59.0003 351.93 62.9702 350.686 67.6882C349.364 70.7629 347.678 73.2814 345.629 75.2436C343.54 77.2435 341.518 78.5545 339.563 79.1767C337.607 79.7544 335.741 79.9099 333.963 79.6433C331.697 79.3322 330.008 78.3767 328.897 76.7769C327.83 75.177 327.475 73.1994 327.83 70.844C331.786 71.9106 335.252 71.955 338.229 70.9773C341.207 69.9996 343.362 68.1776 344.696 65.5111C345.407 63.8668 345.718 62.267 345.629 60.7115C345.584 59.1561 344.918 57.8007 343.629 56.6452C342.385 55.4453 340.674 54.8009 338.496 54.7121C335.074 54.4898 331.874 55.5786 328.897 57.9784C325.919 60.3782 323.853 63.6446 322.697 67.7776C322.691 67.8005 322.685 67.8235 322.678 67.8463C321.021 71.7238 319.09 74.6562 316.887 76.6435C314.665 78.6878 312.598 79.6655 310.688 79.5766C308.643 79.5766 307.621 78.3545 307.621 75.9103C307.621 72.9772 309.421 69.2886 313.021 64.8445C313.465 64.2668 313.687 63.6446 313.687 62.978C313.732 62.3114 313.598 61.6892 313.287 61.1115C313.021 60.4893 312.576 59.8005 311.954 59.045C311.332 58.2895 310.732 57.6229 310.154 57.0452C309.621 56.4675 308.954 55.7786 308.154 54.9787C307.354 54.1788 306.732 53.5344 306.288 53.0455C306.377 52.6011 306.466 52.1789 306.555 51.779C306.777 49.5125 306.155 48.1571 304.688 47.7126C303.533 47.4016 302.555 47.7571 301.755 48.7792C300.511 50.3791 300.777 52.4234 302.555 54.912C301.133 60.3338 299.333 65.4223 297.155 70.1774C297.11 70.2527 297.09 70.3306 297.096 70.4111C296.138 72.3504 295.057 74.1168 293.855 75.7103C292.077 78.0656 290.477 79.2433 289.055 79.2433C286.611 79.2878 286.677 74.5104 289.255 64.9112C291.833 55.312 294.632 46.6238 297.654 38.8467C297.788 38.3134 297.454 37.869 296.654 37.5135C295.899 37.158 295.121 37.0024 294.321 37.0469C293.521 37.0469 292.966 37.2024 292.655 37.5135C290.433 42.8464 288.322 48.9125 286.322 55.712C285.344 55.312 284.1 55.1565 282.589 55.2453C281.078 55.3342 279.567 55.6009 278.056 56.0453C276.545 56.4452 274.989 57.2229 273.39 58.3784C271.79 59.4894 270.39 60.8893 269.19 62.5781C268.088 64.1358 267.192 65.7516 266.503 67.4257C266.471 67.4495 266.442 67.4779 266.417 67.511C265.795 68.8886 265.084 70.2441 264.284 71.5773C263.529 72.8661 262.618 74.1993 261.551 75.577C260.484 76.9546 259.262 78.0434 257.885 78.8433C256.507 79.5988 255.129 79.8877 253.752 79.7099C250.152 79.3544 249.241 75.0214 251.019 66.711C258.574 62.7114 263.773 56.9119 266.617 49.3125C267.728 45.8906 267.973 43.1353 267.351 41.0465C266.773 38.9134 265.551 37.5802 263.684 37.0469C261.818 36.5136 259.885 36.9802 257.885 38.4468C255.752 40.0022 253.752 42.7797 251.885 46.7794C250.019 50.779 248.441 55.3342 247.152 60.4449C246.426 63.3108 245.901 65.9018 245.577 68.2177C244.407 71.0347 242.871 73.6211 240.969 75.9769C238.925 78.4656 237.103 79.7322 235.503 79.7766C234.703 79.821 234.259 79.3989 234.17 78.51C234.081 77.5768 234.237 76.4213 234.637 75.0437C235.214 72.5994 236.903 66.4 239.703 56.4452C239.658 55.7342 238.881 55.2676 237.37 55.0454C235.859 54.7787 234.926 55.0231 234.57 55.7786C233.294 60.3458 232.229 64.2176 231.372 67.3943C231.318 67.4231 231.273 67.462 231.236 67.511C229.948 70.7996 228.326 73.666 226.37 76.1102C224.459 78.51 222.793 79.7322 221.371 79.7766C220.393 79.821 220.037 78.91 220.304 77.0435C220.437 76.2436 221.571 71.9328 223.704 64.1113C224.504 61.2671 224.481 58.9561 223.637 57.1785C222.793 55.4009 221.126 54.5343 218.637 54.5787C215.127 54.6232 211.416 57.3563 207.505 62.778C211.283 49.8902 213.86 41.9131 215.238 38.8467C215.416 38.3579 215.127 37.9135 214.371 37.5135C213.616 37.1135 212.816 36.9358 211.971 36.9802C211.171 36.9802 210.594 37.1358 210.238 37.4468C208.194 42.3353 205.972 48.9125 203.572 57.1785C202.552 60.6722 201.593 64.1498 200.693 67.6114C198.878 71.8251 196.604 74.8358 193.87 76.6435C191.159 78.4656 188.337 79.3989 185.404 79.4433C182.205 79.5322 179.738 78.3101 178.005 75.7769C176.272 73.2438 175.45 69.4886 175.539 64.5112C175.627 60.4227 176.627 56.2675 178.538 52.0456C181.116 54.001 183.96 55.1565 187.071 55.512C190.182 55.8231 192.982 55.3564 195.47 54.1121C198.003 52.8233 199.759 50.9568 200.736 48.5126C202.07 45.3573 202.047 42.602 200.67 40.2466C199.292 37.8913 197.026 36.6247 193.87 36.4469C187.693 36.0914 182.182 38.8912 177.338 44.8462C177.338 44.845 177.337 44.8438 177.336 44.8426ZM180.471 48.5792C184.027 43.0241 188.182 40.3799 192.937 40.6466C194.581 40.7355 195.648 41.4909 196.137 42.913C196.67 44.2907 196.448 45.8017 195.47 47.446C194.448 49.6236 192.337 50.8902 189.137 51.2457C185.982 51.6012 183.093 50.7124 180.471 48.5792ZM236.636 49.7125C237.214 50.2902 237.947 50.5791 238.836 50.5791C239.814 50.5791 240.636 50.2902 241.303 49.7125C241.969 49.1347 242.347 48.357 242.436 47.3793C242.48 46.4461 242.236 45.6906 241.703 45.1129C241.169 44.5351 240.436 44.224 239.503 44.1796C238.57 44.1796 237.77 44.4685 237.103 45.0462C236.437 45.6239 236.059 46.4016 235.97 47.3793C235.881 48.3126 236.103 49.0903 236.636 49.7125ZM256.018 50.0458C258.374 43.9574 260.373 40.9799 262.018 41.1132C262.995 41.2465 263.329 42.2687 263.018 44.1796C262.751 46.0461 261.973 48.4459 260.684 51.379C258.685 55.8231 255.752 59.5561 251.885 62.5781C252.818 59.0228 254.196 54.8454 256.018 50.0458ZM278.789 60.1116C281.056 59.0006 283.211 58.7562 285.255 59.3783C284.233 63.4669 283.211 66.7999 282.189 69.3775C280.678 73.1994 278.878 76.0658 276.789 77.9767C274.701 79.8433 273.012 80.1766 271.723 78.9767C270.612 77.8657 270.212 75.9547 270.523 73.2438C270.879 70.5329 271.723 68.0443 273.056 65.7778C274.612 63.0669 276.523 61.1782 278.789 60.1116ZM332.163 61.3115C334.03 59.4005 335.852 58.4673 337.63 58.5117C339.229 58.5117 340.163 59.1783 340.429 60.5116C340.74 61.8003 340.474 63.1113 339.629 64.4446C337.852 67.9109 334.096 69.0886 328.364 67.9776C329.075 65.4 330.341 63.178 332.163 61.3115Z" fill="#2B2B2B"/>
<mask id="path-2-outside-1_41_545" maskUnits="userSpaceOnUse" x="88" y="0.837906" width="125" height="59" fill="black">
<rect fill="white" x="88" y="0.837906" width="125" height="59"/>
<path fill-rule="evenodd" clip-rule="evenodd" d="M103.799 24.5861C102.599 23.3862 101.999 21.9863 101.999 20.3864C101.999 18.4866 102.549 16.9867 103.649 15.8868C104.799 14.7869 106.299 14.2369 108.148 14.2369C109.048 14.2369 109.823 14.4369 110.473 14.8369C111.173 15.2369 111.848 15.7368 112.498 16.3368C113.148 16.9367 113.573 17.2367 113.773 17.2367C114.223 17.2367 114.823 16.6367 115.573 15.4368C116.323 14.1869 116.998 12.7871 117.598 11.2372C118.198 9.68733 118.498 8.41244 118.498 7.41252C118.498 6.91256 117.948 6.28761 116.848 5.53768C115.748 4.78774 114.398 4.1628 112.798 3.66284C111.248 3.11288 109.823 2.83791 108.523 2.83791C105.024 2.83791 102.024 3.58784 99.5242 5.08772C97.0244 6.58759 95.1246 8.63742 93.8247 11.2372C92.5248 13.787 91.8748 16.6367 91.8748 19.7865C91.8748 22.6362 92.4498 25.111 93.5997 27.2108C94.7996 29.3107 96.1995 31.0355 97.7993 32.3854C99.3992 33.6853 101.399 35.0852 103.799 36.5851C105.849 37.8849 107.349 38.9599 108.298 39.8098C109.248 40.6597 109.723 41.6096 109.723 42.6595C109.723 44.9093 107.973 46.0343 104.474 46.0343C102.724 46.0343 100.974 45.6093 99.2242 44.7594C97.5244 43.9094 96.0995 42.7595 94.9496 41.3097C94.7996 41.1097 94.5996 41.0097 94.3496 41.0097C93.7997 41.0097 93.1747 41.6346 92.4748 42.8845C91.8248 44.0844 91.2499 45.4843 90.7499 47.0842C90.25 48.684 90 49.9339 90 50.8338C90 51.6838 90.5999 52.6337 91.7998 53.6836C93.0497 54.6835 94.7496 55.5584 96.8994 56.3084C99.0992 57.0583 101.549 57.4333 104.249 57.4333C109.048 57.4333 112.923 56.2084 115.873 53.7586C118.823 51.3088 120.297 47.8091 120.297 43.2595C120.297 40.9097 119.772 38.8599 118.723 37.11C117.723 35.3602 116.498 33.9103 115.048 32.7604C113.648 31.6105 111.798 30.2856 109.498 28.7857C106.899 27.1359 104.999 25.736 103.799 24.5861ZM147.809 48.734C147.709 47.8341 147.609 47.2092 147.509 46.8592C147.109 45.5093 146.834 44.4344 146.684 43.6345C146.634 43.1345 146.484 42.8845 146.234 42.8845C146.084 42.8845 145.809 43.0595 145.409 43.4095C145.059 43.7094 144.759 43.9844 144.509 44.2344C143.959 44.6844 143.259 45.1093 142.409 45.5093C141.56 45.8593 140.66 46.0343 139.71 46.0343C138.46 46.0343 137.46 45.6593 136.71 44.9093C136.01 44.1094 135.61 43.0845 135.51 41.8346C135.36 40.1847 135.285 38.7599 135.285 37.56L135.435 28.4107H138.285L141.884 28.4857C143.284 28.4857 144.284 28.4107 144.884 28.2608C145.534 28.0608 145.859 27.7108 145.859 27.2108C145.859 26.0109 145.884 24.861 145.934 23.7611L146.159 21.8863C146.259 21.1864 146.309 20.6614 146.309 20.3114C146.309 19.5615 146.159 19.0615 145.859 18.8116C145.609 18.5616 145.234 18.4366 144.734 18.4366L142.784 18.5116L140.16 18.6616C138.36 18.6616 137.135 18.6366 136.485 18.5866H135.585L135.66 15.9618C135.66 15.7618 135.61 15.4368 135.51 14.9869C135.46 14.4869 135.435 13.562 135.435 12.2121L135.51 9.43735C135.51 8.63742 135.01 8.16246 134.01 8.01247C133.06 7.86248 131.61 7.78749 129.661 7.78749C128.611 7.78749 127.686 7.91248 126.886 8.16245C126.136 8.41244 125.736 8.8374 125.686 9.43735C125.636 9.78732 125.611 10.1373 125.611 10.4873C125.661 10.7872 125.686 11.0872 125.686 11.3872V13.787C125.686 15.2369 125.661 16.3118 125.611 17.0117V18.5866H123.811C123.161 18.6366 122.736 18.7116 122.536 18.8116C122.336 18.9115 122.236 19.2115 122.236 19.7115V23.9861V26.5359C122.236 27.8358 122.586 28.4857 123.286 28.4857H125.686V30.8105C125.686 31.4105 125.661 32.1354 125.611 32.9854C125.611 33.7853 125.636 34.6102 125.686 35.4601C125.736 36.3601 125.761 37.66 125.761 39.3598C125.761 40.6097 125.886 42.1096 126.136 43.8594C126.436 45.6093 126.736 47.0092 127.036 48.0591C127.536 49.8589 128.311 51.5088 129.361 53.0087C130.31 54.2586 131.635 55.2335 133.335 55.9334C134.785 56.5334 136.085 56.8333 137.235 56.8333C138.485 56.8333 139.56 56.7084 140.46 56.4584C141.36 56.2584 142.284 55.9834 143.234 55.6334C144.434 55.1835 145.434 54.6585 146.234 54.0586C147.434 53.2086 148.034 52.1837 148.034 50.9838C148.034 50.3839 147.959 49.6339 147.809 48.734ZM155.549 30.1356C153.499 34.0353 152.474 38.5349 152.474 43.6345C152.474 47.8341 153.249 51.2338 154.799 53.8336C156.348 56.4334 158.523 57.7333 161.323 57.7333C162.873 57.7333 164.498 56.9333 166.198 55.3335C167.948 53.7336 169.447 51.8838 170.697 49.7839C171.947 47.6341 172.647 46.4092 172.797 46.1092C172.879 45.9733 172.938 46.1773 172.975 46.7212C175.034 43.027 178.058 39.91 181.721 37.686V32.6104L181.646 24.3611C181.646 22.1613 181.546 20.6864 181.346 19.9365C181.146 19.1865 180.771 18.7116 180.221 18.5116C179.422 18.2116 178.697 18.0366 178.047 17.9866C177.447 17.8866 176.372 17.8366 174.822 17.8366C170.972 17.8366 167.323 18.9115 163.873 21.0614C160.423 23.1612 157.648 26.1859 155.549 30.1356ZM198.325 34.2122C197.237 34.0722 196.126 34 194.998 34C192.636 34 190.35 34.3167 188.184 34.9085C188.164 33.6516 188.154 32.4356 188.154 31.2605V23.1612C188.154 20.6114 188.304 19.2365 188.604 19.0365C189.054 18.7366 189.754 18.4866 190.704 18.2866C191.704 18.0866 192.578 18.0116 193.328 18.0616C194.878 18.1616 195.953 18.3866 196.553 18.7366C197.153 19.0365 197.453 19.5115 197.453 20.1614C197.453 21.6613 197.503 22.9112 197.603 23.9111C197.653 24.6111 198.003 24.961 198.653 24.961C199.453 22.3613 200.353 20.5364 201.353 19.4865C202.353 18.3866 203.603 17.8366 205.102 17.8366C205.802 17.8366 206.527 17.9366 207.277 18.1366C208.027 18.3366 208.602 18.6616 209.002 19.1115C209.452 19.6615 209.802 20.5614 210.052 21.8113C210.302 23.0112 210.427 24.3611 210.427 25.861C210.427 26.7609 210.327 27.6358 210.127 28.4857C210.027 29.1357 209.902 29.6106 209.752 29.9106C209.602 30.2106 209.302 30.2856 208.852 30.1356L207.052 29.5357C206.202 29.1857 205.277 29.0107 204.277 29.0107C201.255 29.0107 199.271 30.7445 198.325 34.2122ZM167.848 29.5357C169.147 28.5857 170.522 28.1608 171.972 28.2608C172.172 28.2608 172.272 29.5356 172.272 32.0854C172.272 34.9352 172.222 36.6101 172.122 37.11C171.722 37.9099 171.172 38.7849 170.472 39.7348C169.822 40.6347 169.422 41.1847 169.272 41.3846C168.272 42.7345 167.223 43.8844 166.123 44.8344C165.023 45.7843 164.098 46.2592 163.348 46.2592C163.048 46.2592 162.823 45.9093 162.673 45.2093C162.523 44.4594 162.448 43.5095 162.448 42.3596C162.448 41.1097 162.573 39.6848 162.823 38.0849C163.123 36.4351 163.723 34.8352 164.623 33.2853C165.523 31.7355 166.598 30.4856 167.848 29.5357Z"/>
</mask>
<path fill-rule="evenodd" clip-rule="evenodd" d="M103.799 24.5861C102.599 23.3862 101.999 21.9863 101.999 20.3864C101.999 18.4866 102.549 16.9867 103.649 15.8868C104.799 14.7869 106.299 14.2369 108.148 14.2369C109.048 14.2369 109.823 14.4369 110.473 14.8369C111.173 15.2369 111.848 15.7368 112.498 16.3368C113.148 16.9367 113.573 17.2367 113.773 17.2367C114.223 17.2367 114.823 16.6367 115.573 15.4368C116.323 14.1869 116.998 12.7871 117.598 11.2372C118.198 9.68733 118.498 8.41244 118.498 7.41252C118.498 6.91256 117.948 6.28761 116.848 5.53768C115.748 4.78774 114.398 4.1628 112.798 3.66284C111.248 3.11288 109.823 2.83791 108.523 2.83791C105.024 2.83791 102.024 3.58784 99.5242 5.08772C97.0244 6.58759 95.1246 8.63742 93.8247 11.2372C92.5248 13.787 91.8748 16.6367 91.8748 19.7865C91.8748 22.6362 92.4498 25.111 93.5997 27.2108C94.7996 29.3107 96.1995 31.0355 97.7993 32.3854C99.3992 33.6853 101.399 35.0852 103.799 36.5851C105.849 37.8849 107.349 38.9599 108.298 39.8098C109.248 40.6597 109.723 41.6096 109.723 42.6595C109.723 44.9093 107.973 46.0343 104.474 46.0343C102.724 46.0343 100.974 45.6093 99.2242 44.7594C97.5244 43.9094 96.0995 42.7595 94.9496 41.3097C94.7996 41.1097 94.5996 41.0097 94.3496 41.0097C93.7997 41.0097 93.1747 41.6346 92.4748 42.8845C91.8248 44.0844 91.2499 45.4843 90.7499 47.0842C90.25 48.684 90 49.9339 90 50.8338C90 51.6838 90.5999 52.6337 91.7998 53.6836C93.0497 54.6835 94.7496 55.5584 96.8994 56.3084C99.0992 57.0583 101.549 57.4333 104.249 57.4333C109.048 57.4333 112.923 56.2084 115.873 53.7586C118.823 51.3088 120.297 47.8091 120.297 43.2595C120.297 40.9097 119.772 38.8599 118.723 37.11C117.723 35.3602 116.498 33.9103 115.048 32.7604C113.648 31.6105 111.798 30.2856 109.498 28.7857C106.899 27.1359 104.999 25.736 103.799 24.5861ZM147.809 48.734C147.709 47.8341 147.609 47.2092 147.509 46.8592C147.109 45.5093 146.834 44.4344 146.684 43.6345C146.634 43.1345 146.484 42.8845 146.234 42.8845C146.084 42.8845 145.809 43.0595 145.409 43.4095C145.059 43.7094 144.759 43.9844 144.509 44.2344C143.959 44.6844 143.259 45.1093 142.409 45.5093C141.56 45.8593 140.66 46.0343 139.71 46.0343C138.46 46.0343 137.46 45.6593 136.71 44.9093C136.01 44.1094 135.61 43.0845 135.51 41.8346C135.36 40.1847 135.285 38.7599 135.285 37.56L135.435 28.4107H138.285L141.884 28.4857C143.284 28.4857 144.284 28.4107 144.884 28.2608C145.534 28.0608 145.859 27.7108 145.859 27.2108C145.859 26.0109 145.884 24.861 145.934 23.7611L146.159 21.8863C146.259 21.1864 146.309 20.6614 146.309 20.3114C146.309 19.5615 146.159 19.0615 145.859 18.8116C145.609 18.5616 145.234 18.4366 144.734 18.4366L142.784 18.5116L140.16 18.6616C138.36 18.6616 137.135 18.6366 136.485 18.5866H135.585L135.66 15.9618C135.66 15.7618 135.61 15.4368 135.51 14.9869C135.46 14.4869 135.435 13.562 135.435 12.2121L135.51 9.43735C135.51 8.63742 135.01 8.16246 134.01 8.01247C133.06 7.86248 131.61 7.78749 129.661 7.78749C128.611 7.78749 127.686 7.91248 126.886 8.16245C126.136 8.41244 125.736 8.8374 125.686 9.43735C125.636 9.78732 125.611 10.1373 125.611 10.4873C125.661 10.7872 125.686 11.0872 125.686 11.3872V13.787C125.686 15.2369 125.661 16.3118 125.611 17.0117V18.5866H123.811C123.161 18.6366 122.736 18.7116 122.536 18.8116C122.336 18.9115 122.236 19.2115 122.236 19.7115V23.9861V26.5359C122.236 27.8358 122.586 28.4857 123.286 28.4857H125.686V30.8105C125.686 31.4105 125.661 32.1354 125.611 32.9854C125.611 33.7853 125.636 34.6102 125.686 35.4601C125.736 36.3601 125.761 37.66 125.761 39.3598C125.761 40.6097 125.886 42.1096 126.136 43.8594C126.436 45.6093 126.736 47.0092 127.036 48.0591C127.536 49.8589 128.311 51.5088 129.361 53.0087C130.31 54.2586 131.635 55.2335 133.335 55.9334C134.785 56.5334 136.085 56.8333 137.235 56.8333C138.485 56.8333 139.56 56.7084 140.46 56.4584C141.36 56.2584 142.284 55.9834 143.234 55.6334C144.434 55.1835 145.434 54.6585 146.234 54.0586C147.434 53.2086 148.034 52.1837 148.034 50.9838C148.034 50.3839 147.959 49.6339 147.809 48.734ZM155.549 30.1356C153.499 34.0353 152.474 38.5349 152.474 43.6345C152.474 47.8341 153.249 51.2338 154.799 53.8336C156.348 56.4334 158.523 57.7333 161.323 57.7333C162.873 57.7333 164.498 56.9333 166.198 55.3335C167.948 53.7336 169.447 51.8838 170.697 49.7839C171.947 47.6341 172.647 46.4092 172.797 46.1092C172.879 45.9733 172.938 46.1773 172.975 46.7212C175.034 43.027 178.058 39.91 181.721 37.686V32.6104L181.646 24.3611C181.646 22.1613 181.546 20.6864 181.346 19.9365C181.146 19.1865 180.771 18.7116 180.221 18.5116C179.422 18.2116 178.697 18.0366 178.047 17.9866C177.447 17.8866 176.372 17.8366 174.822 17.8366C170.972 17.8366 167.323 18.9115 163.873 21.0614C160.423 23.1612 157.648 26.1859 155.549 30.1356ZM198.325 34.2122C197.237 34.0722 196.126 34 194.998 34C192.636 34 190.35 34.3167 188.184 34.9085C188.164 33.6516 188.154 32.4356 188.154 31.2605V23.1612C188.154 20.6114 188.304 19.2365 188.604 19.0365C189.054 18.7366 189.754 18.4866 190.704 18.2866C191.704 18.0866 192.578 18.0116 193.328 18.0616C194.878 18.1616 195.953 18.3866 196.553 18.7366C197.153 19.0365 197.453 19.5115 197.453 20.1614C197.453 21.6613 197.503 22.9112 197.603 23.9111C197.653 24.6111 198.003 24.961 198.653 24.961C199.453 22.3613 200.353 20.5364 201.353 19.4865C202.353 18.3866 203.603 17.8366 205.102 17.8366C205.802 17.8366 206.527 17.9366 207.277 18.1366C208.027 18.3366 208.602 18.6616 209.002 19.1115C209.452 19.6615 209.802 20.5614 210.052 21.8113C210.302 23.0112 210.427 24.3611 210.427 25.861C210.427 26.7609 210.327 27.6358 210.127 28.4857C210.027 29.1357 209.902 29.6106 209.752 29.9106C209.602 30.2106 209.302 30.2856 208.852 30.1356L207.052 29.5357C206.202 29.1857 205.277 29.0107 204.277 29.0107C201.255 29.0107 199.271 30.7445 198.325 34.2122ZM167.848 29.5357C169.147 28.5857 170.522 28.1608 171.972 28.2608C172.172 28.2608 172.272 29.5356 172.272 32.0854C172.272 34.9352 172.222 36.6101 172.122 37.11C171.722 37.9099 171.172 38.7849 170.472 39.7348C169.822 40.6347 169.422 41.1847 169.272 41.3846C168.272 42.7345 167.223 43.8844 166.123 44.8344C165.023 45.7843 164.098 46.2592 163.348 46.2592C163.048 46.2592 162.823 45.9093 162.673 45.2093C162.523 44.4594 162.448 43.5095 162.448 42.3596C162.448 41.1097 162.573 39.6848 162.823 38.0849C163.123 36.4351 163.723 34.8352 164.623 33.2853C165.523 31.7355 166.598 30.4856 167.848 29.5357Z" fill="#FFDD72"/>
<path d="M103.799 24.5861L102.385 26.0003L102.4 26.0153L102.415 26.03L103.799 24.5861ZM103.649 15.8868L102.266 14.4415L102.25 14.4569L102.235 14.4726L103.649 15.8868ZM110.473 14.8369L109.425 16.5402L109.453 16.5573L109.481 16.5734L110.473 14.8369ZM112.498 16.3368L113.855 14.8672L113.855 14.8672L112.498 16.3368ZM115.573 15.4368L117.269 16.4968L117.278 16.4814L117.288 16.4658L115.573 15.4368ZM117.598 11.2372L115.733 10.5152L115.733 10.5152L117.598 11.2372ZM116.848 5.53768L117.974 3.88522L117.974 3.88522L116.848 5.53768ZM112.798 3.66284L112.129 5.54769L112.165 5.56043L112.202 5.57179L112.798 3.66284ZM99.5242 5.08772L100.553 6.8027L100.553 6.8027L99.5242 5.08772ZM93.8247 11.2372L95.6065 12.1456L95.61 12.1386L95.6135 12.1316L93.8247 11.2372ZM93.5997 27.2108L91.8455 28.1715L91.8542 28.1874L91.8632 28.2031L93.5997 27.2108ZM97.7993 32.3854L96.5096 33.914L96.5238 33.9259L96.5382 33.9376L97.7993 32.3854ZM103.799 36.5851L104.87 34.896L104.859 34.8891L103.799 36.5851ZM108.298 39.8098L106.965 41.3003H106.965L108.298 39.8098ZM99.2242 44.7594L98.3298 46.5482L98.3401 46.5534L98.3504 46.5584L99.2242 44.7594ZM94.9496 41.3097L93.3496 42.5097L93.3658 42.5313L93.3826 42.5524L94.9496 41.3097ZM92.4748 42.8845L90.7298 41.9073L90.7229 41.9196L90.7162 41.932L92.4748 42.8845ZM90.7499 47.0842L88.841 46.4876L90.7499 47.0842ZM91.7998 53.6836L90.4828 55.1888L90.516 55.2178L90.5505 55.2453L91.7998 53.6836ZM96.8994 56.3084L96.2407 58.1968L96.2474 58.1991L96.2541 58.2014L96.8994 56.3084ZM115.873 53.7586L114.595 52.22H114.595L115.873 53.7586ZM118.723 37.11L116.986 38.1023L116.997 38.1208L117.008 38.139L118.723 37.11ZM115.048 32.7604L113.778 34.3058L113.792 34.3167L113.805 34.3274L115.048 32.7604ZM109.498 28.7857L110.591 27.1105L110.58 27.1037L110.57 27.0971L109.498 28.7857ZM147.509 46.8592L149.432 46.3097L149.429 46.3004L149.427 46.291L147.509 46.8592ZM147.809 48.734L145.821 48.9549L145.827 49.0091L145.836 49.0628L147.809 48.734ZM146.684 43.6345L144.694 43.8335L144.703 43.9188L144.718 44.003L146.684 43.6345ZM145.409 43.4095L146.711 44.928L146.719 44.9213L146.726 44.9146L145.409 43.4095ZM144.509 44.2344L145.776 45.7823L145.853 45.7191L145.923 45.6486L144.509 44.2344ZM142.409 45.5093L143.171 47.3587L143.216 47.3399L143.261 47.3189L142.409 45.5093ZM136.71 44.9093L135.205 46.2264L135.249 46.2765L135.296 46.3236L136.71 44.9093ZM135.51 41.8346L137.504 41.6751L137.503 41.6643L137.502 41.6535L135.51 41.8346ZM135.285 37.56L133.285 37.5272L133.285 37.5436V37.56H135.285ZM135.435 28.4107V26.4107H133.468L133.435 28.378L135.435 28.4107ZM138.285 28.4107L138.326 26.4112L138.306 26.4107H138.285V28.4107ZM141.884 28.4857L141.843 30.4853L141.864 30.4857H141.884V28.4857ZM144.884 28.2608L145.369 30.201L145.421 30.1881L145.472 30.1723L144.884 28.2608ZM145.934 23.7611L143.948 23.5228L143.94 23.5964L143.936 23.6703L145.934 23.7611ZM146.159 21.8863L144.179 21.6034L144.176 21.6257L144.173 21.648L146.159 21.8863ZM145.859 18.8116L144.445 20.2258L144.509 20.2899L144.579 20.348L145.859 18.8116ZM144.734 18.4366V16.4366H144.696L144.657 16.4381L144.734 18.4366ZM142.784 18.5116L142.708 16.5131L142.689 16.5138L142.67 16.5148L142.784 18.5116ZM140.16 18.6616V20.6616H140.217L140.274 20.6583L140.16 18.6616ZM136.485 18.5866L136.638 16.5925L136.562 16.5866H136.485V18.5866ZM135.585 18.5866L133.586 18.5295L133.527 20.5866H135.585V18.5866ZM135.66 15.9618L137.659 16.0189L137.66 15.9904V15.9618H135.66ZM135.51 14.9869L133.52 15.1859L133.532 15.3044L133.558 15.4207L135.51 14.9869ZM135.435 12.2121L133.436 12.1581L133.435 12.1851V12.2121H135.435ZM135.51 9.43735L137.509 9.49138L137.51 9.46437V9.43735H135.51ZM134.01 8.01247L133.698 9.98799L133.706 9.9892L133.713 9.99034L134.01 8.01247ZM126.886 8.16245L126.289 6.2535L126.271 6.25912L126.253 6.26509L126.886 8.16245ZM125.686 9.43735L127.666 9.72019L127.674 9.66201L127.679 9.60344L125.686 9.43735ZM125.611 10.4873H123.611V10.6528L123.638 10.8161L125.611 10.4873ZM125.611 17.0117L123.616 16.8692L123.611 16.9404V17.0117H125.611ZM125.611 18.5866V20.5866H127.611V18.5866H125.611ZM123.811 18.5866V16.5866H123.734L123.658 16.5925L123.811 18.5866ZM122.536 18.8116L123.431 20.6004L123.431 20.6004L122.536 18.8116ZM125.686 28.4857H127.686V26.4857H125.686V28.4857ZM125.611 32.9854L123.614 32.8679L123.611 32.9266V32.9854H125.611ZM125.686 35.4601L127.683 35.3492L127.682 35.3427L125.686 35.4601ZM126.136 43.8594L124.156 44.1423L124.16 44.1699L124.165 44.1974L126.136 43.8594ZM127.036 48.0591L128.963 47.5238L128.961 47.5167L128.959 47.5096L127.036 48.0591ZM129.361 53.0087L127.722 54.1556L127.745 54.1877L127.768 54.2188L129.361 53.0087ZM133.335 55.9334L134.1 54.0854L134.097 54.0841L133.335 55.9334ZM140.46 56.4584L140.026 54.506L139.975 54.5173L139.924 54.5313L140.46 56.4584ZM143.234 55.6334L143.926 57.5102L143.937 57.5061L143.234 55.6334ZM146.234 54.0586L145.078 52.4265L145.056 52.4423L145.034 52.4586L146.234 54.0586ZM155.549 30.1356L153.783 29.1967L153.778 29.205L155.549 30.1356ZM154.799 53.8336L156.517 52.8095V52.8095L154.799 53.8336ZM166.198 55.3335L164.848 53.8574L164.837 53.8672L164.827 53.8771L166.198 55.3335ZM170.697 49.7839L172.416 50.8069L172.421 50.7981L172.426 50.7892L170.697 49.7839ZM172.797 46.1092L171.082 45.0803L171.043 45.1461L171.008 45.2148L172.797 46.1092ZM172.975 46.7212L170.98 46.8577L171.44 53.5847L174.722 47.6947L172.975 46.7212ZM181.721 37.686L182.759 39.3957L183.721 38.8116V37.686H181.721ZM181.721 32.6104H183.721V32.6013L183.721 32.5922L181.721 32.6104ZM181.646 24.3611H179.646V24.3702L179.646 24.3793L181.646 24.3611ZM181.346 19.9365L183.279 19.4211V19.4211L181.346 19.9365ZM180.221 18.5116L179.519 20.3842L179.529 20.3877L179.538 20.3912L180.221 18.5116ZM178.047 17.9866L177.718 19.9594L177.805 19.974L177.893 19.9807L178.047 17.9866ZM163.873 21.0614L164.913 22.7698L164.922 22.7643L164.931 22.7587L163.873 21.0614ZM198.325 34.2122L198.07 36.1958L199.796 36.4178L200.254 34.7387L198.325 34.2122ZM188.184 34.9085L186.185 34.941L186.227 37.5167L188.712 36.8378L188.184 34.9085ZM188.604 19.0365L187.494 17.3724L187.494 17.3724L188.604 19.0365ZM190.704 18.2866L190.311 16.3254L190.301 16.3274L190.292 16.3295L190.704 18.2866ZM193.328 18.0616L193.195 20.0572L193.2 20.0575L193.328 18.0616ZM196.553 18.7366L195.545 20.4641L195.601 20.4966L195.659 20.5254L196.553 18.7366ZM197.603 23.9111L199.598 23.7686L199.596 23.7403L199.593 23.7121L197.603 23.9111ZM198.653 24.961V26.961H200.13L200.564 25.5492L198.653 24.961ZM201.353 19.4865L202.801 20.8658L202.817 20.849L202.833 20.8318L201.353 19.4865ZM207.277 18.1366L207.793 16.2041L207.793 16.2041L207.277 18.1366ZM209.002 19.1115L210.55 17.8451L210.524 17.8134L210.497 17.7828L209.002 19.1115ZM210.052 21.8113L208.091 22.2035L208.092 22.2114L208.094 22.2192L210.052 21.8113ZM210.127 28.4857L208.18 28.0277L208.162 28.1041L208.15 28.1816L210.127 28.4857ZM209.752 29.9106L211.541 30.8051L211.541 30.805L209.752 29.9106ZM208.852 30.1356L208.22 32.033L208.852 30.1356ZM207.052 29.5357L206.291 31.385L206.354 31.4112L206.42 31.433L207.052 29.5357ZM171.972 28.2608L171.835 30.256L171.903 30.2608H171.972V28.2608ZM167.848 29.5357L166.667 27.9209L166.652 27.932L166.637 27.9433L167.848 29.5357ZM172.122 37.11L173.911 38.0044L174.031 37.7649L174.083 37.5022L172.122 37.11ZM170.472 39.7348L168.862 38.5484L168.857 38.5561L168.851 38.5638L170.472 39.7348ZM169.272 41.3846L167.672 40.1846L167.665 40.1942L169.272 41.3846ZM162.673 45.2093L160.712 45.6016L160.714 45.615L160.717 45.6284L162.673 45.2093ZM162.823 38.0849L160.855 37.7272L160.851 37.7516L160.847 37.7762L162.823 38.0849ZM99.999 20.3864C99.999 22.5514 100.835 24.4506 102.385 26.0003L105.213 23.1719C104.363 22.3218 103.999 21.4212 103.999 20.3864H99.999ZM102.235 14.4726C100.68 16.0276 99.999 18.0811 99.999 20.3864H103.999C103.999 18.892 104.418 17.9459 105.063 17.301L102.235 14.4726ZM108.148 12.2369C105.873 12.2369 103.849 12.928 102.266 14.4415L105.031 17.3321C105.749 16.6458 106.724 16.2369 108.148 16.2369V12.2369ZM111.521 13.1336C110.504 12.5072 109.351 12.2369 108.148 12.2369V16.2369C108.745 16.2369 109.143 16.3666 109.425 16.5402L111.521 13.1336ZM113.855 14.8672C113.104 14.1746 112.309 13.5821 111.466 13.1004L109.481 16.5734C110.038 16.8916 110.592 17.299 111.142 17.8064L113.855 14.8672ZM113.773 15.2367C113.99 15.2367 114.156 15.2758 114.249 15.3032C114.347 15.3317 114.415 15.3622 114.446 15.3774C114.505 15.4056 114.513 15.4169 114.458 15.3778C114.409 15.3431 114.333 15.2854 114.227 15.197C114.123 15.1097 113.999 15.0006 113.855 14.8672L111.142 17.8064C111.493 18.1307 111.835 18.4226 112.151 18.6456C112.308 18.7565 112.5 18.8803 112.715 18.9835C112.893 19.0689 113.279 19.2367 113.773 19.2367V15.2367ZM113.877 14.3768C113.536 14.9214 113.292 15.2269 113.146 15.3725C113.076 15.4431 113.075 15.4284 113.146 15.3877C113.217 15.3472 113.438 15.2367 113.773 15.2367V19.2367C114.837 19.2367 115.596 18.5793 115.975 18.2009C116.429 17.7466 116.859 17.1522 117.269 16.4968L113.877 14.3768ZM115.733 10.5152C115.168 11.9731 114.542 13.2683 113.858 14.4078L117.288 16.4658C118.104 15.1056 118.827 13.601 119.463 11.9592L115.733 10.5152ZM116.498 7.41252C116.498 8.05527 116.294 9.06362 115.733 10.5152L119.463 11.9592C120.101 10.311 120.498 8.76961 120.498 7.41252H116.498ZM115.721 7.19013C116.205 7.51985 116.465 7.75511 116.584 7.8901C116.64 7.95363 116.628 7.9547 116.598 7.89254C116.566 7.82689 116.498 7.65892 116.498 7.41252H120.498C120.498 6.4422 119.984 5.69962 119.587 5.24758C119.155 4.75763 118.591 4.30544 117.974 3.88522L115.721 7.19013ZM112.202 5.57179C113.659 6.02739 114.82 6.57583 115.721 7.19014L117.974 3.88522C116.676 2.99966 115.136 2.2982 113.395 1.75388L112.202 5.57179ZM108.523 4.83791C109.544 4.83791 110.74 5.05464 112.129 5.54769L113.467 1.77798C111.757 1.17112 110.103 0.837906 108.523 0.837906V4.83791ZM100.553 6.8027C102.685 5.52361 105.313 4.83791 108.523 4.83791V0.837906C104.734 0.837906 101.363 1.65208 98.4952 3.37273L100.553 6.8027ZM95.6135 12.1316C96.7428 9.87312 98.3785 8.10749 100.553 6.8027L98.4952 3.37273C95.6703 5.06769 93.5064 7.40171 92.0358 10.3428L95.6135 12.1316ZM93.8748 19.7865C93.8748 16.9202 94.464 14.3866 95.6065 12.1456L92.0429 10.3288C90.5856 13.1873 89.8748 16.3532 89.8748 19.7865H93.8748ZM95.3539 26.2502C94.3934 24.4962 93.8748 22.3643 93.8748 19.7865H89.8748C89.8748 22.9081 90.5062 25.7258 91.8455 28.1715L95.3539 26.2502ZM99.0891 30.8568C97.6939 29.6796 96.4375 28.1459 95.3362 26.2186L91.8632 28.2031C93.1617 30.4754 94.705 32.3914 96.5096 33.914L99.0891 30.8568ZM104.859 34.8891C102.505 33.418 100.578 32.0659 99.0605 30.8332L96.5382 33.9376C98.2206 35.3047 100.293 36.7523 102.739 38.281L104.859 34.8891ZM109.632 38.3193C108.557 37.3574 106.945 36.2122 104.87 34.896L102.728 38.2741C104.752 39.5577 106.14 40.5623 106.965 41.3003L109.632 38.3193ZM111.723 42.6595C111.723 40.9206 110.907 39.4605 109.632 38.3193L106.965 41.3003C107.589 41.859 107.723 42.2987 107.723 42.6595H111.723ZM104.474 48.0343C106.374 48.0343 108.143 47.7405 109.492 46.8729C110.993 45.908 111.723 44.3988 111.723 42.6595H107.723C107.723 43.1701 107.578 43.3482 107.329 43.5082C106.929 43.7655 106.074 44.0343 104.474 44.0343V48.0343ZM98.3504 46.5584C100.342 47.5256 102.389 48.0343 104.474 48.0343V44.0343C103.059 44.0343 101.606 43.6929 100.098 42.9603L98.3504 46.5584ZM93.3826 42.5524C94.7191 44.2376 96.3758 45.5712 98.3298 46.5482L100.119 42.9705C98.6729 42.2476 97.4799 41.2815 96.5166 40.0669L93.3826 42.5524ZM94.3496 43.0097C94.2012 43.0097 94.0017 42.9781 93.7927 42.8735C93.5836 42.769 93.4387 42.6284 93.3496 42.5097L96.5496 40.1096C96.0219 39.4061 95.2291 39.0097 94.3496 39.0097V43.0097ZM94.2198 43.8617C94.5283 43.3109 94.755 43.0203 94.8827 42.8926C94.9418 42.8334 94.9369 42.8529 94.8623 42.8926C94.7802 42.9363 94.6017 43.0097 94.3496 43.0097V39.0097C93.2993 39.0097 92.5231 39.5953 92.0542 40.0642C91.557 40.5614 91.1213 41.2082 90.7298 41.9073L94.2198 43.8617ZM92.6589 47.6807C93.1287 46.1774 93.657 44.9012 94.2334 43.8371L90.7162 41.932C89.9927 43.2676 89.3711 44.7912 88.841 46.4876L92.6589 47.6807ZM92 50.8338C92 50.2415 92.1768 49.2236 92.6589 47.6807L88.841 46.4876C88.3232 48.1445 88 49.6264 88 50.8338H92ZM93.1169 52.1785C92.6065 51.7319 92.3049 51.3753 92.1409 51.1157C91.9793 50.8598 92 50.7772 92 50.8338H88C88 52.6006 89.1963 54.0631 90.4828 55.1888L93.1169 52.1785ZM97.5582 54.42C95.5394 53.7158 94.0646 52.9342 93.0492 52.1219L90.5505 55.2453C92.0349 56.4329 93.9598 57.4011 96.2407 58.1968L97.5582 54.42ZM104.249 55.4333C101.734 55.4333 99.5063 55.0841 97.5448 54.4154L96.2541 58.2014C98.6922 59.0326 101.364 59.4333 104.249 59.4333V55.4333ZM114.595 52.22C112.087 54.3026 108.702 55.4333 104.249 55.4333V59.4333C109.394 59.4333 113.759 58.1141 117.151 55.2972L114.595 52.22ZM118.297 43.2595C118.297 47.3373 117 50.2223 114.595 52.22L117.151 55.2972C120.645 52.3953 122.297 48.2809 122.297 43.2595H118.297ZM117.008 38.139C117.844 39.5334 118.297 41.2163 118.297 43.2595H122.297C122.297 40.6031 121.701 38.1863 120.438 36.081L117.008 38.139ZM113.805 34.3274C115.038 35.3053 116.101 36.5539 116.986 38.1023L120.459 36.1177C119.344 34.1664 117.957 32.5152 116.291 31.1934L113.805 34.3274ZM108.406 30.4609C110.672 31.9389 112.456 33.2195 113.778 34.3058L116.317 31.2149C114.84 30.0014 112.924 28.6322 110.591 27.1105L108.406 30.4609ZM102.415 26.03C103.76 27.3186 105.792 28.8026 108.427 30.4744L110.57 27.0971C108.005 25.4691 106.238 24.1533 105.183 23.1421L102.415 26.03ZM145.586 47.4086C145.635 47.5786 145.721 48.0505 145.821 48.9549L149.797 48.5132C149.697 47.6177 149.583 46.8397 149.432 46.3097L145.586 47.4086ZM144.718 44.003C144.887 44.9015 145.184 46.0517 145.591 47.4274L149.427 46.291C149.034 44.9669 148.781 43.9673 148.65 43.2659L144.718 44.003ZM146.234 44.8845C145.945 44.8845 145.63 44.8069 145.343 44.6274C145.069 44.4562 144.906 44.2466 144.819 44.101C144.67 43.8523 144.68 43.6941 144.694 43.8335L148.674 43.4355C148.638 43.0749 148.548 42.5417 148.249 42.043C147.884 41.434 147.19 40.8845 146.234 40.8845V44.8845ZM146.726 44.9146C146.804 44.8467 146.866 44.7956 146.914 44.7585C146.937 44.7402 146.955 44.7266 146.969 44.717C146.976 44.7123 146.981 44.7088 146.984 44.7065C146.988 44.7041 146.989 44.703 146.989 44.7031C146.989 44.7031 146.987 44.7046 146.982 44.7073C146.978 44.7099 146.971 44.714 146.961 44.7193C146.942 44.7292 146.908 44.7467 146.86 44.7667C146.812 44.7862 146.738 44.8135 146.641 44.8369C146.546 44.8599 146.406 44.8845 146.234 44.8845V40.8845C145.536 40.8845 145.003 41.2258 144.842 41.3284C144.582 41.4935 144.327 41.6985 144.092 41.9043L146.726 44.9146ZM145.923 45.6486C146.128 45.4438 146.389 45.204 146.711 44.928L144.108 41.891C143.73 42.2149 143.39 42.5251 143.095 42.8202L145.923 45.6486ZM143.261 47.3189C144.215 46.87 145.066 46.3633 145.776 45.7823L143.243 42.6865C142.853 43.0054 142.304 43.3486 141.558 43.6997L143.261 47.3189ZM139.71 48.0343C140.912 48.0343 142.071 47.8114 143.171 47.3587L141.648 43.6599C141.048 43.9071 140.407 44.0343 139.71 44.0343V48.0343ZM135.296 46.3236C136.487 47.515 138.031 48.0343 139.71 48.0343V44.0343C138.888 44.0343 138.433 43.8036 138.124 43.4951L135.296 46.3236ZM133.516 41.9941C133.644 43.5928 134.174 45.0478 135.205 46.2264L138.215 43.5923C137.846 43.171 137.576 42.5762 137.504 41.6751L133.516 41.9941ZM133.285 37.56C133.285 38.8381 133.365 40.3264 133.518 42.0157L137.502 41.6535C137.355 40.0431 137.285 38.6816 137.285 37.56H133.285ZM133.435 28.378L133.285 37.5272L137.285 37.5928L137.435 28.4435L133.435 28.378ZM138.285 26.4107H135.435V30.4107H138.285V26.4107ZM141.926 26.4862L138.326 26.4112L138.243 30.4103L141.843 30.4853L141.926 26.4862ZM144.399 26.3205C144.058 26.4058 143.274 26.4857 141.884 26.4857V30.4857C143.295 30.4857 144.511 30.4157 145.369 30.201L144.399 26.3205ZM143.859 27.2108C143.859 27.1158 143.875 26.9867 143.93 26.8434C143.986 26.6985 144.066 26.5782 144.15 26.4874C144.307 26.3185 144.42 26.3112 144.296 26.3492L145.472 30.1723C145.999 30.0104 146.599 29.7281 147.081 29.2092C147.604 28.6456 147.859 27.9396 147.859 27.2108H143.859ZM143.936 23.6703C143.885 24.803 143.859 25.9833 143.859 27.2108H147.859C147.859 26.0386 147.884 24.9191 147.932 23.852L143.936 23.6703ZM144.173 21.648L143.948 23.5228L147.92 23.9994L148.145 22.1246L144.173 21.648ZM144.309 20.3114C144.309 20.5134 144.276 20.9229 144.179 21.6034L148.139 22.1691C148.242 21.4498 148.309 20.8094 148.309 20.3114H144.309ZM144.579 20.348C144.341 20.15 144.282 19.9508 144.281 19.9487C144.28 19.9441 144.287 19.9695 144.295 20.0341C144.303 20.0981 144.309 20.189 144.309 20.3114H148.309C148.309 19.4654 148.174 18.1372 147.14 17.2751L144.579 20.348ZM144.734 20.4366C144.824 20.4366 144.82 20.4484 144.758 20.4277C144.686 20.4037 144.564 20.3451 144.445 20.2258L147.273 17.3973C146.516 16.64 145.542 16.4366 144.734 16.4366V20.4366ZM142.861 20.5101L144.811 20.4351L144.657 16.4381L142.708 16.5131L142.861 20.5101ZM140.274 20.6583L142.899 20.5083L142.67 16.5148L140.046 16.6648L140.274 20.6583ZM136.332 20.5807C137.069 20.6374 138.368 20.6616 140.16 20.6616V16.6616C138.352 16.6616 137.201 16.6357 136.638 16.5925L136.332 20.5807ZM135.585 20.5866H136.485V16.5866H135.585V20.5866ZM133.661 15.9047L133.586 18.5295L137.584 18.6437L137.659 16.0189L133.661 15.9047ZM133.558 15.4207C133.602 15.6183 133.63 15.7666 133.646 15.8722C133.664 15.9893 133.66 16.0074 133.66 15.9618H137.66C137.66 15.5226 137.564 15.0097 137.462 14.553L133.558 15.4207ZM133.435 12.2121C133.435 13.5536 133.459 14.5731 133.52 15.1859L137.5 14.7879C137.461 14.4008 137.435 13.5704 137.435 12.2121H133.435ZM133.511 9.38331L133.436 12.1581L137.434 12.2662L137.509 9.49138L133.511 9.38331ZM133.713 9.99034C133.988 10.0315 133.914 10.0802 133.758 9.93118C133.672 9.84981 133.599 9.74365 133.554 9.62851C133.512 9.51961 133.51 9.44588 133.51 9.43735H137.51C137.51 8.58481 137.224 7.70743 136.513 7.03118C135.856 6.40724 135.033 6.14347 134.307 6.0346L133.713 9.99034ZM129.661 9.78749C131.589 9.78749 132.91 9.86352 133.698 9.98799L134.322 6.03694C133.211 5.86144 131.632 5.78749 129.661 5.78749V9.78749ZM127.482 10.0714C128.048 9.89478 128.764 9.78749 129.661 9.78749V5.78749C128.457 5.78749 127.324 5.93017 126.289 6.2535L127.482 10.0714ZM127.679 9.60344C127.674 9.65687 127.659 9.73527 127.62 9.82418C127.581 9.91382 127.529 9.98667 127.48 10.0394C127.387 10.1382 127.351 10.1156 127.518 10.0598L126.253 6.26509C125.671 6.45927 125.06 6.77418 124.567 7.29794C124.047 7.85082 123.754 8.53602 123.693 9.27126L127.679 9.60344ZM127.611 10.4873C127.611 10.2329 127.629 9.97743 127.666 9.72019L123.706 9.15451C123.643 9.59721 123.611 10.0417 123.611 10.4873H127.611ZM127.686 11.3872C127.686 10.9755 127.652 10.5656 127.584 10.1585L123.638 10.8161C123.67 11.0089 123.686 11.1989 123.686 11.3872H127.686ZM127.686 13.787V11.3872H123.686V13.787H127.686ZM127.606 17.1542C127.661 16.3796 127.686 15.2456 127.686 13.787H123.686C123.686 15.2282 123.661 16.244 123.616 16.8692L127.606 17.1542ZM127.611 18.5866V17.0117H123.611V18.5866H127.611ZM123.811 20.5866H125.611V16.5866H123.811V20.5866ZM123.431 20.6004C123.375 20.628 123.333 20.6447 123.309 20.6535C123.284 20.6625 123.269 20.6667 123.268 20.6672C123.266 20.6676 123.291 20.6607 123.352 20.6499C123.477 20.6279 123.675 20.6029 123.964 20.5807L123.658 16.5925C123.297 16.6202 122.958 16.6578 122.657 16.7108C122.397 16.7568 122.008 16.8396 121.642 17.0227L123.431 20.6004ZM124.236 19.7115C124.236 19.5667 124.254 19.607 124.208 19.744C124.161 19.8865 123.972 20.3295 123.431 20.6004L121.642 17.0227C120.9 17.3936 120.561 18.0366 120.414 18.4791C120.268 18.916 120.236 19.3563 120.236 19.7115H124.236ZM124.236 23.9861V19.7115H120.236V23.9861H124.236ZM124.236 26.5359V23.9861H120.236V26.5359H124.236ZM123.286 26.4857C123.432 26.4857 123.654 26.5236 123.879 26.6633C124.099 26.7996 124.214 26.9645 124.26 27.0501C124.3 27.125 124.289 27.1377 124.27 27.0356C124.253 26.9381 124.236 26.7768 124.236 26.5359H120.236C120.236 27.3 120.328 28.1853 120.738 28.9465C120.959 29.357 121.291 29.7657 121.774 30.0644C122.262 30.3666 122.79 30.4857 123.286 30.4857V26.4857ZM125.686 26.4857H123.286V30.4857H125.686V26.4857ZM127.686 30.8105V28.4857H123.686V30.8105H127.686ZM127.607 33.1028C127.659 32.2285 127.686 31.4621 127.686 30.8105H123.686C123.686 31.3589 123.663 32.0424 123.614 32.8679L127.607 33.1028ZM127.682 35.3427C127.635 34.5294 127.611 33.7437 127.611 32.9854H123.611C123.611 33.8269 123.637 34.691 123.689 35.5776L127.682 35.3427ZM127.761 39.3598C127.761 37.6492 127.736 36.3053 127.683 35.3492L123.689 35.5711C123.736 36.4149 123.761 37.6707 123.761 39.3598H127.761ZM128.116 43.5766C127.874 41.8854 127.761 40.4853 127.761 39.3598H123.761C123.761 40.7341 123.898 42.3338 124.156 44.1423L128.116 43.5766ZM128.959 47.5096C128.687 46.5586 128.401 45.2382 128.107 43.5215L124.165 44.1974C124.47 45.9804 124.784 47.4598 125.113 48.6085L128.959 47.5096ZM130.999 51.8617C130.082 50.5517 129.403 49.1094 128.963 47.5238L125.109 48.5944C125.668 50.6085 126.539 52.4659 127.722 54.1556L130.999 51.8617ZM134.097 54.0841C132.669 53.4961 131.653 52.7201 130.953 51.7985L127.768 54.2188C128.968 55.7971 130.602 56.9708 132.574 57.7828L134.097 54.0841ZM137.235 54.8333C136.424 54.8333 135.39 54.6193 134.1 54.0854L132.57 57.7814C134.18 58.4474 135.746 58.8333 137.235 58.8333V54.8333ZM139.924 54.5313C139.246 54.7197 138.361 54.8333 137.235 54.8333V58.8333C138.609 58.8333 139.873 58.697 140.995 58.3854L139.924 54.5313ZM142.543 53.7568C141.669 54.0787 140.83 54.3272 140.026 54.506L140.893 58.4107C141.889 58.1895 142.9 57.8881 143.926 57.5101L142.543 53.7568ZM145.034 52.4586C144.422 52.9176 143.601 53.3598 142.532 53.7608L143.937 57.5061C145.267 57.0071 146.446 56.3994 147.434 55.6586L145.034 52.4586ZM146.034 50.9838C146.034 51.3859 145.883 51.8562 145.078 52.4265L147.39 55.6906C148.985 54.5611 150.034 52.9815 150.034 50.9838H146.034ZM145.836 49.0628C145.976 49.9039 146.034 50.5351 146.034 50.9838H150.034C150.034 50.2327 149.942 49.364 149.782 48.4052L145.836 49.0628ZM154.474 43.6345C154.474 38.8078 155.442 34.6366 157.319 31.0662L153.778 29.205C151.555 33.4339 150.474 38.262 150.474 43.6345H154.474ZM156.517 52.8095C155.209 50.6169 154.474 47.6071 154.474 43.6345H150.474C150.474 48.0611 151.288 51.8507 153.081 54.8577L156.517 52.8095ZM161.323 55.7333C159.294 55.7333 157.741 54.8635 156.517 52.8095L153.081 54.8577C154.956 58.0033 157.752 59.7333 161.323 59.7333V55.7333ZM164.827 53.8771C163.314 55.3006 162.158 55.7333 161.323 55.7333V59.7333C163.588 59.7333 165.681 58.5661 167.568 56.7899L164.827 53.8771ZM168.979 48.761C167.826 50.6977 166.449 52.3937 164.848 53.8574L167.547 56.8095C169.446 55.0735 171.069 53.0698 172.416 50.8069L168.979 48.761ZM171.008 45.2148C170.895 45.4418 170.242 46.5887 168.968 48.7787L172.426 50.7892C173.653 48.6795 174.399 47.3767 174.586 47.0037L171.008 45.2148ZM174.971 46.5847C174.953 46.3241 174.921 45.9362 174.823 45.6013C174.795 45.5059 174.74 45.3336 174.635 45.142C174.558 44.9995 174.296 44.5466 173.724 44.2701C172.957 43.8999 172.194 44.0907 171.713 44.4128C171.341 44.6619 171.148 44.9697 171.082 45.0803L174.512 47.1382C174.466 47.2148 174.293 47.4992 173.94 47.7356C173.478 48.045 172.733 48.2337 171.984 47.8719C171.43 47.604 171.185 47.1702 171.124 47.0575C171.035 46.8956 170.995 46.7637 170.982 46.7193C170.944 46.5884 170.961 46.5744 170.98 46.8577L174.971 46.5847ZM174.722 47.6947C176.609 44.3095 179.386 41.4436 182.759 39.3957L180.683 35.9764C176.73 38.3763 173.459 41.7444 171.228 45.7476L174.722 47.6947ZM179.721 32.6104V37.686H183.721V32.6104H179.721ZM179.646 24.3793L179.721 32.6286L183.721 32.5922L183.646 24.3429L179.646 24.3793ZM179.414 20.4518C179.536 20.9099 179.646 22.1268 179.646 24.3611H183.646C183.646 22.1958 183.557 20.4629 183.279 19.4211L179.414 20.4518ZM179.538 20.3912C179.503 20.3783 179.462 20.3576 179.422 20.3287C179.383 20.3 179.358 20.2728 179.345 20.2571C179.323 20.2292 179.365 20.2689 179.414 20.4518L183.279 19.4211C182.971 18.2666 182.261 17.1251 180.905 16.632L179.538 20.3912ZM177.893 19.9807C178.308 20.0126 178.844 20.1311 179.519 20.3842L180.924 16.6389C179.999 16.2921 179.086 16.0606 178.2 15.9925L177.893 19.9807ZM174.822 19.8366C176.379 19.8366 177.301 19.8899 177.718 19.9594L178.375 16.0138C177.592 15.8833 176.364 15.8366 174.822 15.8366V19.8366ZM164.931 22.7587C168.082 20.7951 171.367 19.8366 174.822 19.8366V15.8366C170.577 15.8366 166.564 17.0279 162.815 19.364L164.931 22.7587ZM157.314 31.0745C159.264 27.4068 161.802 24.6633 164.913 22.7698L162.833 19.353C159.044 21.6591 156.032 24.9651 153.783 29.1967L157.314 31.0745ZM194.998 36C196.04 36 197.066 36.0667 198.07 36.1958L198.58 32.2285C197.407 32.0777 196.211 32 194.998 32V36ZM188.712 36.8378C190.707 36.2925 192.815 36 194.998 36V32C192.457 32 189.994 32.3408 187.657 32.9792L188.712 36.8378ZM190.184 34.876C190.164 33.6292 190.154 32.4241 190.154 31.2605H186.154C186.154 32.4472 186.164 33.674 186.185 34.941L190.184 34.876ZM190.154 31.2605V23.1612H186.154V31.2605H190.154ZM190.154 23.1612C190.154 21.9093 190.191 21.0135 190.255 20.4346C190.287 20.138 190.319 19.9955 190.33 19.9563C190.336 19.9367 190.32 20.0006 190.264 20.1055C190.219 20.1898 190.062 20.4679 189.713 20.7006L187.494 17.3724C187.07 17.6551 186.843 18.02 186.732 18.2278C186.611 18.4561 186.535 18.6801 186.484 18.8574C186.383 19.2119 186.321 19.6099 186.278 20.0008C186.191 20.7967 186.154 21.8633 186.154 23.1612H190.154ZM189.713 20.7006C189.845 20.6125 190.249 20.4262 191.116 20.2437L190.292 16.3295C189.259 16.547 188.262 16.8606 187.494 17.3724L189.713 20.7006ZM191.096 20.2478C191.98 20.0709 192.671 20.0222 193.195 20.0572L193.461 16.066C192.486 16.001 191.427 16.1023 190.311 16.3254L191.096 20.2478ZM193.2 20.0575C194.732 20.1563 195.386 20.371 195.545 20.4641L197.561 17.009C196.521 16.4022 195.024 16.1669 193.457 16.0658L193.2 20.0575ZM195.659 20.5254C195.696 20.5441 195.617 20.5119 195.537 20.3857C195.5 20.3274 195.477 20.2697 195.464 20.2221C195.452 20.1764 195.453 20.153 195.453 20.1614H199.453C199.453 19.519 199.301 18.8545 198.919 18.2498C198.539 17.6487 198.01 17.229 197.448 16.9477L195.659 20.5254ZM195.453 20.1614C195.453 21.6989 195.504 23.0205 195.613 24.1101L199.593 23.7121C199.502 22.8019 199.453 21.6238 199.453 20.1614H195.453ZM195.608 24.0536C195.653 24.6852 195.855 25.4793 196.489 26.1128C197.145 26.7694 197.97 26.961 198.653 26.961V22.961C198.686 22.961 199.011 22.9777 199.317 23.2843C199.601 23.5679 199.603 23.837 199.598 23.7686L195.608 24.0536ZM200.564 25.5492C201.34 23.0296 202.129 21.5711 202.801 20.8658L199.904 18.1072C198.576 19.5017 197.566 21.6929 196.741 24.3729L200.564 25.5492ZM202.833 20.8318C203.45 20.1532 204.16 19.8366 205.102 19.8366V15.8366C203.045 15.8366 201.256 16.62 199.873 18.1412L202.833 20.8318ZM205.102 19.8366C205.611 19.8366 206.162 19.9091 206.762 20.0691L207.793 16.2041C206.893 15.9641 205.994 15.8366 205.102 15.8366V19.8366ZM206.762 20.0691C207.242 20.197 207.433 20.3571 207.507 20.4403L210.497 17.7828C209.771 16.9661 208.813 16.4762 207.793 16.2041L206.762 20.0691ZM207.454 20.378C207.591 20.5459 207.862 21.0572 208.091 22.2035L212.013 21.4191C211.742 20.0656 211.313 18.7771 210.55 17.8451L207.454 20.378ZM208.094 22.2192C208.311 23.2591 208.427 24.4689 208.427 25.861H212.427C212.427 24.2532 212.293 22.7633 212.01 21.4034L208.094 22.2192ZM208.427 25.861C208.427 26.6114 208.344 27.3324 208.18 28.0277L212.074 28.9438C212.31 27.9392 212.427 26.9104 212.427 25.861H208.427ZM208.15 28.1816C208.108 28.4591 208.064 28.6686 208.024 28.8204C207.982 28.9801 207.955 29.0317 207.963 29.0162L211.541 30.805C211.835 30.2165 211.996 29.4876 212.104 28.7899L208.15 28.1816ZM207.963 29.0162C208.031 28.88 208.147 28.7106 208.331 28.557C208.519 28.4003 208.729 28.3017 208.929 28.2516C209.296 28.1599 209.527 28.2524 209.485 28.2382L208.22 32.033C208.627 32.1688 209.233 32.2988 209.9 32.1321C210.668 31.94 211.23 31.4272 211.541 30.8051L207.963 29.0162ZM209.485 28.2382L207.685 27.6383L206.42 31.433L208.22 32.033L209.485 28.2382ZM207.814 27.6863C206.702 27.2284 205.515 27.0107 204.277 27.0107V31.0107C205.039 31.0107 205.703 31.1429 206.291 31.385L207.814 27.6863ZM204.277 27.0107C202.358 27.0107 200.616 27.5732 199.207 28.805C197.828 30.0095 196.936 31.7065 196.396 33.6857L200.254 34.7387C200.661 33.2502 201.233 32.3464 201.839 31.8171C202.413 31.3151 203.175 31.0107 204.277 31.0107V27.0107ZM172.11 26.2655C170.138 26.1295 168.304 26.7248 166.667 27.9209L169.028 31.1504C169.991 30.4466 170.907 30.192 171.835 30.256L172.11 26.2655ZM174.272 32.0854C174.272 30.7988 174.247 29.7789 174.191 29.0605C174.164 28.7167 174.124 28.3542 174.05 28.0417C174.017 27.9026 173.948 27.6352 173.796 27.358C173.711 27.2045 173.176 26.2608 171.972 26.2608V30.2608C171.408 30.2608 170.977 30.0235 170.713 29.7996C170.473 29.5955 170.345 29.3841 170.289 29.283C170.227 29.1703 170.195 29.0801 170.18 29.0388C170.165 28.993 170.158 28.9634 170.157 28.9579C170.155 28.9492 170.161 28.9771 170.172 29.0578C170.182 29.1342 170.193 29.238 170.203 29.3733C170.247 29.9299 170.272 30.8223 170.272 32.0854H174.272ZM174.083 37.5022C174.172 37.0565 174.21 36.3361 174.234 35.5386C174.26 34.6723 174.272 33.5185 174.272 32.0854H170.272C170.272 33.5021 170.26 34.6107 170.236 35.4192C170.223 35.8241 170.209 36.1411 170.193 36.3771C170.175 36.6369 170.159 36.7269 170.161 36.7178L174.083 37.5022ZM172.082 40.9212C172.83 39.9065 173.447 38.933 173.911 38.0044L170.333 36.2156C169.998 36.8869 169.514 37.6633 168.862 38.5484L172.082 40.9212ZM170.872 42.5847C171.036 42.3668 171.448 41.7992 172.094 40.9058L168.851 38.5638C168.196 39.4702 167.809 40.0026 167.672 40.1846L170.872 42.5847ZM167.43 46.348C168.657 45.2882 169.805 44.0255 170.88 42.5751L167.665 40.1942C166.74 41.4435 165.788 42.4807 164.815 43.3207L167.43 46.348ZM163.348 48.2592C164.86 48.2592 166.261 47.3574 167.43 46.348L164.815 43.3207C164.342 43.7295 163.968 43.9813 163.69 44.1239C163.407 44.2692 163.306 44.2592 163.348 44.2592V48.2592ZM160.717 45.6284C160.812 46.0693 160.968 46.6054 161.272 47.0783C161.596 47.5822 162.271 48.2592 163.348 48.2592V44.2592C163.689 44.2592 164.001 44.3661 164.246 44.5295C164.47 44.6788 164.589 44.8414 164.637 44.9152C164.716 45.0381 164.684 45.0493 164.629 44.7902L160.717 45.6284ZM160.448 42.3596C160.448 43.5824 160.527 44.6754 160.712 45.6016L164.634 44.8171C164.519 44.2434 164.448 43.4365 164.448 42.3596H160.448ZM160.847 37.7762C160.585 39.4501 160.448 40.9813 160.448 42.3596H164.448C164.448 41.2381 164.561 39.9195 164.799 38.3937L160.847 37.7762ZM162.893 32.2811C161.885 34.0172 161.199 35.8344 160.855 37.7272L164.791 38.4427C165.047 37.0357 165.561 35.6532 166.352 34.2896L162.893 32.2811ZM166.637 27.9433C165.149 29.0741 163.907 30.5349 162.893 32.2811L166.352 34.2896C167.138 32.936 168.046 31.8971 169.058 31.128L166.637 27.9433Z" fill="#2B2B2B" mask="url(#path-2-outside-1_41_545)"/>
<g clip-path="url(#clip0_41_545)">
<path d="M53.4017 51.5944L52.6903 47.3966L62.227 37.9876C62.6317 37.588 62.7774 36.9909 62.6025 36.4474C62.4281 35.9035 61.9635 35.507 61.4042 35.4246L48.2248 33.4861L42.3304 21.3981C42.0807 20.8849 41.5649 20.5602 40.9998 20.5602C40.4348 20.5602 39.9185 20.8849 39.6686 21.3981L33.7744 33.4861L20.595 35.4246C20.0364 35.5068 19.5713 35.9032 19.3965 36.4474C19.2221 36.9908 19.3679 37.588 19.7724 37.9876L29.3094 47.3966L27.0579 60.6829C26.9621 61.2464 27.191 61.816 27.6481 62.1524C28.105 62.4886 28.7115 62.533 29.2114 62.2667L41 55.9937L52.7875 62.2665C53.0048 62.382 53.2422 62.439 53.4784 62.439C53.7861 62.439 54.0928 62.3424 54.3513 62.1522C54.8082 61.816 55.0369 61.2462 54.9418 60.6827L54.0966 55.6951" fill="#FFDD72"/>
<g opacity="0.2">
<path d="M30.9138 59.5715L33.0553 46.9333C33.1429 46.4165 32.9805 46.1263 32.8732 45.9971L32.7891 45.9141L23.6282 36.876C23.2235 36.4764 23.0779 35.8793 23.2521 35.3358C23.2896 35.2197 23.3423 35.1122 23.4041 35.0114L20.5953 35.4245C20.0367 35.5067 19.5716 35.903 19.3968 36.4472C19.2224 36.9906 19.3682 37.5878 19.7727 37.9874L29.3097 47.3964L27.0582 60.6827C26.9625 61.2462 27.1913 61.8159 27.6484 62.1523C28.1053 62.4885 28.7119 62.5329 29.2117 62.2665L31.5093 61.0441C31.5075 61.0428 31.5056 61.042 31.504 61.0408C31.0471 60.7046 30.8182 60.135 30.9138 59.5715Z" fill="#2B2B2B"/>
</g>
<path d="M28.5185 63.7531C27.9447 63.7532 27.3745 63.571 26.8873 63.2124C26.0251 62.5781 25.6018 61.5237 25.7823 60.4608L27.9186 47.854L18.869 38.9259C18.1061 38.172 17.8368 37.0674 18.1656 36.0426C18.4955 35.0161 19.3552 34.2829 20.4093 34.1277L32.915 32.2883L38.508 20.8182C38.9787 19.8511 39.9338 19.2498 41 19.2498C42.0662 19.2498 43.0212 19.8511 43.492 20.8192L49.0845 32.2883L61.5902 34.1277C62.6451 34.2827 63.5051 35.0166 63.8338 36.0429C64.1632 37.0668 63.894 38.1719 63.1309 38.9255L54.0812 47.8542L54.6775 51.3729C54.7986 52.0862 54.3252 52.7638 53.6203 52.8862C52.9153 53.0086 52.2462 52.5294 52.1256 51.8161L51.4142 47.6183C51.3419 47.1931 51.4813 46.7593 51.7864 46.4583L61.323 37.0493C61.3743 36.9987 61.3933 36.9217 61.3712 36.8533C61.3488 36.7833 61.2889 36.7322 61.2181 36.7217L48.0385 34.7832C47.6168 34.7211 47.2522 34.4531 47.0637 34.0661L41.1693 21.9781C41.1368 21.9115 41.0721 21.8708 40.9998 21.8708C40.9271 21.8708 40.8621 21.9115 40.8301 21.9775L34.9355 34.0661C34.7469 34.4529 34.3823 34.7211 33.9605 34.7832L20.7811 36.7217C20.7101 36.7322 20.6499 36.7837 20.6276 36.853C20.6057 36.9212 20.6249 36.9989 20.6765 37.0499L30.213 46.4584C30.5183 46.7595 30.6574 47.1933 30.5852 47.6185L28.3337 60.9048C28.3214 60.9776 28.3505 61.0492 28.4092 61.0927C28.467 61.1352 28.545 61.1408 28.6082 61.1074L40.3968 54.8345C40.7743 54.6338 41.2249 54.6339 41.6019 54.8345L53.3894 61.1071C53.4411 61.1345 53.5032 61.1561 53.5892 61.0927C53.647 61.0502 53.677 60.976 53.6648 60.904L52.8198 55.9172C52.6989 55.2039 53.1722 54.5263 53.877 54.4039C54.5804 54.2815 55.2512 54.7607 55.3721 55.4741L56.2171 60.4618C56.3966 61.5252 55.973 62.5791 55.112 63.2128C54.6338 63.5644 54.0689 63.7502 53.4778 63.7502C53.0292 63.7502 52.582 63.6385 52.185 63.4274L41 57.4744L29.8144 63.4267C29.4042 63.6451 28.9602 63.7531 28.5185 63.7531Z" fill="#2B2B2B"/>
<path d="M7.44438 42.8105H1.2947C0.579445 42.8105 0 42.2238 0 41.5C0 40.7762 0.579445 40.1895 1.2947 40.1895H7.44438C8.15948 40.1895 8.73909 40.7763 8.73909 41.5C8.73909 42.2238 8.15964 42.8105 7.44438 42.8105Z" fill="#2B2B2B"/>
<path d="M80.7053 42.8105H74.5556C73.8404 42.8105 73.2609 42.2236 73.2609 41.5C73.2609 40.7762 73.8404 40.1895 74.5556 40.1895H80.7053C81.4206 40.1895 82 40.7763 82 41.5C82 42.2238 81.4206 42.8105 80.7053 42.8105Z" fill="#2B2B2B"/>
<path d="M12.9243 71.2288C12.5928 71.2288 12.2616 71.1009 12.0087 70.8449C11.5031 70.3331 11.5031 69.5033 12.0088 68.9916L16.3572 64.5904C16.8627 64.0786 17.6825 64.0786 18.1881 64.5904C18.6938 65.1022 18.6938 65.932 18.188 66.4436L13.8396 70.845C13.587 71.1008 13.2555 71.2288 12.9243 71.2288Z" fill="#2B2B2B"/>
<path d="M64.727 18.7937C64.3955 18.7937 64.0643 18.6658 63.8114 18.4098C63.3058 17.898 63.3058 17.0682 63.8115 16.5564L68.1601 12.1551C68.6657 11.6432 69.4855 11.6433 69.991 12.1551C70.4966 12.6669 70.4966 13.4967 69.9908 14.0084L65.6423 18.4096C65.3897 18.6658 65.0583 18.7937 64.727 18.7937Z" fill="#2B2B2B"/>
<path d="M41 82.9998C40.2847 82.9998 39.7053 82.413 39.7053 81.6894V75.4648C39.7053 74.741 40.2847 74.1543 41 74.1543C41.7152 74.1543 42.2947 74.7412 42.2947 75.4648V81.6894C42.2947 82.413 41.7152 82.9998 41 82.9998Z" fill="#2B2B2B"/>
<path d="M41 8.84579C40.2847 8.84579 39.7053 8.25895 39.7053 7.5353V1.31062C39.7053 0.586803 40.2847 0.0001297 41 0.0001297C41.7152 0.0001297 42.2947 0.586966 42.2947 1.31062V7.5353C42.2947 8.25912 41.7152 8.84579 41 8.84579Z" fill="#2B2B2B"/>
<path d="M69.0755 71.2288C68.7443 71.2288 68.4128 71.1009 68.1601 70.8449L63.8115 66.4435C63.3058 65.9317 63.3058 65.1018 63.8114 64.5902C64.3171 64.0784 65.137 64.0784 65.6423 64.5902L69.9908 68.9915C70.4966 69.5033 70.4966 70.3331 69.991 70.8447C69.7383 71.1009 69.4069 71.2288 69.0755 71.2288Z" fill="#2B2B2B"/>
<path d="M17.2728 18.794C16.9413 18.794 16.6101 18.6661 16.3572 18.4101L12.0088 14.0087C11.5032 13.4969 11.5032 12.6671 12.0088 12.1554C12.5148 11.6437 13.3344 11.6437 13.8399 12.1554L18.1883 16.557C18.6939 17.0688 18.6939 17.8987 18.1883 18.4104C17.9356 18.6661 17.6041 18.794 17.2728 18.794Z" fill="#2B2B2B"/>
</g>
<defs>
<clipPath id="clip0_41_545">
<rect width="82" height="83" fill="white"/>
</clipPath>
</defs>
</svg>
