<svg width="96" height="123" viewBox="0 0 96 123" fill="none" xmlns="http://www.w3.org/2000/svg">
<path d="M81.421 36.8931C77.2115 16.5516 57.2347 3.42511 36.8932 7.63456C16.5516 11.844 3.42516 31.8208 7.63461 52.1623C10.1172 64.1593 18.1016 73.6048 28.3886 78.5096L23.0099 111.723C22.9138 112.324 23.1415 112.934 23.6096 113.32C24.0777 113.706 24.7045 113.828 25.2915 113.605L37.8352 108.998L48.376 116.617C48.7729 116.895 49.2625 116.997 49.7287 116.9C49.8327 116.879 49.9346 116.847 50.0377 116.805C50.5857 116.579 50.9794 116.082 51.0722 115.499L55.1678 90.2144L68.9621 111.797C69.2817 112.294 69.8372 112.595 70.4296 112.585C70.5378 112.583 70.6438 112.572 70.7511 112.55C71.2173 112.453 71.6265 112.166 71.8763 111.75L78.5277 100.574L91.8695 99.8239C92.4913 99.7861 93.0263 99.4306 93.3028 98.8907C93.5779 98.3441 93.5454 97.6968 93.2122 97.1852L74.1617 67.7293C80.7495 59.3045 83.753 48.1623 81.421 36.8931ZM10.9885 51.4683C7.16151 32.9747 19.0937 14.8155 37.5872 10.9885C56.0808 7.16146 74.24 19.0936 78.0671 37.5872C81.8941 56.0807 69.9619 74.24 51.4683 78.067C32.9748 81.894 14.8156 69.9618 10.9885 51.4683ZM48.907 82.5912L51.7866 86.0105L47.8299 112.271L38.9498 105.714C38.4902 105.386 37.9924 105.279 37.4296 105.483L26.821 109.385L31.6166 79.8772C37.2707 81.9494 42.8624 82.8068 49.1625 81.9158L48.9043 82.5778L48.907 82.5912ZM88.7412 96.5715L77.4318 97.205C76.841 97.2398 76.346 97.5521 76.0543 98.0357L70.3548 107.609L53.4103 81.0962C60.6973 79.3295 67.0036 75.5447 71.8388 70.431L88.7412 96.5715Z" fill="#763F94"/>
<path d="M62.9744 40.7104C60.87 30.5413 50.8796 23.9768 40.7105 26.0811C30.5414 28.1855 23.9768 38.1759 26.0812 48.345C28.1856 58.5141 38.176 65.0787 48.3451 62.9743C58.5142 60.8699 65.0788 50.8795 62.9744 40.7104ZM29.4351 47.651C27.7132 39.3299 33.0835 31.157 41.4045 29.4351C49.7256 27.7131 57.8985 33.0834 59.6205 41.4045C61.3424 49.7256 55.9721 57.8984 47.651 59.6204C39.33 61.3423 31.1571 55.9721 29.4351 47.651Z" fill="#763F94"/>
</svg>
