<svg width="107" height="107" viewBox="0 0 107 107" fill="none" xmlns="http://www.w3.org/2000/svg">
<g clip-path="url(#clip0_32_155)">
<path d="M34.2499 40.0982C22.6705 38.6169 10.9439 42.5625 2.68822 50.8182C2.26022 51.2462 1.84226 51.6876 1.43766 52.129C-0.140588 53.8644 -0.44487 56.302 0.658568 58.345C1.77538 60.4114 4.01569 61.5048 6.35297 61.1303C14.3412 59.8497 22.3996 61.4179 29.2811 65.4739C26.0109 69.3493 23.7003 73.9202 22.6738 78.889C22.3628 80.3937 22.8343 81.9519 23.9411 83.0587C24.8205 83.9414 25.9908 84.4162 27.1912 84.4162C27.4955 84.4162 27.8065 84.3861 28.1108 84.3226C33.0829 83.2927 37.6538 80.9822 41.5259 77.7153C45.5852 84.6001 47.1467 92.6586 45.8728 100.643C45.4983 102.987 46.5917 105.224 48.6581 106.341C49.4673 106.786 50.3467 107 51.2194 107C52.5302 107 53.8275 106.512 54.8674 105.562C55.3122 105.161 55.7469 104.743 56.1782 104.315C63.919 96.5708 68.2424 84.6703 66.6642 72.9237C71.3856 69.6703 75.8562 65.9888 79.9288 61.9161C95.0627 46.779 104.669 26.7432 106.97 5.50037C107.134 4.0124 106.609 2.53781 105.532 1.46447C104.459 0.391121 102.987 -0.123816 101.496 0.0266526C80.2532 2.3305 60.2174 11.9371 45.0803 27.0742C41.0745 31.0801 37.4565 35.4737 34.2499 40.0982ZM101.857 3.35368C102.322 3.28681 102.813 3.47406 103.168 3.83184C103.522 4.18962 103.696 4.66443 103.646 5.14593C101.392 25.9307 92.3743 44.746 77.5648 59.5554C73.9937 63.1266 70.0748 66.3432 65.9787 69.2657C64.5142 63.2402 61.4145 57.372 56.3053 52.2627C55.6532 51.6107 54.5933 51.6107 53.9412 52.2627C53.2892 52.9147 53.2892 53.9747 53.9412 54.6267C65.5407 66.2262 68.6638 87.1012 53.8142 101.947C53.4229 102.339 53.025 102.717 52.6204 103.088C51.6039 104.021 50.544 103.566 50.243 103.402C49.6077 103.058 48.9925 102.292 49.1697 101.175C50.6777 91.7323 48.6079 82.1692 43.3382 74.2512C43.3081 74.2044 43.2579 74.181 43.2245 74.1375C43.1944 74.1008 43.1844 74.0573 43.1509 74.0238C43.1108 73.9837 43.0573 73.967 43.0172 73.9302C42.9169 73.8466 42.8166 73.7731 42.7029 73.7129C42.626 73.6727 42.5524 73.6427 42.4688 73.6159C42.3418 73.5724 42.218 73.5457 42.0843 73.5357C42.0074 73.529 41.9305 73.529 41.8536 73.5357C41.7198 73.5423 41.5928 73.5658 41.4623 73.6059C41.3788 73.6326 41.3052 73.6661 41.2249 73.7028C41.1581 73.7363 41.0845 73.743 41.021 73.7864C40.9675 73.8199 40.9407 73.8734 40.8939 73.9135C40.8605 73.9402 40.817 73.9503 40.7869 73.9837C37.082 77.5649 32.461 80.0125 27.4286 81.0524C26.8368 81.1661 26.4489 80.8451 26.3051 80.698C26.158 80.5508 25.8303 80.1463 25.9507 79.5711C26.9906 74.5421 29.4349 69.9211 33.0194 66.2128C33.0628 66.1694 33.0762 66.1125 33.113 66.0657C33.1398 66.0323 33.1832 66.0156 33.21 65.9788C33.2468 65.9219 33.2534 65.8584 33.2835 65.8016C33.3337 65.7046 33.3738 65.6076 33.4039 65.504C33.434 65.397 33.4507 65.2933 33.4608 65.183C33.4708 65.0793 33.4708 64.979 33.4574 64.872C33.4474 64.765 33.424 64.6647 33.3905 64.561C33.3604 64.4607 33.3203 64.3671 33.2702 64.2701C33.2167 64.1732 33.1531 64.0862 33.0829 63.9959C33.0428 63.9491 33.0261 63.8889 32.9793 63.8455C32.9391 63.8087 32.889 63.7953 32.8489 63.7619C32.8087 63.7284 32.7853 63.685 32.7418 63.6549C24.8272 58.3918 15.2641 56.3187 5.82466 57.8234C4.70116 58.0173 3.94213 57.3887 3.59772 56.7534C3.43722 56.4524 2.97913 55.3992 3.90869 54.376C4.27651 53.9714 4.65435 53.5768 5.04557 53.1856C12.7797 45.4482 23.8475 41.8102 34.6812 43.4787C34.7013 43.482 34.7147 43.4687 34.7314 43.4687C34.7414 43.4687 34.7548 43.4687 34.7648 43.4687C34.7916 43.4687 34.815 43.4787 34.8384 43.482C35.0256 43.5021 35.2129 43.5088 35.3968 43.4653C35.4804 43.4452 35.5539 43.4051 35.6342 43.375C35.7512 43.3282 35.8683 43.2914 35.9719 43.2179C36.0722 43.1477 36.1458 43.0574 36.226 42.9671C36.2829 42.9036 36.3564 42.8634 36.4066 42.7899C39.63 38.0284 43.3482 33.5344 47.4477 29.4349C62.0465 14.8361 81.3667 5.57393 101.857 3.35368Z" fill="#763F94"/>
<path d="M74.0306 42.9973C76.709 42.9973 79.2302 41.954 81.1261 40.0615C85.0349 36.1493 85.0349 29.7861 81.1261 25.8739C77.3343 22.0855 70.727 22.0855 66.9385 25.8739C63.0263 29.7861 63.0263 36.1493 66.9385 40.0615C68.8311 41.9574 71.3523 42.9973 74.0306 42.9973ZM69.3026 28.238C70.5665 26.974 72.2451 26.2785 74.0306 26.2785C75.8162 26.2785 77.4981 26.974 78.762 28.238C81.3668 30.8461 81.3668 35.0893 78.762 37.6974C76.2342 40.2186 71.8271 40.2186 69.3026 37.6974C66.6944 35.0893 66.6944 30.8494 69.3026 28.238Z" fill="#763F94"/>
<path d="M18.1966 86.4393L12.6493 91.9899C11.9973 92.6419 11.9973 93.7019 12.6493 94.3539C12.977 94.6816 13.405 94.8421 13.833 94.8421C14.261 94.8421 14.689 94.6783 15.0167 94.3539L20.564 88.8033C21.216 88.1513 21.216 87.0913 20.564 86.4393C19.9119 85.7872 18.8486 85.7839 18.1966 86.4393Z" fill="#763F94"/>
<path d="M18.1833 69.7573L4.30006 83.6372C3.64803 84.2893 3.64803 85.3492 4.30006 86.0013C4.62775 86.329 5.05575 86.4895 5.48375 86.4895C5.91175 86.4895 6.33975 86.3256 6.66743 86.0013L20.5507 72.1214C21.2027 71.4693 21.2027 70.4094 20.5507 69.7573C19.8987 69.1053 18.8353 69.1053 18.1833 69.7573Z" fill="#763F94"/>
<path d="M20.6375 102.339C20.9652 102.666 21.3932 102.827 21.8212 102.827C22.2492 102.827 22.6772 102.663 23.0049 102.339L36.8882 88.4589C37.5402 87.8069 37.5402 86.7469 36.8882 86.0949C36.2361 85.4428 35.1762 85.4428 34.5241 86.0949L20.6409 99.9748C19.9855 100.63 19.9855 101.687 20.6375 102.339Z" fill="#763F94"/>
</g>
<defs>
<clipPath id="clip0_32_155">
<rect width="107" height="107" fill="white"/>
</clipPath>
</defs>
</svg>
