<svg width="138" height="138" viewBox="0 0 138 138" fill="none" xmlns="http://www.w3.org/2000/svg">
<circle cx="69" cy="69" r="69" fill="#3D0066" fill-opacity="0.65"/>
<path d="M44.3088 65.027C44.3088 69.3653 45.1633 73.661 46.8235 77.6691C48.4837 81.6771 50.917 85.3189 53.9847 88.3865C57.0523 91.4541 60.6941 93.8875 64.7021 95.5477C68.7101 97.2078 73.0059 98.0623 77.3441 98.0623C81.6824 98.0623 85.9782 97.2078 89.9862 95.5477C93.9942 93.8875 97.636 91.4541 100.704 88.3865C103.771 85.3189 106.205 81.6771 107.865 77.6691C109.525 73.661 110.379 69.3653 110.379 65.027C110.379 56.2655 106.899 47.8628 100.704 41.6675C94.5083 35.4722 86.1057 31.9917 77.3441 31.9917C68.5826 31.9917 60.18 35.4722 53.9847 41.6675C47.7893 47.8628 44.3088 56.2655 44.3088 65.027Z" fill="#FFEC43"/>
<path d="M77.3437 98.8139C58.7134 98.8139 43.5563 83.6568 43.5563 65.0265C43.5563 46.3962 58.7139 31.2405 77.3437 31.2405C95.9735 31.2405 111.131 46.3967 111.131 65.0265C111.131 83.6563 95.974 98.8139 77.3437 98.8139ZM77.3437 32.7428C59.5425 32.7428 45.0596 47.2262 45.0596 65.027C45.0596 82.8287 59.542 97.3121 77.3437 97.3121C95.1454 97.3121 109.628 82.8287 109.628 65.027C109.628 47.2262 95.1454 32.7428 77.3437 32.7428Z" fill="#6B0204"/>
<path d="M39.5074 93.747C39.9156 94.2791 39.7157 95.1175 39.0605 95.6198L32.8076 100.415C32.1525 100.918 31.2911 100.894 30.8829 100.362C30.4748 99.8294 30.6747 98.991 31.3298 98.4887L37.5827 93.6931C38.2373 93.1908 39.0993 93.2149 39.5074 93.747ZM40.9456 101.593C41.3537 102.126 41.1538 102.964 40.4987 103.466L34.2458 108.262C33.5907 108.764 32.7292 108.74 32.3211 108.208C31.9129 107.676 32.1128 106.837 32.768 106.335L39.0209 101.539C39.676 101.037 40.5374 101.061 40.9456 101.593ZM32.3029 90.3239C32.7111 90.856 32.5112 91.6944 31.8561 92.1966L25.6032 96.9923C24.948 97.4945 24.0866 97.4705 23.6785 96.9384C23.2703 96.4062 23.4702 95.5678 24.1253 95.0656L30.3782 90.27C32.0521 88.9857 32.4588 90.5272 32.3029 90.3239Z" fill="#FFCB45"/>
<path d="M52.1597 63.2172C52.1597 63.2172 43.13 57.7223 26.8453 71.5188L42.5425 78.4371L52.1597 63.2172Z" fill="#BED5E9"/>
<path d="M42.8316 79.3866L25.443 71.7216L26.3598 70.9449C35.686 63.0442 42.7258 61.385 46.9888 61.385C50.5535 61.385 52.4699 62.5262 52.5503 62.5752L53.203 62.9726L42.8316 79.3866ZM28.259 71.3207L42.2529 77.4884L51.0626 63.5469C50.2987 63.2632 48.9243 62.8888 46.9888 62.8888C43.1168 62.8888 36.7698 64.3774 28.259 71.3207Z" fill="#6C0000"/>
<path d="M71.5706 88.5273C71.5706 88.5273 74.536 98.6728 56.9887 110.823L54.3774 93.8688L71.5706 88.5273Z" fill="#BED5E9"/>
<path d="M56.4286 112.124L53.5356 93.3427L72.0777 87.5837L72.2919 88.3178C72.4198 88.7534 75.2049 99.1252 57.416 111.441L56.4286 112.124ZM55.2188 94.3947L57.5458 109.509C70.7601 99.995 71.1997 91.9482 70.9698 89.5016L55.2188 94.3947Z" fill="#6C0000"/>
<path d="M75.6135 85.3769C90.1063 74.2622 97.5205 59.6004 92.1741 52.6287C86.8272 45.657 70.7444 49.0155 56.2512 60.1301C46.8123 67.3689 40.3801 76.111 38.5161 83.2552L38.521 83.2566C38.4987 83.3013 38.4853 83.3499 38.4813 83.3997C38.4642 83.6428 47.465 86.5338 48.0981 96.0015C48.1054 96.1108 48.149 96.2172 48.2162 96.3049C48.3019 96.4166 48.4264 96.4979 48.5611 96.5175C48.6046 96.5223 48.6486 96.5194 48.691 96.5087C56.0723 96.5572 66.1786 92.6122 75.6135 85.3769Z" fill="#BED5E9"/>
<path d="M48.5975 97.2713L48.4431 97.2591C48.1285 97.214 47.8243 97.0303 47.6175 96.7588C47.4575 96.5539 47.3636 96.3053 47.348 96.0459C47.0064 90.9499 44.0772 87.0132 38.6402 84.3505C38.0904 84.0815 37.693 83.887 37.7307 83.3475C37.7376 83.2495 37.7572 83.1544 37.7905 83.0589C39.7785 75.4477 46.5081 66.6537 55.7936 59.5335C65.012 52.4633 75.1981 48.2415 83.0415 48.2415C87.4349 48.2415 90.7987 49.6007 92.77 52.1708C98.3594 59.46 90.8683 74.6235 76.0708 85.9739C66.8549 93.0407 56.6702 97.2611 48.8268 97.2611H48.8263L48.5975 97.2713ZM39.3566 83.028C45.2081 85.9112 48.3956 90.1928 48.8337 95.7572C56.3566 95.7548 66.1958 91.652 75.156 84.7798C89.2959 73.9346 96.6626 59.7168 91.5773 53.0856C89.9015 50.9007 86.9498 49.7448 83.0415 49.7448C75.5181 49.7448 65.674 53.85 56.7084 60.7271C47.8478 67.521 41.3959 75.8231 39.3566 83.028Z" fill="#6C0000"/>
<path d="M68.1695 89.7384L49.9185 65.6868C48.9235 66.7338 47.9685 67.8182 47.0554 68.9374L64.2868 91.646C65.6047 91.0595 66.8999 90.4232 68.1695 89.7384Z" fill="white"/>
<path d="M64.0486 92.5742L46.0999 68.9214L46.4727 68.4628C47.3979 67.3289 48.3652 66.2301 49.3726 65.1685L49.9816 64.5261L69.2994 89.9846L68.5257 90.4006C67.2394 91.0938 65.9274 91.7381 64.5925 92.3321L64.0486 92.5742ZM48.0133 68.9572L64.5234 90.7151C65.3704 90.3266 66.2079 89.9175 67.0351 89.4882L49.8586 66.8507C49.2261 67.5374 48.6108 68.2398 48.0133 68.9572Z" fill="#6C0000"/>
<path d="M60.136 94.154L43.7607 72.8018C43.1011 73.6269 42.3505 74.797 41.832 76.026L56.4135 95.2599C57.4552 95.1208 59.1677 94.5769 60.136 94.154Z" fill="white"/>
<path d="M56.0786 96.0617L40.9705 76.1339L41.1395 75.734C41.6241 74.584 42.365 73.3448 43.173 72.3334L43.7723 71.5823L61.3162 94.4584L60.4367 94.8426C59.4239 95.2855 57.6349 95.8554 56.5123 96.0049L56.0786 96.0617ZM42.6992 75.9261L56.7377 94.4422C57.3938 94.3114 58.2185 94.0679 58.9304 93.817L43.7718 74.0519C43.3656 74.6475 43.0069 75.2742 42.6992 75.9261Z" fill="#6C0000"/>
<path d="M66.4446 67.112C66.4446 68.9197 67.1627 70.6534 68.4409 71.9316C69.7191 73.2098 71.4528 73.9279 73.2605 73.9279C75.0682 73.9279 76.8018 73.2098 78.0801 71.9316C79.3583 70.6534 80.0764 68.9197 80.0764 67.112C80.0764 65.3044 79.3583 63.5707 78.0801 62.2925C76.8018 61.0142 75.0682 60.2961 73.2605 60.2961C71.4528 60.2961 69.7191 61.0142 68.4409 62.2925C67.1627 63.5707 66.4446 65.3044 66.4446 67.112Z" fill="#ECF3FE"/>
<path d="M73.2605 74.6781C69.0882 74.6781 65.693 71.2848 65.693 67.1125C65.693 62.9401 69.0882 59.5454 73.2605 59.5454C77.4329 59.5454 80.8276 62.9401 80.8276 67.1125C80.8276 71.2848 77.4334 74.6781 73.2605 74.6781ZM73.2605 61.0478C69.9168 61.0478 67.1963 63.7682 67.1963 67.1125C67.1963 70.4558 69.9168 73.1762 73.2605 73.1762C76.6043 73.1762 79.3243 70.4558 79.3243 67.1125C79.3243 63.7682 76.6043 61.0478 73.2605 61.0478Z" fill="#6C0000"/>
<path d="M75.3072 61.7544C77.177 62.7123 77.9684 64.9526 77.719 67.1836C77.1756 72.0532 71.4136 72.5785 70.8354 72.3849C71.6501 72.8029 72.5527 73.0204 73.4682 73.0195C76.662 73.0195 79.2512 70.4303 79.2512 67.2365C79.2512 64.6861 77.5989 62.5227 75.3072 61.7544Z" fill="#BED5E9"/>
<path d="M107.551 36.3496C107.551 37.3248 107.939 38.26 108.628 38.9496C109.318 39.6391 110.253 40.0265 111.228 40.0265C112.203 40.0265 113.139 39.6391 113.828 38.9496C114.518 38.26 114.905 37.3248 114.905 36.3496C114.905 35.3744 114.518 34.4391 113.828 33.7496C113.139 33.06 112.203 32.6726 111.228 32.6726C110.253 32.6726 109.318 33.06 108.628 33.7496C107.939 34.4391 107.551 35.3744 107.551 36.3496Z" fill="#FFC700"/>
<path d="M111.229 40.7772C108.787 40.7772 106.799 38.7907 106.799 36.349C106.799 33.9074 108.786 31.9209 111.229 31.9209C113.671 31.9209 115.657 33.9074 115.657 36.349C115.657 38.7907 113.671 40.7772 111.229 40.7772ZM111.229 33.4232C110.453 33.4241 109.709 33.7327 109.161 34.2812C108.612 34.8297 108.304 35.5733 108.303 36.349C108.304 37.1247 108.612 37.8684 109.161 38.4169C109.709 38.9654 110.453 39.2739 111.229 39.2748C112.004 39.2739 112.748 38.9654 113.296 38.4168C113.845 37.8683 114.153 37.1247 114.154 36.349C114.153 35.5734 113.845 34.8298 113.296 34.2814C112.748 33.7329 112.004 33.4243 111.229 33.4232Z" fill="#6C0000"/>
<path d="M38.2485 39.6823C38.2485 40.4137 38.5391 41.1151 39.0563 41.6323C39.5734 42.1495 40.2749 42.44 41.0063 42.44C41.7376 42.44 42.4391 42.1495 42.9563 41.6323C43.4734 41.1151 43.764 40.4137 43.764 39.6823C43.764 38.9509 43.4734 38.2495 42.9563 37.7323C42.4391 37.2151 41.7376 36.9246 41.0063 36.9246C40.2749 36.9246 39.5734 37.2151 39.0563 37.7323C38.5391 38.2495 38.2485 38.9509 38.2485 39.6823Z" fill="#FFCB45"/>
</svg>
