<svg width="98" height="98" viewBox="0 0 98 98" fill="none" xmlns="http://www.w3.org/2000/svg">
<path d="M24.3088 45.027C24.3088 49.3653 25.1633 53.661 26.8235 57.6691C28.4837 61.6771 30.917 65.3189 33.9847 68.3865C37.0523 71.4541 40.6941 73.8875 44.7021 75.5477C48.7101 77.2078 53.0059 78.0623 57.3441 78.0623C61.6824 78.0623 65.9782 77.2078 69.9862 75.5477C73.9942 73.8875 77.636 71.4541 80.7036 68.3865C83.7713 65.3189 86.2046 61.6771 87.8648 57.6691C89.525 53.661 90.3795 49.3653 90.3795 45.027C90.3795 36.2655 86.899 27.8628 80.7036 21.6675C74.5083 15.4722 66.1057 11.9917 57.3441 11.9917C48.5826 11.9917 40.18 15.4722 33.9847 21.6675C27.7893 27.8628 24.3088 36.2655 24.3088 45.027Z" fill="#FFEC43"/>
<path d="M57.3437 78.8139C38.7134 78.8139 23.5563 63.6568 23.5563 45.0265C23.5563 26.3962 38.7139 11.2405 57.3437 11.2405C75.9735 11.2405 91.1312 26.3967 91.1312 45.0265C91.1312 63.6563 75.974 78.8139 57.3437 78.8139ZM57.3437 12.7428C39.5425 12.7428 25.0596 27.2262 25.0596 45.027C25.0596 62.8287 39.542 77.3121 57.3437 77.3121C75.1454 77.3121 89.6279 62.8287 89.6279 45.027C89.6279 27.2262 75.1454 12.7428 57.3437 12.7428Z" fill="#6B0204"/>
<path d="M19.5074 73.747C19.9156 74.2791 19.7157 75.1175 19.0605 75.6198L12.8076 80.4154C12.1525 80.9177 11.2911 80.8937 10.8829 80.3615C10.4748 79.8294 10.6747 78.991 11.3298 78.4887L17.5827 73.6931C18.2373 73.1908 19.0993 73.2149 19.5074 73.747ZM20.9456 81.5934C21.3537 82.1255 21.1538 82.9639 20.4987 83.4661L14.2458 88.2618C13.5907 88.764 12.7292 88.74 12.3211 88.2079C11.9129 87.6757 12.1128 86.8373 12.768 86.3351L19.0209 81.5395C19.676 81.0367 20.5374 81.0612 20.9456 81.5934ZM12.3029 70.3239C12.7111 70.856 12.5112 71.6944 11.8561 72.1966L5.60318 76.9923C4.94805 77.4945 4.08663 77.4705 3.67846 76.9384C3.27029 76.4062 3.47021 75.5678 4.12534 75.0656L10.3782 70.27C12.0521 68.9857 12.4588 70.5272 12.3029 70.3239Z" fill="#FFCB45"/>
<path d="M32.1597 43.2172C32.1597 43.2172 23.13 37.7223 6.84534 51.5188L22.5425 58.4371L32.1597 43.2172Z" fill="#BED5E9"/>
<path d="M22.8316 59.3866L5.44299 51.7216L6.35978 50.9449C15.686 43.0442 22.7258 41.385 26.9888 41.385C30.5535 41.385 32.4699 42.5262 32.5503 42.5752L33.203 42.9726L22.8316 59.3866ZM8.25902 51.3207L22.2529 57.4884L31.0626 43.5469C30.2987 43.2632 28.9243 42.8888 26.9888 42.8888C23.1168 42.8888 16.7698 44.3774 8.25902 51.3207Z" fill="#6C0000"/>
<path d="M51.5706 68.5273C51.5706 68.5273 54.536 78.6728 36.9887 90.8228L34.3774 73.8688L51.5706 68.5273Z" fill="#BED5E9"/>
<path d="M36.4286 92.1244L33.5356 73.3427L52.0777 67.5837L52.2919 68.3178C52.4198 68.7534 55.2049 79.1252 37.416 91.4409L36.4286 92.1244ZM35.2188 74.3947L37.5458 89.5093C50.7601 79.995 51.1997 71.9482 50.9698 69.5016L35.2188 74.3947Z" fill="#6C0000"/>
<path d="M55.6135 65.3769C70.1063 54.2622 77.5205 39.6004 72.1741 32.6287C66.8272 25.657 50.7444 29.0155 36.2512 40.1301C26.8123 47.3689 20.3801 56.111 18.5161 63.2552L18.521 63.2566C18.4987 63.3013 18.4853 63.3499 18.4813 63.3997C18.4642 63.6428 27.465 66.5338 28.0981 76.0015C28.1054 76.1108 28.149 76.2172 28.2162 76.3049C28.3019 76.4166 28.4264 76.4979 28.5611 76.5175C28.6046 76.5223 28.6486 76.5194 28.691 76.5087C36.0723 76.5572 46.1786 72.6122 55.6135 65.3769Z" fill="#BED5E9"/>
<path d="M28.5975 77.2713L28.4431 77.2591C28.1285 77.214 27.8243 77.0303 27.6175 76.7588C27.4575 76.5539 27.3636 76.3053 27.348 76.0459C27.0064 70.9499 24.0772 67.0132 18.6402 64.3505C18.0904 64.0815 17.693 63.887 17.7307 63.3475C17.7376 63.2495 17.7572 63.1544 17.7905 63.0589C19.7785 55.4477 26.5081 46.6537 35.7936 39.5335C45.012 32.4633 55.1981 28.2415 63.0415 28.2415C67.4349 28.2415 70.7987 29.6007 72.77 32.1708C78.3594 39.46 70.8683 54.6235 56.0708 65.9739C46.8549 73.0407 36.6702 77.2611 28.8268 77.2611H28.8263L28.5975 77.2713ZM19.3566 63.028C25.2081 65.9112 28.3956 70.1928 28.8337 75.7572C36.3566 75.7548 46.1958 71.652 55.156 64.7798C69.2959 53.9346 76.6626 39.7168 71.5773 33.0856C69.9015 30.9007 66.9498 29.7448 63.0415 29.7448C55.5181 29.7448 45.674 33.85 36.7084 40.7271C27.8478 47.521 21.3959 55.8231 19.3566 63.028Z" fill="#6C0000"/>
<path d="M48.1695 69.7384L29.9185 45.6868C28.9235 46.7338 27.9685 47.8182 27.0554 48.9374L44.2868 71.646C45.6047 71.0595 46.8999 70.4232 48.1695 69.7384Z" fill="white"/>
<path d="M44.0486 72.5742L26.0999 48.9214L26.4727 48.4628C27.3979 47.3289 28.3652 46.2301 29.3726 45.1685L29.9816 44.5261L49.2994 69.9846L48.5257 70.4006C47.2394 71.0938 45.9274 71.7381 44.5925 72.3321L44.0486 72.5742ZM28.0133 48.9572L44.5234 70.7151C45.3704 70.3266 46.2079 69.9175 47.0351 69.4882L29.8586 46.8507C29.2261 47.5374 28.6108 48.2398 28.0133 48.9572Z" fill="#6C0000"/>
<path d="M40.136 74.154L23.7607 52.8018C23.1011 53.6269 22.3505 54.797 21.832 56.026L36.4135 75.2599C37.4552 75.1208 39.1677 74.5769 40.136 74.154Z" fill="white"/>
<path d="M36.0786 76.0617L20.9705 56.1339L21.1395 55.734C21.6241 54.584 22.365 53.3448 23.173 52.3334L23.7723 51.5823L41.3162 74.4584L40.4367 74.8426C39.4239 75.2855 37.6349 75.8554 36.5123 76.0049L36.0786 76.0617ZM22.6992 55.9261L36.7377 74.4422C37.3938 74.3114 38.2185 74.0679 38.9304 73.817L23.7718 54.0519C23.3656 54.6475 23.0069 55.2742 22.6992 55.9261Z" fill="#6C0000"/>
<path d="M46.4446 47.112C46.4446 48.9197 47.1627 50.6534 48.4409 51.9316C49.7191 53.2098 51.4528 53.9279 53.2605 53.9279C55.0682 53.9279 56.8018 53.2098 58.0801 51.9316C59.3583 50.6534 60.0764 48.9197 60.0764 47.112C60.0764 45.3044 59.3583 43.5707 58.0801 42.2925C56.8018 41.0142 55.0682 40.2961 53.2605 40.2961C51.4528 40.2961 49.7191 41.0142 48.4409 42.2925C47.1627 43.5707 46.4446 45.3044 46.4446 47.112Z" fill="#ECF3FE"/>
<path d="M53.2605 54.6781C49.0882 54.6781 45.693 51.2848 45.693 47.1125C45.693 42.9401 49.0882 39.5454 53.2605 39.5454C57.4329 39.5454 60.8276 42.9401 60.8276 47.1125C60.8276 51.2848 57.4334 54.6781 53.2605 54.6781ZM53.2605 41.0478C49.9168 41.0478 47.1963 43.7682 47.1963 47.1125C47.1963 50.4558 49.9168 53.1762 53.2605 53.1762C56.6043 53.1762 59.3243 50.4558 59.3243 47.1125C59.3243 43.7682 56.6043 41.0478 53.2605 41.0478Z" fill="#6C0000"/>
<path d="M55.3072 41.7544C57.177 42.7123 57.9684 44.9526 57.719 47.1836C57.1756 52.0532 51.4136 52.5785 50.8354 52.3849C51.6501 52.8029 52.5527 53.0204 53.4682 53.0195C56.662 53.0195 59.2512 50.4303 59.2512 47.2365C59.2512 44.6861 57.5989 42.5227 55.3072 41.7544Z" fill="#BED5E9"/>
<path d="M87.5513 16.3496C87.5513 17.3248 87.9387 18.26 88.6282 18.9496C89.3178 19.6391 90.253 20.0265 91.2282 20.0265C92.2034 20.0265 93.1387 19.6391 93.8282 18.9496C94.5178 18.26 94.9052 17.3248 94.9052 16.3496C94.9052 15.3744 94.5178 14.4391 93.8282 13.7496C93.1387 13.06 92.2034 12.6726 91.2282 12.6726C90.253 12.6726 89.3178 13.06 88.6282 13.7496C87.9387 14.4391 87.5513 15.3744 87.5513 16.3496Z" fill="#FFC700"/>
<path d="M91.2287 20.7772C88.7865 20.7772 86.7991 18.7907 86.7991 16.349C86.7991 13.9074 88.786 11.9209 91.2287 11.9209C93.6713 11.9209 95.6573 13.9074 95.6573 16.349C95.6573 18.7907 93.6708 20.7772 91.2287 20.7772ZM91.2287 13.4232C90.453 13.4241 89.7093 13.7327 89.1608 14.2812C88.6123 14.8297 88.3038 15.5733 88.3029 16.349C88.3038 17.1247 88.6123 17.8684 89.1608 18.4169C89.7093 18.9654 90.453 19.2739 91.2287 19.2748C92.0043 19.2739 92.7479 18.9654 93.2963 18.4168C93.8448 17.8683 94.1532 17.1247 94.154 16.349C94.1531 15.5734 93.8446 14.8298 93.2962 14.2814C92.7478 13.7329 92.0043 13.4243 91.2287 13.4232Z" fill="#6C0000"/>
<path d="M18.2485 19.6823C18.2485 20.4137 18.5391 21.1151 19.0563 21.6323C19.5734 22.1495 20.2749 22.44 21.0063 22.44C21.7376 22.44 22.4391 22.1495 22.9563 21.6323C23.4734 21.1151 23.764 20.4137 23.764 19.6823C23.764 18.9509 23.4734 18.2495 22.9563 17.7323C22.4391 17.2151 21.7376 16.9246 21.0063 16.9246C20.2749 16.9246 19.5734 17.2151 19.0563 17.7323C18.5391 18.2495 18.2485 18.9509 18.2485 19.6823Z" fill="#FFCB45"/>
</svg>
