<svg width="62" height="62" viewBox="0 0 62 62" fill="none" xmlns="http://www.w3.org/2000/svg">
<g clip-path="url(#clip0_43_829)">
<path d="M51.9674 25.5503C49.9993 21.7529 46.6704 18.9492 42.5934 17.6556C38.5164 16.362 34.18 16.7338 30.3827 18.7019C27.2687 20.3158 24.9685 23.0465 23.9078 26.3896C22.8471 29.7326 23.1507 33.2895 24.7659 36.4048C27.5134 41.7073 34.0625 43.7835 39.3624 41.036C41.4934 39.9315 43.0672 38.064 43.7931 35.7761C44.519 33.4883 44.3105 31.0553 43.2053 28.9241C42.2826 27.1426 40.7205 25.8273 38.8085 25.2206C36.8964 24.6139 34.8625 24.7883 33.0808 25.7118C29.9812 27.3176 28.7666 31.1456 30.3732 34.2454C31.0354 35.523 32.1545 36.4668 33.527 36.9023C34.8996 37.3378 36.3579 37.2126 37.6357 36.5497C38.4264 36.1399 38.7351 35.167 38.3256 34.3755C37.9155 33.5857 36.9428 33.2762 36.1522 33.686C35.1259 34.2172 33.7694 33.7868 33.2372 32.7611C32.4491 31.2405 33.045 29.3623 34.5656 28.5742C35.582 28.0474 36.7428 27.9479 37.8341 28.2942C38.9254 28.6404 39.8166 29.3909 40.3433 30.4074C41.0519 31.7733 41.1855 33.3332 40.7202 34.7995C40.255 36.2658 39.2463 37.4642 37.8799 38.1717C34.1564 40.1015 29.5601 38.6423 27.6301 34.9197C26.4123 32.57 26.1826 29.8867 26.9829 27.3644C27.7832 24.8421 29.517 22.7818 31.8675 21.5643C34.9005 19.9923 38.3639 19.6955 41.6193 20.7284C44.8748 21.7613 47.5335 24.0005 49.1054 27.0336C51.1197 30.92 51.4998 35.358 50.176 39.5303C48.8522 43.7026 45.983 47.1097 42.0966 49.124C37.1097 51.7085 31.4266 52.1952 26.0799 50.4988C26.0415 50.4866 26.0031 50.4744 25.9654 50.4625C20.6904 48.7567 16.4229 45.1146 13.9479 40.2064C8.04306 28.4961 11.569 13.9414 22.1494 6.35091C22.8732 5.83194 23.0388 4.82461 22.5199 4.10082C21.9994 3.37654 20.9928 3.21113 20.2698 3.73034C8.41138 12.2375 4.45444 28.5426 11.0671 41.6584C13.9324 47.3416 18.8703 51.5577 24.9716 53.5307C25.017 53.5451 25.0593 53.5585 25.1046 53.5729C31.2712 55.5295 37.8281 54.9682 43.5796 51.9867C48.2311 49.5765 51.6651 45.4985 53.2493 40.5054C54.8335 35.5124 54.3778 30.2011 51.9674 25.5503Z" fill="#763F94"/>
</g>
<defs>
<clipPath id="clip0_43_829">
<rect width="48.4056" height="48.4056" fill="white" transform="translate(15.1495 0.528992) rotate(17.6033)"/>
</clipPath>
</defs>
</svg>
