<svg width="73" height="73" viewBox="0 0 73 73" fill="none" xmlns="http://www.w3.org/2000/svg">
<path d="M33.7318 6.61965C34.6088 4.55635 35.0475 3.5247 35.6582 3.20701C36.1886 2.931 36.8115 2.931 37.3418 3.20701C37.9525 3.5247 38.3913 4.55635 39.2683 6.61965L46.2543 23.0541C46.5138 23.6641 46.6433 23.969 46.8441 24.2026C47.0214 24.4092 47.2385 24.5745 47.4806 24.6877C47.7545 24.8156 48.0712 24.8506 48.7047 24.9207L65.7692 26.8093C67.9116 27.0464 68.9826 27.165 69.4595 27.6758C69.8736 28.1195 70.0661 28.7408 69.9797 29.3552C69.8805 30.0623 69.0803 30.8183 67.4801 32.3306L54.7329 44.3764C54.2601 44.8233 54.0233 45.047 53.8737 45.3191C53.7411 45.5603 53.6581 45.8276 53.6305 46.1041C53.599 46.4168 53.6649 46.7433 53.7972 47.3968L57.3576 64.9983C57.8046 67.2083 58.0282 68.3131 57.7122 68.9463C57.4375 69.4969 56.9337 69.8806 56.3498 69.9843C55.6778 70.1035 54.7447 69.5394 52.8785 68.4108L38.0143 59.4207C37.4627 59.087 37.1869 58.9206 36.8937 58.855C36.6341 58.7974 36.3659 58.7974 36.1064 58.855C35.8132 58.9206 35.5374 59.087 34.9858 59.4207L20.1217 68.4108C18.2556 69.5394 17.3225 70.1035 16.6504 69.9843C16.0665 69.8806 15.5625 69.4969 15.2881 68.9463C14.9721 68.3131 15.1956 67.2083 15.6426 64.9983L19.2029 47.3968C19.3351 46.7433 19.4011 46.4168 19.3698 46.1041C19.342 45.8276 19.2591 45.5603 19.1265 45.3191C18.9767 45.047 18.7401 44.8233 18.2671 44.3764L5.52023 32.3306C3.91994 30.8183 3.11977 30.0623 3.02028 29.3552C2.93391 28.7408 3.1264 28.1195 3.54063 27.6758C4.01753 27.165 5.08872 27.0464 7.23112 26.8093L24.2956 24.9207C24.929 24.8506 25.2456 24.8156 25.5194 24.6877C25.7617 24.5745 25.9786 24.4092 26.1562 24.2026C26.3568 23.969 26.4864 23.6641 26.7457 23.0541L33.7318 6.61965Z" stroke="#03071E" stroke-width="4.82183" stroke-linecap="round" stroke-linejoin="round"/>
</svg>
