<svg width="82" height="83" viewBox="0 0 82 83" fill="none" xmlns="http://www.w3.org/2000/svg">
<g clip-path="url(#clip0_3_2)">
<path d="M53.4017 51.5944L52.6903 47.3966L62.227 37.9876C62.6317 37.588 62.7774 36.9909 62.6025 36.4474C62.4281 35.9035 61.9635 35.507 61.4042 35.4246L48.2248 33.4861L42.3304 21.3981C42.0807 20.8849 41.5649 20.5602 40.9998 20.5602C40.4348 20.5602 39.9185 20.8849 39.6686 21.3981L33.7744 33.4861L20.595 35.4246C20.0364 35.5068 19.5713 35.9032 19.3965 36.4474C19.2221 36.9908 19.3679 37.588 19.7724 37.9876L29.3094 47.3966L27.0579 60.6829C26.9621 61.2464 27.191 61.816 27.6481 62.1524C28.105 62.4886 28.7115 62.533 29.2114 62.2667L41 55.9937L52.7875 62.2665C53.0048 62.382 53.2422 62.439 53.4784 62.439C53.7861 62.439 54.0928 62.3424 54.3513 62.1522C54.8082 61.816 55.0369 61.2462 54.9418 60.6827L54.0966 55.6951" fill="#FFD960"/>
<g opacity="0.2">
<path d="M30.9138 59.5715L33.0553 46.9333C33.1429 46.4165 32.9805 46.1263 32.8732 45.9971L32.7891 45.9141L23.6282 36.876C23.2235 36.4764 23.0779 35.8793 23.2521 35.3358C23.2896 35.2197 23.3423 35.1122 23.4041 35.0114L20.5953 35.4245C20.0367 35.5067 19.5716 35.903 19.3968 36.4472C19.2224 36.9906 19.3682 37.5878 19.7727 37.9874L29.3097 47.3964L27.0582 60.6827C26.9625 61.2462 27.1913 61.8159 27.6484 62.1523C28.1053 62.4885 28.7119 62.5329 29.2117 62.2665L31.5093 61.0441C31.5075 61.0428 31.5056 61.042 31.504 61.0408C31.0471 60.7046 30.8182 60.135 30.9138 59.5715Z" fill="#231F20"/>
</g>
<path d="M28.5185 63.7531C27.9447 63.7532 27.3745 63.571 26.8873 63.2124C26.0251 62.5781 25.6018 61.5237 25.7823 60.4608L27.9186 47.854L18.869 38.9259C18.1061 38.172 17.8368 37.0674 18.1656 36.0426C18.4955 35.0161 19.3552 34.2829 20.4093 34.1277L32.915 32.2883L38.508 20.8182C38.9787 19.8511 39.9338 19.2498 41 19.2498C42.0662 19.2498 43.0212 19.8511 43.492 20.8192L49.0845 32.2883L61.5902 34.1277C62.6451 34.2827 63.5051 35.0166 63.8338 36.0429C64.1632 37.0668 63.894 38.1719 63.1309 38.9255L54.0812 47.8542L54.6775 51.3729C54.7986 52.0862 54.3252 52.7638 53.6203 52.8862C52.9153 53.0086 52.2462 52.5294 52.1256 51.8161L51.4142 47.6183C51.3419 47.1931 51.4813 46.7593 51.7864 46.4583L61.323 37.0493C61.3743 36.9987 61.3933 36.9217 61.3712 36.8533C61.3488 36.7833 61.2889 36.7322 61.2181 36.7217L48.0385 34.7832C47.6168 34.7211 47.2522 34.4531 47.0637 34.0661L41.1693 21.9781C41.1368 21.9115 41.0721 21.8708 40.9998 21.8708C40.9271 21.8708 40.8621 21.9115 40.8301 21.9775L34.9355 34.0661C34.7469 34.4529 34.3823 34.7211 33.9605 34.7832L20.7811 36.7217C20.7101 36.7322 20.6499 36.7837 20.6276 36.853C20.6057 36.9212 20.6249 36.9989 20.6765 37.0499L30.213 46.4584C30.5183 46.7595 30.6574 47.1933 30.5852 47.6185L28.3337 60.9048C28.3214 60.9776 28.3505 61.0492 28.4092 61.0927C28.467 61.1352 28.545 61.1408 28.6082 61.1074L40.3968 54.8345C40.7743 54.6338 41.2249 54.6339 41.6019 54.8345L53.3894 61.1071C53.4411 61.1345 53.5032 61.1561 53.5892 61.0927C53.647 61.0502 53.677 60.976 53.6648 60.904L52.8198 55.9172C52.6989 55.2039 53.1722 54.5263 53.877 54.4039C54.5804 54.2815 55.2512 54.7607 55.3721 55.4741L56.2171 60.4618C56.3966 61.5252 55.973 62.5791 55.112 63.2128C54.6338 63.5644 54.0689 63.7502 53.4778 63.7502C53.0292 63.7502 52.582 63.6385 52.185 63.4274L41 57.4744L29.8144 63.4267C29.4042 63.6451 28.9602 63.7531 28.5185 63.7531Z" fill="#231F20"/>
<path d="M7.44438 42.8105H1.2947C0.579445 42.8105 0 42.2238 0 41.5C0 40.7762 0.579445 40.1895 1.2947 40.1895H7.44438C8.15948 40.1895 8.73909 40.7763 8.73909 41.5C8.73909 42.2238 8.15964 42.8105 7.44438 42.8105Z" fill="#231F20"/>
<path d="M80.7053 42.8105H74.5556C73.8404 42.8105 73.2609 42.2236 73.2609 41.5C73.2609 40.7762 73.8404 40.1895 74.5556 40.1895H80.7053C81.4206 40.1895 82 40.7763 82 41.5C82 42.2238 81.4206 42.8105 80.7053 42.8105Z" fill="#231F20"/>
<path d="M12.9243 71.2288C12.5928 71.2288 12.2616 71.1009 12.0087 70.8449C11.5031 70.3331 11.5031 69.5033 12.0088 68.9916L16.3572 64.5904C16.8627 64.0786 17.6825 64.0786 18.1881 64.5904C18.6938 65.1022 18.6938 65.932 18.188 66.4436L13.8396 70.845C13.587 71.1008 13.2555 71.2288 12.9243 71.2288Z" fill="#231F20"/>
<path d="M64.727 18.7937C64.3955 18.7937 64.0643 18.6658 63.8114 18.4098C63.3058 17.898 63.3058 17.0682 63.8115 16.5564L68.1601 12.1551C68.6657 11.6432 69.4855 11.6433 69.991 12.1551C70.4966 12.6669 70.4966 13.4967 69.9908 14.0084L65.6423 18.4096C65.3897 18.6658 65.0583 18.7937 64.727 18.7937Z" fill="#231F20"/>
<path d="M41 82.9998C40.2847 82.9998 39.7053 82.413 39.7053 81.6894V75.4648C39.7053 74.741 40.2847 74.1543 41 74.1543C41.7152 74.1543 42.2947 74.7412 42.2947 75.4648V81.6894C42.2947 82.413 41.7152 82.9998 41 82.9998Z" fill="#231F20"/>
<path d="M41 8.84579C40.2847 8.84579 39.7053 8.25895 39.7053 7.5353V1.31062C39.7053 0.586803 40.2847 0.0001297 41 0.0001297C41.7152 0.0001297 42.2947 0.586966 42.2947 1.31062V7.5353C42.2947 8.25912 41.7152 8.84579 41 8.84579Z" fill="#231F20"/>
<path d="M69.0755 71.2288C68.7443 71.2288 68.4128 71.1009 68.1601 70.8449L63.8115 66.4435C63.3058 65.9317 63.3058 65.1018 63.8114 64.5902C64.3171 64.0784 65.137 64.0784 65.6423 64.5902L69.9908 68.9915C70.4966 69.5033 70.4966 70.3331 69.991 70.8447C69.7383 71.1009 69.4069 71.2288 69.0755 71.2288Z" fill="#231F20"/>
<path d="M17.2728 18.794C16.9413 18.794 16.6101 18.6661 16.3572 18.4101L12.0088 14.0087C11.5032 13.4969 11.5032 12.6671 12.0088 12.1554C12.5148 11.6437 13.3344 11.6437 13.8399 12.1554L18.1883 16.557C18.6939 17.0688 18.6939 17.8987 18.1883 18.4104C17.9356 18.6661 17.6041 18.794 17.2728 18.794Z" fill="#231F20"/>
</g>
<defs>
<clipPath id="clip0_3_2">
<rect width="82" height="83" fill="white"/>
</clipPath>
</defs>
</svg>
