<svg width="50" height="50" viewBox="0 0 50 50" fill="none" xmlns="http://www.w3.org/2000/svg">
<circle cx="25" cy="25" r="24.5" stroke="white" stroke-opacity="0.55"/>
<path fill-rule="evenodd" clip-rule="evenodd" d="M40.5565 12.3029C41.0731 9.7845 38.5995 7.69168 36.2015 8.61821L6.80654 19.9754C4.12857 21.01 4.00925 24.7548 6.6159 25.9578L13.0173 28.9123L16.0625 39.5706C16.2207 40.1242 16.66 40.5529 17.2174 40.6973C17.7747 40.8416 18.3669 40.6804 18.774 40.2732L23.4649 35.5823L30.0359 40.5106C31.9433 41.9411 34.6906 40.8992 35.1696 38.5635L40.5565 12.3029ZM7.97784 23.0069L37.3728 11.6498L31.9859 37.9106L24.2875 32.1367C23.6406 31.6514 22.7353 31.7158 22.1634 32.2876L20.1543 34.2968L20.758 30.9767L32.5865 19.1483C33.1623 18.5726 33.223 17.6598 32.7289 17.0128C32.2347 16.3659 31.3382 16.1844 30.6313 16.5883L14.2957 25.9228L7.97784 23.0069ZM16.2875 28.5279L17.2729 31.9768L17.6512 29.896C17.7103 29.5708 17.8672 29.2713 18.101 29.0376L21.7083 25.4305L16.2875 28.5279Z" fill="white" fill-opacity="0.55"/>
</svg>
