<svg width="296" height="84" viewBox="0 0 296 84" fill="none" xmlns="http://www.w3.org/2000/svg">
<path fill-rule="evenodd" clip-rule="evenodd" d="M89.3363 44.8426C88.7839 45.8483 88.0776 46.8113 87.2344 47.7216C87.2469 47.7408 87.2594 47.7601 87.2719 47.7793C84.1166 52.8455 82.3168 58.4895 81.8723 64.7112C81.5168 70.3107 82.5612 74.8659 85.0054 78.3767C87.4497 81.8875 91.0493 83.5985 95.8045 83.5096C100.249 83.4207 103.982 82.2208 107.004 79.9099C108.265 78.941 109.447 77.7428 110.551 76.3151C110.142 78.0731 109.75 79.8269 109.373 81.5764C109.195 82.2875 109.55 82.7541 110.439 82.9763C111.328 83.1985 112.283 83.1985 113.306 82.9763C114.372 82.7541 114.95 82.443 115.039 82.0431C116.061 77.1102 117.194 72.3994 118.439 67.9109C119.905 65.5111 121.572 63.4224 123.438 61.6448C125.349 59.8672 126.993 58.9784 128.371 58.9784C129.215 58.9784 129.793 59.2672 130.104 59.845C130.46 60.3782 130.593 60.9782 130.504 61.6448C130.46 62.267 130.304 63.0225 130.038 63.9113C129.86 64.7556 129.304 66.8221 128.371 70.1107C127.482 73.3994 126.971 75.5325 126.838 76.5102C126.527 78.8211 126.727 80.5988 127.438 81.8431C128.149 83.043 129.638 83.6207 131.904 83.5763C135.061 83.4571 138.098 81.2024 141.016 76.8121C140.695 78.861 140.836 80.4491 141.437 81.5764C142.104 82.9097 143.548 83.5541 145.77 83.5096C147.281 83.5096 148.77 83.0652 150.236 82.1764C151.747 81.2431 153.103 79.9988 154.303 78.4434C155.397 77.0249 156.362 75.6063 157.197 74.1878C157.211 74.7692 157.24 75.3433 157.286 75.9103C157.464 78.1323 158.086 79.9099 159.152 81.2431C160.263 82.5319 161.819 83.2874 163.819 83.5096C165.863 83.7763 167.729 83.5763 169.418 82.9097C171.107 82.2431 172.618 81.132 173.951 79.5766C175.073 78.2737 176.033 76.9708 176.831 75.6679C176.881 77.3615 177.245 78.8866 177.924 80.2432C179.035 82.5097 180.99 83.6207 183.79 83.5763C186.056 83.5318 188.078 82.6875 189.856 81.0432C191.678 79.3544 193.145 77.3101 194.256 74.9103C193.9 77.3546 194.167 79.3322 195.055 80.8432C195.944 82.3542 197.255 83.0874 198.988 83.043C201.655 82.9985 204.121 81.5987 206.388 78.8433C208.699 76.088 210.699 72.7105 212.387 68.7109C212.392 68.6955 212.397 68.6801 212.401 68.6648C214.042 64.886 215.404 60.9017 216.488 56.7119C216.577 56.8452 216.91 57.2452 217.488 57.9118C218.11 58.5339 218.532 59.0006 218.755 59.3117C218.977 59.6227 219.243 60.0672 219.554 60.6449C219.91 61.1782 220.066 61.6892 220.021 62.1781C219.977 62.6669 219.799 63.1336 219.488 63.578C215.755 68.9109 213.91 73.1327 213.955 76.2436C213.955 78.3323 214.555 80.0655 215.755 81.4431C216.955 82.7763 218.688 83.4652 220.954 83.5096C226.014 83.6511 230.411 80.5678 234.146 74.2595C234.366 75.7903 234.861 77.2293 235.631 78.5767C237.453 81.6431 240.608 83.3096 245.097 83.5763C251.306 83.8837 256.356 81.6186 260.248 76.7811C259.761 78.6253 259.354 80.2015 259.027 81.5098C258.982 81.9986 259.227 82.3764 259.76 82.643C260.293 82.9097 260.915 83.043 261.626 83.043C262.293 83.0874 262.915 83.043 263.493 82.9097C264.115 82.7319 264.493 82.4875 264.626 82.1764C265.959 76.3102 267.181 71.4884 268.293 67.711C269.803 65.4 271.559 63.378 273.559 61.6448C275.559 59.8672 277.247 58.9784 278.625 58.9784C280.491 58.9784 281.003 60.6227 280.158 63.9113C278.203 71.955 277.181 76.4435 277.092 77.3768C276.514 81.5098 278.181 83.5763 282.091 83.5763C283.513 83.5763 284.913 83.1096 286.291 82.1764C287.669 81.2431 288.913 79.9988 290.024 78.4434C291.179 76.8435 292.179 75.2881 293.024 73.7771C293.913 72.2217 294.735 70.5552 295.49 68.7775C295.624 68.4664 295.535 68.1554 295.224 67.8443C294.912 67.5332 294.579 67.3554 294.224 67.311C293.868 67.2665 293.624 67.3332 293.49 67.511C292.113 70.8885 290.468 73.7771 288.557 76.1769C286.691 78.5767 285.047 79.7766 283.625 79.7766C283.18 79.7766 282.847 79.6211 282.625 79.31C282.447 78.9989 282.358 78.5323 282.358 77.9101C282.402 77.2879 282.469 76.7546 282.558 76.3102C282.647 75.8658 282.78 75.2214 282.958 74.3771C283.225 73.266 283.713 71.5773 284.424 69.3108C285.136 66.9999 285.602 65.3112 285.824 64.2446C286.535 61.3559 286.491 59.045 285.691 57.3118C284.936 55.5342 283.358 54.6232 280.958 54.5787C278.914 54.5343 276.847 55.3787 274.759 57.1118C272.67 58.8006 270.848 60.7115 269.292 62.8447L270.959 56.5786C270.915 55.6453 270.115 55.0898 268.559 54.912C267.048 54.6898 266.115 54.9787 265.759 55.7786C264.954 59.0003 263.93 62.9702 262.686 67.6882C261.364 70.7629 259.678 73.2814 257.629 75.2436C255.54 77.2435 253.518 78.5545 251.563 79.1767C249.607 79.7544 247.741 79.9099 245.963 79.6433C243.697 79.3322 242.008 78.3767 240.897 76.7769C239.83 75.177 239.475 73.1994 239.83 70.844C243.786 71.9106 247.252 71.955 250.229 70.9773C253.207 69.9996 255.362 68.1776 256.696 65.5111C257.407 63.8668 257.718 62.267 257.629 60.7115C257.584 59.1561 256.918 57.8007 255.629 56.6452C254.385 55.4453 252.674 54.8009 250.496 54.7121C247.074 54.4898 243.874 55.5786 240.897 57.9784C237.919 60.3782 235.853 63.6446 234.697 67.7776C234.691 67.8005 234.685 67.8235 234.678 67.8463C233.021 71.7238 231.09 74.6562 228.887 76.6435C226.665 78.6878 224.598 79.6655 222.688 79.5766C220.643 79.5766 219.621 78.3545 219.621 75.9103C219.621 72.9772 221.421 69.2886 225.021 64.8445C225.465 64.2668 225.687 63.6446 225.687 62.978C225.732 62.3114 225.598 61.6892 225.287 61.1115C225.021 60.4893 224.576 59.8005 223.954 59.045C223.332 58.2895 222.732 57.6229 222.154 57.0452C221.621 56.4675 220.954 55.7786 220.154 54.9787C219.354 54.1788 218.732 53.5344 218.288 53.0455C218.377 52.6011 218.466 52.1789 218.555 51.779C218.777 49.5125 218.155 48.1571 216.688 47.7126C215.533 47.4016 214.555 47.7571 213.755 48.7792C212.511 50.3791 212.777 52.4234 214.555 54.912C213.133 60.3338 211.333 65.4223 209.155 70.1774C209.11 70.2527 209.09 70.3306 209.096 70.4111C208.138 72.3504 207.057 74.1168 205.855 75.7103C204.077 78.0656 202.477 79.2433 201.055 79.2433C198.611 79.2878 198.677 74.5104 201.255 64.9112C203.833 55.312 206.632 46.6238 209.654 38.8467C209.788 38.3134 209.454 37.869 208.654 37.5135C207.899 37.158 207.121 37.0024 206.321 37.0469C205.521 37.0469 204.966 37.2024 204.655 37.5135C202.433 42.8464 200.322 48.9125 198.322 55.712C197.344 55.312 196.1 55.1565 194.589 55.2453C193.078 55.3342 191.567 55.6009 190.056 56.0453C188.545 56.4452 186.989 57.2229 185.39 58.3784C183.79 59.4894 182.39 60.8893 181.19 62.5781C180.088 64.1358 179.192 65.7516 178.503 67.4257C178.471 67.4495 178.442 67.4779 178.417 67.511C177.795 68.8886 177.084 70.2441 176.284 71.5773C175.529 72.8661 174.618 74.1993 173.551 75.577C172.484 76.9546 171.262 78.0434 169.885 78.8433C168.507 79.5988 167.129 79.8877 165.752 79.7099C162.152 79.3544 161.241 75.0214 163.019 66.711C170.574 62.7114 175.773 56.9119 178.617 49.3125C179.728 45.8906 179.973 43.1353 179.351 41.0465C178.773 38.9134 177.551 37.5802 175.684 37.0469C173.818 36.5136 171.885 36.9802 169.885 38.4468C167.752 40.0022 165.752 42.7797 163.885 46.7794C162.019 50.779 160.441 55.3342 159.152 60.4449C158.426 63.3108 157.901 65.9018 157.577 68.2177C156.407 71.0347 154.871 73.6211 152.969 75.9769C150.925 78.4656 149.103 79.7322 147.503 79.7766C146.703 79.821 146.259 79.3989 146.17 78.51C146.081 77.5768 146.237 76.4213 146.637 75.0437C147.214 72.5994 148.903 66.4 151.703 56.4452C151.658 55.7342 150.881 55.2676 149.37 55.0454C147.859 54.7787 146.926 55.0231 146.57 55.7786C145.294 60.3458 144.229 64.2176 143.372 67.3943C143.318 67.4231 143.273 67.462 143.236 67.511C141.948 70.7996 140.326 73.666 138.37 76.1102C136.459 78.51 134.793 79.7322 133.371 79.7766C132.393 79.821 132.037 78.91 132.304 77.0435C132.437 76.2436 133.571 71.9328 135.704 64.1113C136.504 61.2671 136.481 58.9561 135.637 57.1785C134.793 55.4009 133.126 54.5343 130.637 54.5787C127.127 54.6232 123.416 57.3563 119.505 62.778C123.283 49.8902 125.86 41.9131 127.238 38.8467C127.416 38.3579 127.127 37.9135 126.371 37.5135C125.616 37.1135 124.816 36.9358 123.971 36.9802C123.171 36.9802 122.594 37.1358 122.238 37.4468C120.194 42.3353 117.972 48.9125 115.572 57.1785C114.552 60.6722 113.593 64.1498 112.693 67.6114C110.878 71.8251 108.604 74.8358 105.87 76.6435C103.159 78.4656 100.337 79.3989 97.4044 79.4433C94.2046 79.5322 91.7382 78.3101 90.005 75.7769C88.2718 73.2438 87.4497 69.4886 87.5385 64.5112C87.6274 60.4227 88.6273 56.2675 90.5383 52.0456C93.1158 54.001 95.96 55.1565 99.0709 55.512C102.182 55.8231 104.982 55.3564 107.47 54.1121C110.003 52.8233 111.759 50.9568 112.736 48.5126C114.07 45.3573 114.047 42.602 112.67 40.2466C111.292 37.8913 109.026 36.6247 105.87 36.4469C99.6931 36.0914 94.1824 38.8912 89.3384 44.8462C89.3377 44.845 89.337 44.8438 89.3363 44.8426ZM92.4715 48.5792C96.0267 43.0241 100.182 40.3799 104.937 40.6466C106.581 40.7355 107.648 41.4909 108.137 42.913C108.67 44.2907 108.448 45.8017 107.47 47.446C106.448 49.6236 104.337 50.8902 101.137 51.2457C97.9821 51.6012 95.0935 50.7124 92.4715 48.5792ZM148.636 49.7125C149.214 50.2902 149.947 50.5791 150.836 50.5791C151.814 50.5791 152.636 50.2902 153.303 49.7125C153.969 49.1347 154.347 48.357 154.436 47.3793C154.48 46.4461 154.236 45.6906 153.703 45.1129C153.169 44.5351 152.436 44.224 151.503 44.1796C150.57 44.1796 149.77 44.4685 149.103 45.0462C148.437 45.6239 148.059 46.4016 147.97 47.3793C147.881 48.3126 148.103 49.0903 148.636 49.7125ZM168.018 50.0458C170.374 43.9574 172.373 40.9799 174.018 41.1132C174.995 41.2465 175.329 42.2687 175.018 44.1796C174.751 46.0461 173.973 48.4459 172.684 51.379C170.685 55.8231 167.752 59.5561 163.885 62.5781C164.818 59.0228 166.196 54.8454 168.018 50.0458ZM190.789 60.1116C193.056 59.0006 195.211 58.7562 197.255 59.3783C196.233 63.4669 195.211 66.7999 194.189 69.3775C192.678 73.1994 190.878 76.0658 188.789 77.9767C186.701 79.8433 185.012 80.1766 183.723 78.9767C182.612 77.8657 182.212 75.9547 182.523 73.2438C182.879 70.5329 183.723 68.0443 185.056 65.7778C186.612 63.0669 188.523 61.1782 190.789 60.1116ZM244.163 61.3115C246.03 59.4005 247.852 58.4673 249.63 58.5117C251.229 58.5117 252.163 59.1783 252.429 60.5116C252.74 61.8003 252.474 63.1113 251.629 64.4446C249.852 67.9109 246.096 69.0886 240.364 67.9776C241.075 65.4 242.341 63.178 244.163 61.3115Z" fill="#2B2B2B"/>
<mask id="path-2-outside-1_3_22" maskUnits="userSpaceOnUse" x="0" y="0.837906" width="125" height="59" fill="black">
<rect fill="white" y="0.837906" width="125" height="59"/>
<path fill-rule="evenodd" clip-rule="evenodd" d="M15.7988 24.5861C14.5989 23.3862 13.999 21.9863 13.999 20.3864C13.999 18.4866 14.5489 16.9867 15.6488 15.8868C16.7987 14.7869 18.2986 14.2369 20.1485 14.2369C21.0484 14.2369 21.8233 14.4369 22.4733 14.8369C23.1732 15.2369 23.8482 15.7368 24.4981 16.3368C25.148 16.9367 25.573 17.2367 25.773 17.2367C26.223 17.2367 26.8229 16.6367 27.5728 15.4368C28.3228 14.1869 28.9977 12.7871 29.5977 11.2372C30.1976 9.68733 30.4976 8.41244 30.4976 7.41252C30.4976 6.91256 29.9476 6.28761 28.8477 5.53768C27.7478 4.78774 26.3979 4.1628 24.7981 3.66284C23.2482 3.11288 21.8233 2.83791 20.5234 2.83791C17.0237 2.83791 14.024 3.58784 11.5242 5.08772C9.02441 6.58759 7.12457 8.63742 5.82468 11.2372C4.52479 13.787 3.87484 16.6367 3.87484 19.7865C3.87484 22.6362 4.44979 25.111 5.5997 27.2108C6.79959 29.3107 8.19948 31.0355 9.79934 32.3854C11.3992 33.6853 13.399 35.0852 15.7988 36.5851C17.8487 37.8849 19.3485 38.9599 20.2985 39.8098C21.2484 40.6597 21.7233 41.6096 21.7233 42.6595C21.7233 44.9093 19.9735 46.0343 16.4738 46.0343C14.7239 46.0343 12.9741 45.6093 11.2242 44.7594C9.52436 43.9094 8.09948 42.7595 6.94958 41.3097C6.79959 41.1097 6.59961 41.0097 6.34963 41.0097C5.79968 41.0097 5.17473 41.6346 4.47479 42.8845C3.82485 44.0844 3.24989 45.4843 2.74994 47.0842C2.24998 48.684 2 49.9339 2 50.8338C2 51.6838 2.59995 52.6337 3.79985 53.6836C5.04974 54.6835 6.7496 55.5584 8.89942 56.3084C11.0992 57.0583 13.549 57.4333 16.2488 57.4333C21.0484 57.4333 24.9231 56.2084 27.8728 53.7586C30.8226 51.3088 32.2974 47.8091 32.2974 43.2595C32.2974 40.9097 31.7725 38.8599 30.7226 37.11C29.7227 35.3602 28.4978 33.9103 27.0479 32.7604C25.648 31.6105 23.7982 30.2856 21.4984 28.7857C18.8986 27.1359 16.9987 25.736 15.7988 24.5861ZM59.809 48.734C59.709 47.8341 59.609 47.2092 59.509 46.8592C59.109 45.5093 58.8341 44.4344 58.6841 43.6345C58.6341 43.1345 58.4841 42.8845 58.2341 42.8845C58.0841 42.8845 57.8091 43.0595 57.4092 43.4095C57.0592 43.7094 56.7592 43.9844 56.5093 44.2344C55.9593 44.6844 55.2594 45.1093 54.4094 45.5093C53.5595 45.8593 52.6596 46.0343 51.7097 46.0343C50.4598 46.0343 49.4599 45.6593 48.7099 44.9093C48.01 44.1094 47.61 43.0845 47.51 41.8346C47.36 40.1847 47.285 38.7599 47.285 37.56L47.435 28.4107H50.2848L53.8845 28.4857C55.2844 28.4857 56.2843 28.4107 56.8842 28.2608C57.5342 28.0608 57.8591 27.7108 57.8591 27.2108C57.8591 26.0109 57.8841 24.861 57.9341 23.7611L58.1591 21.8863C58.2591 21.1864 58.3091 20.6614 58.3091 20.3114C58.3091 19.5615 58.1591 19.0615 57.8591 18.8116C57.6092 18.5616 57.2342 18.4366 56.7342 18.4366L54.7844 18.5116L52.1596 18.6616C50.3598 18.6616 49.1349 18.6366 48.4849 18.5866H47.585L47.66 15.9618C47.66 15.7618 47.61 15.4368 47.51 14.9869C47.46 14.4869 47.435 13.562 47.435 12.2121L47.51 9.43735C47.51 8.63742 47.0101 8.16246 46.0101 8.01247C45.0602 7.86248 43.6103 7.78749 41.6605 7.78749C40.6106 7.78749 39.6857 7.91248 38.8857 8.16245C38.1358 8.41244 37.7358 8.8374 37.6858 9.43735C37.6359 9.78732 37.6109 10.1373 37.6109 10.4873C37.6609 10.7872 37.6858 11.0872 37.6858 11.3872V13.787C37.6858 15.2369 37.6609 16.3118 37.6109 17.0117V18.5866H35.811C35.1611 18.6366 34.7361 18.7116 34.5361 18.8116C34.3361 18.9115 34.2361 19.2115 34.2361 19.7115V23.9861V26.5359C34.2361 27.8358 34.5861 28.4857 35.286 28.4857H37.6858V30.8105C37.6858 31.4105 37.6609 32.1354 37.6109 32.9854C37.6109 33.7853 37.6359 34.6102 37.6858 35.4601C37.7358 36.3601 37.7608 37.66 37.7608 39.3598C37.7608 40.6097 37.8858 42.1096 38.1358 43.8594C38.4358 45.6093 38.7358 47.0092 39.0357 48.0591C39.5357 49.8589 40.3106 51.5088 41.3605 53.0087C42.3105 54.2586 43.6353 55.2335 45.3352 55.9334C46.7851 56.5334 48.085 56.8333 49.2349 56.8333C50.4848 56.8333 51.5597 56.7084 52.4596 56.4584C53.3595 56.2584 54.2844 55.9834 55.2344 55.6334C56.4343 55.1835 57.4342 54.6585 58.2341 54.0586C59.434 53.2086 60.034 52.1837 60.034 50.9838C60.034 50.3839 59.959 49.6339 59.809 48.734ZM67.5486 30.1356C65.4987 34.0353 64.4738 38.5349 64.4738 43.6345C64.4738 47.8341 65.2488 51.2338 66.7986 53.8336C68.3485 56.4334 70.5233 57.7333 73.3231 57.7333C74.8729 57.7333 76.4978 56.9333 78.1977 55.3335C79.9475 53.7336 81.4474 51.8838 82.6973 49.7839C83.9472 47.6341 84.6471 46.4092 84.7971 46.1092C84.8786 45.9733 84.938 46.1773 84.9752 46.7212C87.0338 43.027 90.0581 39.91 93.7213 37.686V32.6104L93.6463 24.3611C93.6463 22.1613 93.5464 20.6864 93.3464 19.9365C93.1464 19.1865 92.7714 18.7116 92.2215 18.5116C91.4215 18.2116 90.6966 18.0366 90.0467 17.9866C89.4467 17.8866 88.3718 17.8366 86.8219 17.8366C82.9723 17.8366 79.3226 18.9115 75.8729 21.0614C72.4231 23.1612 69.6484 26.1859 67.5486 30.1356ZM110.325 34.2122C109.237 34.0722 108.126 34 106.998 34C104.636 34 102.35 34.3167 100.184 34.9085C100.164 33.6516 100.154 32.4356 100.154 31.2605V23.1612C100.154 20.6114 100.304 19.2365 100.604 19.0365C101.054 18.7366 101.754 18.4866 102.704 18.2866C103.704 18.0866 104.578 18.0116 105.328 18.0616C106.878 18.1616 107.953 18.3866 108.553 18.7366C109.153 19.0365 109.453 19.5115 109.453 20.1614C109.453 21.6613 109.503 22.9112 109.603 23.9111C109.653 24.6111 110.003 24.961 110.653 24.961C111.453 22.3613 112.353 20.5364 113.353 19.4865C114.353 18.3866 115.603 17.8366 117.102 17.8366C117.802 17.8366 118.527 17.9366 119.277 18.1366C120.027 18.3366 120.602 18.6616 121.002 19.1115C121.452 19.6615 121.802 20.5614 122.052 21.8113C122.302 23.0112 122.427 24.3611 122.427 25.861C122.427 26.7609 122.327 27.6358 122.127 28.4857C122.027 29.1357 121.902 29.6106 121.752 29.9106C121.602 30.2106 121.302 30.2856 120.852 30.1356L119.052 29.5357C118.202 29.1857 117.277 29.0107 116.277 29.0107C113.255 29.0107 111.271 30.7445 110.325 34.2122ZM79.8475 29.5357C81.1474 28.5857 82.5223 28.1608 83.9722 28.2608C84.1721 28.2608 84.2721 29.5356 84.2721 32.0854C84.2721 34.9352 84.2221 36.6101 84.1222 37.11C83.7222 37.9099 83.1722 38.7849 82.4723 39.7348C81.8223 40.6347 81.4224 41.1847 81.2724 41.3846C80.2725 42.7345 79.2226 43.8844 78.1227 44.8344C77.0228 45.7843 76.0978 46.2592 75.3479 46.2592C75.0479 46.2592 74.8229 45.9093 74.673 45.2093C74.523 44.4594 74.448 43.5095 74.448 42.3596C74.448 41.1097 74.573 39.6848 74.8229 38.0849C75.1229 36.4351 75.7229 34.8352 76.6228 33.2853C77.5227 31.7355 78.5976 30.4856 79.8475 29.5357Z"/>
</mask>
<path fill-rule="evenodd" clip-rule="evenodd" d="M15.7988 24.5861C14.5989 23.3862 13.999 21.9863 13.999 20.3864C13.999 18.4866 14.5489 16.9867 15.6488 15.8868C16.7987 14.7869 18.2986 14.2369 20.1485 14.2369C21.0484 14.2369 21.8233 14.4369 22.4733 14.8369C23.1732 15.2369 23.8482 15.7368 24.4981 16.3368C25.148 16.9367 25.573 17.2367 25.773 17.2367C26.223 17.2367 26.8229 16.6367 27.5728 15.4368C28.3228 14.1869 28.9977 12.7871 29.5977 11.2372C30.1976 9.68733 30.4976 8.41244 30.4976 7.41252C30.4976 6.91256 29.9476 6.28761 28.8477 5.53768C27.7478 4.78774 26.3979 4.1628 24.7981 3.66284C23.2482 3.11288 21.8233 2.83791 20.5234 2.83791C17.0237 2.83791 14.024 3.58784 11.5242 5.08772C9.02441 6.58759 7.12457 8.63742 5.82468 11.2372C4.52479 13.787 3.87484 16.6367 3.87484 19.7865C3.87484 22.6362 4.44979 25.111 5.5997 27.2108C6.79959 29.3107 8.19948 31.0355 9.79934 32.3854C11.3992 33.6853 13.399 35.0852 15.7988 36.5851C17.8487 37.8849 19.3485 38.9599 20.2985 39.8098C21.2484 40.6597 21.7233 41.6096 21.7233 42.6595C21.7233 44.9093 19.9735 46.0343 16.4738 46.0343C14.7239 46.0343 12.9741 45.6093 11.2242 44.7594C9.52436 43.9094 8.09948 42.7595 6.94958 41.3097C6.79959 41.1097 6.59961 41.0097 6.34963 41.0097C5.79968 41.0097 5.17473 41.6346 4.47479 42.8845C3.82485 44.0844 3.24989 45.4843 2.74994 47.0842C2.24998 48.684 2 49.9339 2 50.8338C2 51.6838 2.59995 52.6337 3.79985 53.6836C5.04974 54.6835 6.7496 55.5584 8.89942 56.3084C11.0992 57.0583 13.549 57.4333 16.2488 57.4333C21.0484 57.4333 24.9231 56.2084 27.8728 53.7586C30.8226 51.3088 32.2974 47.8091 32.2974 43.2595C32.2974 40.9097 31.7725 38.8599 30.7226 37.11C29.7227 35.3602 28.4978 33.9103 27.0479 32.7604C25.648 31.6105 23.7982 30.2856 21.4984 28.7857C18.8986 27.1359 16.9987 25.736 15.7988 24.5861ZM59.809 48.734C59.709 47.8341 59.609 47.2092 59.509 46.8592C59.109 45.5093 58.8341 44.4344 58.6841 43.6345C58.6341 43.1345 58.4841 42.8845 58.2341 42.8845C58.0841 42.8845 57.8091 43.0595 57.4092 43.4095C57.0592 43.7094 56.7592 43.9844 56.5093 44.2344C55.9593 44.6844 55.2594 45.1093 54.4094 45.5093C53.5595 45.8593 52.6596 46.0343 51.7097 46.0343C50.4598 46.0343 49.4599 45.6593 48.7099 44.9093C48.01 44.1094 47.61 43.0845 47.51 41.8346C47.36 40.1847 47.285 38.7599 47.285 37.56L47.435 28.4107H50.2848L53.8845 28.4857C55.2844 28.4857 56.2843 28.4107 56.8842 28.2608C57.5342 28.0608 57.8591 27.7108 57.8591 27.2108C57.8591 26.0109 57.8841 24.861 57.9341 23.7611L58.1591 21.8863C58.2591 21.1864 58.3091 20.6614 58.3091 20.3114C58.3091 19.5615 58.1591 19.0615 57.8591 18.8116C57.6092 18.5616 57.2342 18.4366 56.7342 18.4366L54.7844 18.5116L52.1596 18.6616C50.3598 18.6616 49.1349 18.6366 48.4849 18.5866H47.585L47.66 15.9618C47.66 15.7618 47.61 15.4368 47.51 14.9869C47.46 14.4869 47.435 13.562 47.435 12.2121L47.51 9.43735C47.51 8.63742 47.0101 8.16246 46.0101 8.01247C45.0602 7.86248 43.6103 7.78749 41.6605 7.78749C40.6106 7.78749 39.6857 7.91248 38.8857 8.16245C38.1358 8.41244 37.7358 8.8374 37.6858 9.43735C37.6359 9.78732 37.6109 10.1373 37.6109 10.4873C37.6609 10.7872 37.6858 11.0872 37.6858 11.3872V13.787C37.6858 15.2369 37.6609 16.3118 37.6109 17.0117V18.5866H35.811C35.1611 18.6366 34.7361 18.7116 34.5361 18.8116C34.3361 18.9115 34.2361 19.2115 34.2361 19.7115V23.9861V26.5359C34.2361 27.8358 34.5861 28.4857 35.286 28.4857H37.6858V30.8105C37.6858 31.4105 37.6609 32.1354 37.6109 32.9854C37.6109 33.7853 37.6359 34.6102 37.6858 35.4601C37.7358 36.3601 37.7608 37.66 37.7608 39.3598C37.7608 40.6097 37.8858 42.1096 38.1358 43.8594C38.4358 45.6093 38.7358 47.0092 39.0357 48.0591C39.5357 49.8589 40.3106 51.5088 41.3605 53.0087C42.3105 54.2586 43.6353 55.2335 45.3352 55.9334C46.7851 56.5334 48.085 56.8333 49.2349 56.8333C50.4848 56.8333 51.5597 56.7084 52.4596 56.4584C53.3595 56.2584 54.2844 55.9834 55.2344 55.6334C56.4343 55.1835 57.4342 54.6585 58.2341 54.0586C59.434 53.2086 60.034 52.1837 60.034 50.9838C60.034 50.3839 59.959 49.6339 59.809 48.734ZM67.5486 30.1356C65.4987 34.0353 64.4738 38.5349 64.4738 43.6345C64.4738 47.8341 65.2488 51.2338 66.7986 53.8336C68.3485 56.4334 70.5233 57.7333 73.3231 57.7333C74.8729 57.7333 76.4978 56.9333 78.1977 55.3335C79.9475 53.7336 81.4474 51.8838 82.6973 49.7839C83.9472 47.6341 84.6471 46.4092 84.7971 46.1092C84.8786 45.9733 84.938 46.1773 84.9752 46.7212C87.0338 43.027 90.0581 39.91 93.7213 37.686V32.6104L93.6463 24.3611C93.6463 22.1613 93.5464 20.6864 93.3464 19.9365C93.1464 19.1865 92.7714 18.7116 92.2215 18.5116C91.4215 18.2116 90.6966 18.0366 90.0467 17.9866C89.4467 17.8866 88.3718 17.8366 86.8219 17.8366C82.9723 17.8366 79.3226 18.9115 75.8729 21.0614C72.4231 23.1612 69.6484 26.1859 67.5486 30.1356ZM110.325 34.2122C109.237 34.0722 108.126 34 106.998 34C104.636 34 102.35 34.3167 100.184 34.9085C100.164 33.6516 100.154 32.4356 100.154 31.2605V23.1612C100.154 20.6114 100.304 19.2365 100.604 19.0365C101.054 18.7366 101.754 18.4866 102.704 18.2866C103.704 18.0866 104.578 18.0116 105.328 18.0616C106.878 18.1616 107.953 18.3866 108.553 18.7366C109.153 19.0365 109.453 19.5115 109.453 20.1614C109.453 21.6613 109.503 22.9112 109.603 23.9111C109.653 24.6111 110.003 24.961 110.653 24.961C111.453 22.3613 112.353 20.5364 113.353 19.4865C114.353 18.3866 115.603 17.8366 117.102 17.8366C117.802 17.8366 118.527 17.9366 119.277 18.1366C120.027 18.3366 120.602 18.6616 121.002 19.1115C121.452 19.6615 121.802 20.5614 122.052 21.8113C122.302 23.0112 122.427 24.3611 122.427 25.861C122.427 26.7609 122.327 27.6358 122.127 28.4857C122.027 29.1357 121.902 29.6106 121.752 29.9106C121.602 30.2106 121.302 30.2856 120.852 30.1356L119.052 29.5357C118.202 29.1857 117.277 29.0107 116.277 29.0107C113.255 29.0107 111.271 30.7445 110.325 34.2122ZM79.8475 29.5357C81.1474 28.5857 82.5223 28.1608 83.9722 28.2608C84.1721 28.2608 84.2721 29.5356 84.2721 32.0854C84.2721 34.9352 84.2221 36.6101 84.1222 37.11C83.7222 37.9099 83.1722 38.7849 82.4723 39.7348C81.8223 40.6347 81.4224 41.1847 81.2724 41.3846C80.2725 42.7345 79.2226 43.8844 78.1227 44.8344C77.0228 45.7843 76.0978 46.2592 75.3479 46.2592C75.0479 46.2592 74.8229 45.9093 74.673 45.2093C74.523 44.4594 74.448 43.5095 74.448 42.3596C74.448 41.1097 74.573 39.6848 74.8229 38.0849C75.1229 36.4351 75.7229 34.8352 76.6228 33.2853C77.5227 31.7355 78.5976 30.4856 79.8475 29.5357Z" fill="#FFD960"/>
<path d="M15.7988 24.5861L14.3846 26.0003L14.3997 26.0153L14.415 26.03L15.7988 24.5861ZM15.6488 15.8868L14.2664 14.4415L14.2503 14.4569L14.2346 14.4726L15.6488 15.8868ZM22.4733 14.8369L21.4251 16.5402L21.4528 16.5573L21.481 16.5734L22.4733 14.8369ZM24.4981 16.3368L25.8547 14.8672L25.8547 14.8672L24.4981 16.3368ZM27.5728 15.4368L29.2688 16.4968L29.2785 16.4814L29.2878 16.4658L27.5728 15.4368ZM29.5977 11.2372L27.7325 10.5152L27.7325 10.5152L29.5977 11.2372ZM28.8477 5.53768L29.9744 3.88522L29.9744 3.88522L28.8477 5.53768ZM24.7981 3.66284L24.1293 5.54769L24.1652 5.56043L24.2015 5.57179L24.7981 3.66284ZM11.5242 5.08772L12.5532 6.8027L12.5532 6.8027L11.5242 5.08772ZM5.82468 11.2372L7.60649 12.1456L7.61004 12.1386L7.61353 12.1316L5.82468 11.2372ZM5.5997 27.2108L3.8455 28.1715L3.85421 28.1874L3.86321 28.2031L5.5997 27.2108ZM9.79934 32.3854L8.5096 33.914L8.52377 33.9259L8.53816 33.9376L9.79934 32.3854ZM15.7988 36.5851L16.8699 34.896L16.8588 34.8891L15.7988 36.5851ZM20.2985 39.8098L18.9649 41.3003H18.9649L20.2985 39.8098ZM11.2242 44.7594L10.3298 46.5482L10.3401 46.5534L10.3504 46.5584L11.2242 44.7594ZM6.94958 41.3097L5.34959 42.5097L5.3658 42.5313L5.38259 42.5524L6.94958 41.3097ZM4.47479 42.8845L2.72978 41.9073L2.72291 41.9196L2.71621 41.932L4.47479 42.8845ZM2.74994 47.0842L0.840977 46.4876L2.74994 47.0842ZM3.79985 53.6836L2.48284 55.1888L2.51602 55.2178L2.55046 55.2453L3.79985 53.6836ZM8.89942 56.3084L8.24067 58.1968L8.24736 58.1991L8.25407 58.2014L8.89942 56.3084ZM27.8728 53.7586L26.595 52.22H26.595L27.8728 53.7586ZM30.7226 37.11L28.9861 38.1023L28.9966 38.1208L29.0076 38.139L30.7226 37.11ZM27.0479 32.7604L25.7784 34.3058L25.7917 34.3167L25.8051 34.3274L27.0479 32.7604ZM21.4984 28.7857L22.5909 27.1105L22.5805 27.1037L22.57 27.0971L21.4984 28.7857ZM59.509 46.8592L61.432 46.3097L61.4294 46.3004L61.4266 46.291L59.509 46.8592ZM59.809 48.734L57.8212 48.9549L57.8272 49.0091L57.8362 49.0628L59.809 48.734ZM58.6841 43.6345L56.694 43.8335L56.7025 43.9188L56.7183 44.003L58.6841 43.6345ZM57.4092 43.4095L58.7108 44.928L58.7185 44.9213L58.7262 44.9146L57.4092 43.4095ZM56.5093 44.2344L57.7757 45.7823L57.8529 45.7191L57.9235 45.6486L56.5093 44.2344ZM54.4094 45.5093L55.1709 47.3587L55.2165 47.3399L55.261 47.3189L54.4094 45.5093ZM48.7099 44.9093L47.2048 46.2264L47.2486 46.2765L47.2957 46.3236L48.7099 44.9093ZM47.51 41.8346L49.5036 41.6751L49.5028 41.6643L49.5018 41.6535L47.51 41.8346ZM47.285 37.56L45.2853 37.5272L45.285 37.5436V37.56H47.285ZM47.435 28.4107V26.4107H45.4675L45.4353 28.378L47.435 28.4107ZM50.2848 28.4107L50.3264 26.4112L50.3056 26.4107H50.2848V28.4107ZM53.8845 28.4857L53.8428 30.4853L53.8636 30.4857H53.8845V28.4857ZM56.8842 28.2608L57.3693 30.201L57.4212 30.1881L57.4724 30.1723L56.8842 28.2608ZM57.9341 23.7611L55.9484 23.5228L55.9396 23.5964L55.9362 23.6703L57.9341 23.7611ZM58.1591 21.8863L56.1792 21.6034L56.176 21.6257L56.1734 21.648L58.1591 21.8863ZM57.8591 18.8116L56.4449 20.2258L56.5091 20.2899L56.5788 20.348L57.8591 18.8116ZM56.7342 18.4366V16.4366H56.6958L56.6574 16.4381L56.7342 18.4366ZM54.7844 18.5116L54.7075 16.5131L54.6889 16.5138L54.6703 16.5148L54.7844 18.5116ZM52.1596 18.6616V20.6616H52.2167L52.2737 20.6583L52.1596 18.6616ZM48.4849 18.5866L48.6383 16.5925L48.5617 16.5866H48.4849V18.5866ZM47.585 18.5866L45.5858 18.5295L45.5271 20.5866H47.585V18.5866ZM47.66 15.9618L49.6592 16.0189L49.66 15.9904V15.9618H47.66ZM47.51 14.9869L45.5199 15.1859L45.5318 15.3044L45.5576 15.4207L47.51 14.9869ZM47.435 12.2121L45.4357 12.1581L45.435 12.1851V12.2121H47.435ZM47.51 9.43735L49.5093 9.49138L49.51 9.46437V9.43735H47.51ZM46.0101 8.01247L45.6982 9.98799L45.7058 9.9892L45.7135 9.99034L46.0101 8.01247ZM38.8857 8.16245L38.2892 6.2535L38.2712 6.25912L38.2533 6.26509L38.8857 8.16245ZM37.6858 9.43735L39.6657 9.72019L39.6741 9.66201L39.6789 9.60344L37.6858 9.43735ZM37.6109 10.4873H35.6109V10.6528L35.6381 10.8161L37.6109 10.4873ZM37.6109 17.0117L35.6159 16.8692L35.6109 16.9404V17.0117H37.6109ZM37.6109 18.5866V20.5866H39.6109V18.5866H37.6109ZM35.811 18.5866V16.5866H35.7342L35.6576 16.5925L35.811 18.5866ZM34.5361 18.8116L35.4305 20.6004L35.4305 20.6004L34.5361 18.8116ZM37.6858 28.4857H39.6858V26.4857H37.6858V28.4857ZM37.6109 32.9854L35.6143 32.8679L35.6109 32.9266V32.9854H37.6109ZM37.6858 35.4601L39.6828 35.3492L39.6824 35.3427L37.6858 35.4601ZM38.1358 43.8594L36.1559 44.1423L36.1599 44.1699L36.1646 44.1974L38.1358 43.8594ZM39.0357 48.0591L40.9628 47.5238L40.9608 47.5167L40.9588 47.5096L39.0357 48.0591ZM41.3605 53.0087L39.7221 54.1556L39.7445 54.1877L39.7682 54.2188L41.3605 53.0087ZM45.3352 55.9334L46.0999 54.0854L46.0967 54.0841L45.3352 55.9334ZM52.4596 56.4584L52.0257 54.506L51.9747 54.5173L51.9243 54.5313L52.4596 56.4584ZM55.2344 55.6334L55.9258 57.5102L55.9366 57.5061L55.2344 55.6334ZM58.2341 54.0586L57.0781 52.4265L57.0559 52.4423L57.0341 52.4586L58.2341 54.0586ZM67.5486 30.1356L65.7826 29.1967L65.7782 29.205L67.5486 30.1356ZM66.7986 53.8336L68.5165 52.8095V52.8095L66.7986 53.8336ZM78.1977 55.3335L76.8481 53.8574L76.8374 53.8672L76.8269 53.8771L78.1977 55.3335ZM82.6973 49.7839L84.4159 50.8069L84.4211 50.7981L84.4263 50.7892L82.6973 49.7839ZM84.7971 46.1092L83.0821 45.0803L83.0426 45.1461L83.0082 45.2148L84.7971 46.1092ZM84.9752 46.7212L82.9799 46.8577L83.4401 53.5847L86.7223 47.6947L84.9752 46.7212ZM93.7213 37.686L94.7592 39.3957L95.7213 38.8116V37.686H93.7213ZM93.7213 32.6104H95.7213V32.6013L95.7213 32.5922L93.7213 32.6104ZM93.6463 24.3611H91.6463V24.3702L91.6464 24.3793L93.6463 24.3611ZM93.3464 19.9365L95.2788 19.4211V19.4211L93.3464 19.9365ZM92.2215 18.5116L91.5192 20.3842L91.5286 20.3877L91.538 20.3912L92.2215 18.5116ZM90.0467 17.9866L89.7179 19.9594L89.8051 19.974L89.8933 19.9807L90.0467 17.9866ZM75.8729 21.0614L76.9128 22.7698L76.9217 22.7643L76.9306 22.7587L75.8729 21.0614ZM110.325 34.2122L110.07 36.1958L111.796 36.4178L112.254 34.7387L110.325 34.2122ZM100.184 34.9085L98.1847 34.941L98.2266 37.5167L100.712 36.8378L100.184 34.9085ZM100.604 19.0365L99.4944 17.3724L99.4944 17.3724L100.604 19.0365ZM102.704 18.2866L102.311 16.3254L102.301 16.3274L102.292 16.3295L102.704 18.2866ZM105.328 18.0616L105.195 20.0572L105.2 20.0575L105.328 18.0616ZM108.553 18.7366L107.545 20.4641L107.601 20.4966L107.659 20.5254L108.553 18.7366ZM109.603 23.9111L111.598 23.7686L111.596 23.7403L111.593 23.7121L109.603 23.9111ZM110.653 24.961V26.961H112.13L112.564 25.5492L110.653 24.961ZM113.353 19.4865L114.801 20.8658L114.817 20.849L114.833 20.8318L113.353 19.4865ZM119.277 18.1366L119.793 16.2041L119.793 16.2041L119.277 18.1366ZM121.002 19.1115L122.55 17.8451L122.524 17.8134L122.497 17.7828L121.002 19.1115ZM122.052 21.8113L120.091 22.2035L120.092 22.2114L120.094 22.2192L122.052 21.8113ZM122.127 28.4857L120.18 28.0277L120.162 28.1041L120.15 28.1816L122.127 28.4857ZM121.752 29.9106L123.541 30.8051L123.541 30.805L121.752 29.9106ZM120.852 30.1356L120.22 32.033L120.852 30.1356ZM119.052 29.5357L118.291 31.385L118.354 31.4112L118.42 31.433L119.052 29.5357ZM83.9722 28.2608L83.8346 30.256L83.9033 30.2608H83.9722V28.2608ZM79.8475 29.5357L78.6675 27.9209L78.6523 27.932L78.6374 27.9433L79.8475 29.5357ZM84.1222 37.11L85.911 38.0044L86.0308 37.7649L86.0833 37.5022L84.1222 37.11ZM82.4723 39.7348L80.8622 38.5484L80.8565 38.5561L80.8509 38.5638L82.4723 39.7348ZM81.2724 41.3846L79.6724 40.1846L79.6653 40.1942L81.2724 41.3846ZM74.673 45.2093L72.7118 45.6016L72.7145 45.615L72.7173 45.6284L74.673 45.2093ZM74.8229 38.0849L72.8552 37.7272L72.8508 37.7516L72.8469 37.7762L74.8229 38.0849ZM11.999 20.3864C11.999 22.5514 12.8349 24.4506 14.3846 26.0003L17.213 23.1719C16.363 22.3218 15.999 21.4212 15.999 20.3864H11.999ZM14.2346 14.4726C12.6797 16.0276 11.999 18.0811 11.999 20.3864H15.999C15.999 18.892 16.4182 17.9459 17.0631 17.301L14.2346 14.4726ZM20.1485 12.2369C17.8734 12.2369 15.8487 12.928 14.2664 14.4415L17.0313 17.3321C17.7488 16.6458 18.7238 16.2369 20.1485 16.2369V12.2369ZM23.5215 13.1336C22.5036 12.5072 21.3514 12.2369 20.1485 12.2369V16.2369C20.7454 16.2369 21.143 16.3666 21.4251 16.5402L23.5215 13.1336ZM25.8547 14.8672C25.1044 14.1746 24.3086 13.5821 23.4655 13.1004L21.481 16.5734C22.0378 16.8916 22.5919 17.299 23.1415 17.8064L25.8547 14.8672ZM25.773 15.2367C25.9895 15.2367 26.1558 15.2758 26.2492 15.3032C26.3469 15.3317 26.4146 15.3622 26.4463 15.3774C26.5051 15.4056 26.5131 15.4169 26.4576 15.3778C26.4086 15.3431 26.3329 15.2854 26.2272 15.197C26.123 15.1097 25.9992 15.0006 25.8547 14.8672L23.1415 17.8064C23.4929 18.1307 23.8349 18.4226 24.1509 18.6456C24.3079 18.7565 24.5003 18.8803 24.7154 18.9835C24.8932 19.0689 25.2791 19.2367 25.773 19.2367V15.2367ZM25.8768 14.3768C25.5365 14.9214 25.2918 15.2269 25.1462 15.3725C25.0756 15.4431 25.0751 15.4284 25.1463 15.3877C25.2172 15.3472 25.4379 15.2367 25.773 15.2367V19.2367C26.8368 19.2367 27.5963 18.5793 27.9746 18.2009C28.429 17.7466 28.8592 17.1522 29.2688 16.4968L25.8768 14.3768ZM27.7325 10.5152C27.1682 11.9731 26.5416 13.2683 25.8579 14.4078L29.2878 16.4658C30.104 15.1056 30.8273 13.601 31.4628 11.9592L27.7325 10.5152ZM28.4976 7.41252C28.4976 8.05527 28.2944 9.06362 27.7325 10.5152L31.4628 11.9592C32.1008 10.311 32.4976 8.76961 32.4976 7.41252H28.4976ZM27.7211 7.19013C28.2046 7.51985 28.4649 7.75511 28.5837 7.8901C28.6396 7.95363 28.6281 7.9547 28.5977 7.89254C28.5656 7.82689 28.4976 7.65892 28.4976 7.41252H32.4976C32.4976 6.4422 31.9843 5.69962 31.5866 5.24758C31.1554 4.75763 30.5907 4.30544 29.9744 3.88522L27.7211 7.19013ZM24.2015 5.57179C25.6594 6.02739 26.8201 6.57583 27.7211 7.19014L29.9744 3.88522C28.6756 2.99966 27.1364 2.2982 25.3946 1.75388L24.2015 5.57179ZM20.5234 4.83791C21.5441 4.83791 22.7397 5.05464 24.1293 5.54769L25.4669 1.77798C23.7567 1.17112 22.1025 0.837906 20.5234 0.837906V4.83791ZM12.5532 6.8027C14.685 5.52361 17.3132 4.83791 20.5234 4.83791V0.837906C16.7342 0.837906 13.363 1.65208 10.4952 3.37273L12.5532 6.8027ZM7.61353 12.1316C8.74278 9.87312 10.3785 8.10749 12.5532 6.8027L10.4952 3.37273C7.67028 5.06769 5.50635 7.40171 4.03582 10.3428L7.61353 12.1316ZM5.87484 19.7865C5.87484 16.9202 6.46399 14.3866 7.60649 12.1456L4.04286 10.3288C2.58558 13.1873 1.87484 16.3532 1.87484 19.7865H5.87484ZM7.35389 26.2502C6.39337 24.4962 5.87484 22.3643 5.87484 19.7865H1.87484C1.87484 22.9081 2.50621 25.7258 3.8455 28.1715L7.35389 26.2502ZM11.0891 30.8568C9.6939 29.6796 8.43753 28.1459 7.33618 26.2186L3.86321 28.2031C5.16165 30.4754 6.70505 32.3914 8.5096 33.914L11.0891 30.8568ZM16.8588 34.8891C14.5052 33.418 12.5778 32.0659 11.0605 30.8332L8.53816 33.9376C10.2206 35.3047 12.2929 36.7523 14.7388 38.281L16.8588 34.8891ZM21.632 38.3193C20.557 37.3574 18.9454 36.2122 16.8699 34.896L14.7277 38.2741C16.7519 39.5577 18.1401 40.5623 18.9649 41.3003L21.632 38.3193ZM23.7233 42.6595C23.7233 40.9206 22.9075 39.4605 21.632 38.3193L18.9649 41.3003C19.5893 41.859 19.7233 42.2987 19.7233 42.6595H23.7233ZM16.4738 48.0343C18.3738 48.0343 20.1429 47.7405 21.4925 46.8729C22.9934 45.908 23.7233 44.3988 23.7233 42.6595H19.7233C19.7233 43.1701 19.5784 43.3482 19.3294 43.5082C18.9292 43.7655 18.0735 44.0343 16.4738 44.0343V48.0343ZM10.3504 46.5584C12.3418 47.5256 14.3888 48.0343 16.4738 48.0343V44.0343C15.0591 44.0343 13.6063 43.6929 12.098 42.9603L10.3504 46.5584ZM5.38259 42.5524C6.71907 44.2376 8.37581 45.5712 10.3298 46.5482L12.1186 42.9705C10.6729 42.2476 9.4799 41.2815 8.51658 40.0669L5.38259 42.5524ZM6.34963 43.0097C6.20118 43.0097 6.00174 42.9781 5.79268 42.8735C5.58362 42.769 5.43866 42.6284 5.34959 42.5097L8.54958 40.1096C8.02188 39.4061 7.22912 39.0097 6.34963 39.0097V43.0097ZM6.2198 43.8617C6.52826 43.3109 6.75496 43.0203 6.88267 42.8926C6.94183 42.8334 6.93692 42.8529 6.86233 42.8926C6.78022 42.9363 6.60167 43.0097 6.34963 43.0097V39.0097C5.2993 39.0097 4.52309 39.5953 4.05424 40.0642C3.55701 40.5614 3.12126 41.2082 2.72978 41.9073L6.2198 43.8617ZM4.6589 47.6807C5.12869 46.1774 5.65697 44.9012 6.23338 43.8371L2.71621 41.932C1.99272 43.2676 1.3711 44.7912 0.840977 46.4876L4.6589 47.6807ZM4 50.8338C4 50.2415 4.17676 49.2236 4.6589 47.6807L0.840977 46.4876C0.323202 48.1445 0 49.6264 0 50.8338H4ZM5.11686 52.1785C4.60651 51.7319 4.30489 51.3753 4.14094 51.1157C3.97931 50.8598 4 50.7772 4 50.8338H0C0 52.6006 1.19634 54.0631 2.48284 55.1888L5.11686 52.1785ZM9.55816 54.42C7.53943 53.7158 6.06463 52.9342 5.04924 52.1219L2.55046 55.2453C4.03485 56.4329 5.95976 57.4011 8.24067 58.1968L9.55816 54.42ZM16.2488 55.4333C13.7338 55.4333 11.5063 55.0841 9.54476 54.4154L8.25407 58.2014C10.6922 59.0326 13.3642 59.4333 16.2488 59.4333V55.4333ZM26.595 52.22C24.0874 54.3026 20.7024 55.4333 16.2488 55.4333V59.4333C21.3944 59.4333 25.7588 58.1141 29.1506 55.2972L26.595 52.22ZM30.2974 43.2595C30.2974 47.3373 29.0004 50.2223 26.595 52.22L29.1506 55.2972C32.6447 52.3953 34.2974 48.2809 34.2974 43.2595H30.2974ZM29.0076 38.139C29.8442 39.5334 30.2974 41.2163 30.2974 43.2595H34.2974C34.2974 40.6031 33.7007 38.1863 32.4376 36.081L29.0076 38.139ZM25.8051 34.3274C27.0382 35.3053 28.1013 36.5539 28.9861 38.1023L32.4591 36.1177C31.344 34.1664 29.9574 32.5152 28.2907 31.1934L25.8051 34.3274ZM20.4058 30.4609C22.6721 31.9389 24.4559 33.2195 25.7784 34.3058L28.3174 31.2149C26.8401 30.0014 24.9242 28.6322 22.5909 27.1105L20.4058 30.4609ZM14.415 26.03C15.7596 27.3186 17.7925 28.8026 20.4267 30.4744L22.57 27.0971C20.0047 25.4691 18.2379 24.1533 17.1826 23.1421L14.415 26.03ZM57.586 47.4086C57.6345 47.5786 57.7207 48.0505 57.8212 48.9549L61.7967 48.5132C61.6972 47.6177 61.5835 46.8397 61.432 46.3097L57.586 47.4086ZM56.7183 44.003C56.8868 44.9015 57.1838 46.0517 57.5914 47.4274L61.4266 46.291C61.0343 44.9669 60.7813 43.9673 60.6498 43.2659L56.7183 44.003ZM58.2341 44.8845C57.9453 44.8845 57.6301 44.8069 57.3428 44.6274C57.069 44.4562 56.9065 44.2466 56.8191 44.101C56.6699 43.8523 56.6801 43.6941 56.694 43.8335L60.6741 43.4355C60.6381 43.0749 60.5483 42.5417 60.2491 42.043C59.8837 41.434 59.1895 40.8845 58.2341 40.8845V44.8845ZM58.7262 44.9146C58.8038 44.8467 58.8659 44.7956 58.9136 44.7585C58.9371 44.7402 58.9555 44.7266 58.9689 44.717C58.9755 44.7123 58.9805 44.7088 58.9841 44.7065C58.9876 44.7041 58.9893 44.703 58.9891 44.7031C58.989 44.7031 58.9867 44.7046 58.9822 44.7073C58.9778 44.7099 58.9706 44.714 58.9609 44.7193C58.9425 44.7292 58.9081 44.7467 58.8597 44.7667C58.8123 44.7862 58.7381 44.8135 58.6413 44.8369C58.5457 44.8599 58.4062 44.8845 58.2341 44.8845V40.8845C57.5362 40.8845 57.003 41.2258 56.8416 41.3284C56.5823 41.4935 56.3273 41.6985 56.0922 41.9043L58.7262 44.9146ZM57.9235 45.6486C58.1283 45.4438 58.3887 45.204 58.7108 44.928L56.1076 41.891C55.7297 42.2149 55.3901 42.5251 55.095 42.8202L57.9235 45.6486ZM55.261 47.3189C56.2149 46.87 57.0656 46.3633 57.7757 45.7823L55.2428 42.6865C54.853 43.0054 54.3038 43.3486 53.5578 43.6997L55.261 47.3189ZM51.7097 48.0343C52.9119 48.0343 54.0713 47.8114 55.1709 47.3587L53.6479 43.6599C53.0477 43.9071 52.4073 44.0343 51.7097 44.0343V48.0343ZM47.2957 46.3236C48.4871 47.515 50.0313 48.0343 51.7097 48.0343V44.0343C50.8883 44.0343 50.4326 43.8036 50.1241 43.4951L47.2957 46.3236ZM45.5164 41.9941C45.6443 43.5928 46.1735 45.0478 47.2048 46.2264L50.2151 43.5923C49.8464 43.171 49.5757 42.5762 49.5036 41.6751L45.5164 41.9941ZM45.285 37.56C45.285 38.8381 45.3647 40.3264 45.5182 42.0157L49.5018 41.6535C49.3554 40.0431 49.285 38.6816 49.285 37.56H45.285ZM45.4353 28.378L45.2853 37.5272L49.2848 37.5928L49.4348 28.4435L45.4353 28.378ZM50.2848 26.4107H47.435V30.4107H50.2848V26.4107ZM53.9261 26.4862L50.3264 26.4112L50.2431 30.4103L53.8428 30.4853L53.9261 26.4862ZM56.3992 26.3205C56.0579 26.4058 55.2735 26.4857 53.8845 26.4857V30.4857C55.2952 30.4857 56.5106 30.4157 57.3693 30.201L56.3992 26.3205ZM55.8591 27.2108C55.8591 27.1158 55.8753 26.9867 55.9301 26.8434C55.9855 26.6985 56.0655 26.5782 56.1498 26.4874C56.3067 26.3185 56.4197 26.3112 56.2961 26.3492L57.4724 30.1723C57.9987 30.0104 58.5992 29.7281 59.081 29.2092C59.6043 28.6456 59.8591 27.9396 59.8591 27.2108H55.8591ZM55.9362 23.6703C55.8847 24.803 55.8591 25.9833 55.8591 27.2108H59.8591C59.8591 26.0386 59.8836 24.9191 59.9321 23.852L55.9362 23.6703ZM56.1734 21.648L55.9484 23.5228L59.9199 23.9994L60.1449 22.1246L56.1734 21.648ZM56.3091 20.3114C56.3091 20.5134 56.2764 20.9229 56.1792 21.6034L60.139 22.1691C60.2418 21.4498 60.3091 20.8094 60.3091 20.3114H56.3091ZM56.5788 20.348C56.3412 20.15 56.2816 19.9508 56.281 19.9487C56.2796 19.9441 56.2875 19.9695 56.2952 20.0341C56.3029 20.0981 56.3091 20.189 56.3091 20.3114H60.3091C60.3091 19.4654 60.1741 18.1372 59.1395 17.2751L56.5788 20.348ZM56.7342 20.4366C56.8235 20.4366 56.8202 20.4484 56.758 20.4277C56.686 20.4037 56.5643 20.3451 56.4449 20.2258L59.2734 17.3973C58.516 16.64 57.5425 16.4366 56.7342 16.4366V20.4366ZM54.8613 20.5101L56.8111 20.4351L56.6574 16.4381L54.7075 16.5131L54.8613 20.5101ZM52.2737 20.6583L54.8985 20.5083L54.6703 16.5148L52.0455 16.6648L52.2737 20.6583ZM48.3315 20.5807C49.0692 20.6374 50.3678 20.6616 52.1596 20.6616V16.6616C50.3517 16.6616 49.2006 16.6357 48.6383 16.5925L48.3315 20.5807ZM47.585 20.5866H48.4849V16.5866H47.585V20.5866ZM45.6608 15.9047L45.5858 18.5295L49.5842 18.6437L49.6592 16.0189L45.6608 15.9047ZM45.5576 15.4207C45.6016 15.6183 45.6295 15.7666 45.6458 15.8722C45.6638 15.9893 45.66 16.0074 45.66 15.9618H49.66C49.66 15.5226 49.5639 15.0097 49.4624 14.553L45.5576 15.4207ZM45.435 12.2121C45.435 13.5536 45.4587 14.5731 45.5199 15.1859L49.5001 14.7879C49.4614 14.4008 49.435 13.5704 49.435 12.2121H45.435ZM45.5107 9.38331L45.4357 12.1581L49.4343 12.2662L49.5093 9.49138L45.5107 9.38331ZM45.7135 9.99034C45.9876 10.0315 45.9144 10.0802 45.7575 9.93118C45.6719 9.84981 45.5995 9.74365 45.5543 9.62851C45.5116 9.51961 45.51 9.44588 45.51 9.43735H49.51C49.51 8.58481 49.2244 7.70743 48.5125 7.03118C47.8558 6.40724 47.0326 6.14347 46.3068 6.0346L45.7135 9.99034ZM41.6605 9.78749C43.5892 9.78749 44.9099 9.86352 45.6982 9.98799L46.3221 6.03694C45.2106 5.86144 43.6315 5.78749 41.6605 5.78749V9.78749ZM39.4823 10.0714C40.0475 9.89478 40.7641 9.78749 41.6605 9.78749V5.78749C40.4571 5.78749 39.3238 5.93017 38.2892 6.2535L39.4823 10.0714ZM39.6789 9.60344C39.6745 9.65687 39.6593 9.73527 39.6203 9.82418C39.5809 9.91382 39.5293 9.98667 39.4797 10.0394C39.3867 10.1382 39.3508 10.1156 39.5182 10.0598L38.2533 6.26509C37.6708 6.45927 37.0599 6.77418 36.5669 7.29794C36.0466 7.85082 35.754 8.53602 35.6928 9.27126L39.6789 9.60344ZM39.6109 10.4873C39.6109 10.2329 39.629 9.97743 39.6657 9.72019L35.7059 9.15451C35.6427 9.59721 35.6109 10.0417 35.6109 10.4873H39.6109ZM39.6858 11.3872C39.6858 10.9755 39.6515 10.5656 39.5836 10.1585L35.6381 10.8161C35.6702 11.0089 35.6858 11.1989 35.6858 11.3872H39.6858ZM39.6858 13.787V11.3872H35.6858V13.787H39.6858ZM39.6058 17.1542C39.6611 16.3796 39.6858 15.2456 39.6858 13.787H35.6858C35.6858 15.2282 35.6606 16.244 35.6159 16.8692L39.6058 17.1542ZM39.6109 18.5866V17.0117H35.6109V18.5866H39.6109ZM35.811 20.5866H37.6109V16.5866H35.811V20.5866ZM35.4305 20.6004C35.3755 20.628 35.3327 20.6447 35.3088 20.6535C35.2841 20.6625 35.2694 20.6667 35.2675 20.6672C35.2659 20.6676 35.2911 20.6607 35.3524 20.6499C35.4771 20.6279 35.6753 20.6029 35.9644 20.5807L35.6576 16.5925C35.2968 16.6202 34.9576 16.6578 34.6573 16.7108C34.3966 16.7568 34.0078 16.8396 33.6417 17.0227L35.4305 20.6004ZM36.2361 19.7115C36.2361 19.5667 36.2542 19.607 36.2085 19.744C36.161 19.8865 35.9723 20.3295 35.4305 20.6004L33.6417 17.0227C32.8999 17.3936 32.5613 18.0366 32.4138 18.4791C32.2681 18.916 32.2361 19.3563 32.2361 19.7115H36.2361ZM36.2361 23.9861V19.7115H32.2361V23.9861H36.2361ZM36.2361 26.5359V23.9861H32.2361V26.5359H36.2361ZM35.286 26.4857C35.432 26.4857 35.6537 26.5236 35.8794 26.6633C36.0995 26.7996 36.2135 26.9645 36.2596 27.0501C36.2999 27.125 36.2886 27.1377 36.2703 27.0356C36.2528 26.9381 36.2361 26.7768 36.2361 26.5359H32.2361C32.2361 27.3 32.3278 28.1853 32.7377 28.9465C32.9587 29.357 33.2915 29.7657 33.774 30.0644C34.2622 30.3666 34.7901 30.4857 35.286 30.4857V26.4857ZM37.6858 26.4857H35.286V30.4857H37.6858V26.4857ZM39.6858 30.8105V28.4857H35.6858V30.8105H39.6858ZM39.6074 33.1028C39.6588 32.2285 39.6858 31.4621 39.6858 30.8105H35.6858C35.6858 31.3589 35.6629 32.0424 35.6143 32.8679L39.6074 33.1028ZM39.6824 35.3427C39.6346 34.5294 39.6109 33.7437 39.6109 32.9854H35.6109C35.6109 33.8269 35.6371 34.691 35.6893 35.5776L39.6824 35.3427ZM39.7608 39.3598C39.7608 37.6492 39.7359 36.3053 39.6828 35.3492L35.6889 35.5711C35.7358 36.4149 35.7608 37.6707 35.7608 39.3598H39.7608ZM40.1157 43.5766C39.8741 41.8854 39.7608 40.4853 39.7608 39.3598H35.7608C35.7608 40.7341 35.8976 42.3338 36.1559 44.1423L40.1157 43.5766ZM40.9588 47.5096C40.6871 46.5586 40.4013 45.2382 40.1071 43.5215L36.1646 44.1974C36.4702 45.9804 36.7845 47.4598 37.1127 48.6085L40.9588 47.5096ZM42.999 51.8617C42.082 50.5517 41.4032 49.1094 40.9628 47.5238L37.1087 48.5944C37.6682 50.6085 38.5393 52.4659 39.7221 54.1556L42.999 51.8617ZM46.0967 54.0841C44.6689 53.4961 43.6532 52.7201 42.9529 51.7985L39.7682 54.2188C40.9677 55.7971 42.6018 56.9708 44.5737 57.7828L46.0967 54.0841ZM49.2349 54.8333C48.4242 54.8333 47.3902 54.6193 46.0999 54.0854L44.5705 57.7814C46.18 58.4474 47.7457 58.8333 49.2349 58.8333V54.8333ZM51.9243 54.5313C51.2461 54.7197 50.3607 54.8333 49.2349 54.8333V58.8333C50.6088 58.8333 51.8732 58.697 52.9949 58.3854L51.9243 54.5313ZM54.543 53.7568C53.669 54.0787 52.8302 54.3272 52.0257 54.506L52.8935 58.4107C53.8889 58.1895 54.8999 57.8881 55.9258 57.5101L54.543 53.7568ZM57.0341 52.4586C56.4221 52.9176 55.6013 53.3598 54.5321 53.7608L55.9366 57.5061C57.2672 57.0071 58.4463 56.3994 59.4341 55.6586L57.0341 52.4586ZM58.034 50.9838C58.034 51.3859 57.8833 51.8562 57.0781 52.4265L59.3901 55.6906C60.9847 54.5611 62.034 52.9815 62.034 50.9838H58.034ZM57.8362 49.0628C57.9764 49.9039 58.034 50.5351 58.034 50.9838H62.034C62.034 50.2327 61.9416 49.364 61.7818 48.4052L57.8362 49.0628ZM66.4738 43.6345C66.4738 38.8078 67.4421 34.6366 69.3189 31.0662L65.7782 29.205C63.5554 33.4339 62.4738 38.262 62.4738 43.6345H66.4738ZM68.5165 52.8095C67.2094 50.6169 66.4738 47.6071 66.4738 43.6345H62.4738C62.4738 48.0611 63.2881 51.8507 65.0807 54.8577L68.5165 52.8095ZM73.3231 55.7333C71.2944 55.7333 69.741 54.8635 68.5165 52.8095L65.0807 54.8577C66.9559 58.0033 69.7522 59.7333 73.3231 59.7333V55.7333ZM76.8269 53.8771C75.3145 55.3006 74.1575 55.7333 73.3231 55.7333V59.7333C75.5883 59.7333 77.6811 58.5661 79.5684 56.7899L76.8269 53.8771ZM80.9787 48.761C79.8259 50.6977 78.449 52.3937 76.8481 53.8574L79.5472 56.8095C81.446 55.0735 83.0689 53.0698 84.4159 50.8069L80.9787 48.761ZM83.0082 45.2148C82.8948 45.4418 82.2415 46.5887 80.9683 48.7787L84.4263 50.7892C85.6528 48.6795 86.3995 47.3767 86.586 47.0037L83.0082 45.2148ZM86.9706 46.5847C86.9527 46.3241 86.9206 45.9362 86.8231 45.6013C86.7953 45.5059 86.7398 45.3336 86.6352 45.142C86.5575 44.9995 86.2962 44.5466 85.724 44.2701C84.9575 43.8999 84.1938 44.0907 83.7132 44.4128C83.3415 44.6619 83.1485 44.9697 83.0821 45.0803L86.5121 47.1382C86.4661 47.2148 86.2928 47.4992 85.9401 47.7356C85.4784 48.045 84.7331 48.2337 83.9842 47.8719C83.4296 47.604 83.1852 47.1702 83.1237 47.0575C83.0354 46.8956 82.9954 46.7637 82.9825 46.7193C82.9444 46.5884 82.9605 46.5744 82.9799 46.8577L86.9706 46.5847ZM86.7223 47.6947C88.6087 44.3095 91.3858 41.4436 94.7592 39.3957L92.6834 35.9764C88.7303 38.3763 85.459 41.7444 83.2282 45.7476L86.7223 47.6947ZM91.7213 32.6104V37.686H95.7213V32.6104H91.7213ZM91.6464 24.3793L91.7214 32.6286L95.7213 32.5922L95.6463 24.3429L91.6464 24.3793ZM91.4139 20.4518C91.5361 20.9099 91.6463 22.1268 91.6463 24.3611H95.6463C95.6463 22.1958 95.5566 20.4629 95.2788 19.4211L91.4139 20.4518ZM91.538 20.3912C91.5027 20.3783 91.4618 20.3576 91.4222 20.3287C91.3829 20.3 91.3578 20.2728 91.3454 20.2571C91.3234 20.2292 91.3651 20.2689 91.4139 20.4518L95.2788 19.4211C94.971 18.2666 94.2609 17.1251 92.905 16.632L91.538 20.3912ZM89.8933 19.9807C90.3077 20.0126 90.8443 20.1311 91.5192 20.3842L92.9237 16.6389C91.9988 16.2921 91.0855 16.0606 90.2 15.9925L89.8933 19.9807ZM86.8219 19.8366C88.3793 19.8366 89.301 19.8899 89.7179 19.9594L90.3755 16.0138C89.5924 15.8833 88.3643 15.8366 86.8219 15.8366V19.8366ZM76.9306 22.7587C80.0815 20.7951 83.3675 19.8366 86.8219 19.8366V15.8366C82.577 15.8366 78.5636 17.0279 74.8151 19.364L76.9306 22.7587ZM69.3145 31.0745C71.2644 27.4068 73.802 24.6633 76.9128 22.7698L74.833 19.353C71.0443 21.6591 68.0323 24.9651 65.7826 29.1967L69.3145 31.0745ZM106.998 36C108.04 36 109.066 36.0667 110.07 36.1958L110.58 32.2285C109.407 32.0777 108.211 32 106.998 32V36ZM100.712 36.8378C102.707 36.2925 104.815 36 106.998 36V32C104.457 32 101.994 32.3408 99.6573 32.9792L100.712 36.8378ZM102.184 34.876C102.164 33.6292 102.154 32.4241 102.154 31.2605H98.1538C98.1538 32.4472 98.1641 33.674 98.1847 34.941L102.184 34.876ZM102.154 31.2605V23.1612H98.1538V31.2605H102.154ZM102.154 23.1612C102.154 21.9093 102.191 21.0135 102.255 20.4346C102.287 20.138 102.319 19.9955 102.33 19.9563C102.336 19.9367 102.32 20.0006 102.264 20.1055C102.219 20.1898 102.062 20.4679 101.713 20.7006L99.4944 17.3724C99.0703 17.6551 98.8428 18.02 98.7324 18.2278C98.611 18.4561 98.5345 18.6801 98.4839 18.8574C98.3826 19.2119 98.3207 19.6099 98.2781 20.0008C98.1913 20.7967 98.1538 21.8633 98.1538 23.1612H102.154ZM101.713 20.7006C101.845 20.6125 102.249 20.4262 103.116 20.2437L102.292 16.3295C101.259 16.547 100.262 16.8606 99.4944 17.3724L101.713 20.7006ZM103.096 20.2478C103.98 20.0709 104.671 20.0222 105.195 20.0572L105.461 16.066C104.486 16.001 103.427 16.1023 102.311 16.3254L103.096 20.2478ZM105.2 20.0575C106.732 20.1563 107.386 20.371 107.545 20.4641L109.561 17.009C108.521 16.4022 107.024 16.1669 105.457 16.0658L105.2 20.0575ZM107.659 20.5254C107.696 20.5441 107.617 20.5119 107.537 20.3857C107.5 20.3274 107.477 20.2697 107.464 20.2221C107.452 20.1764 107.453 20.153 107.453 20.1614H111.453C111.453 19.519 111.301 18.8545 110.919 18.2498C110.539 17.6487 110.01 17.229 109.448 16.9477L107.659 20.5254ZM107.453 20.1614C107.453 21.6989 107.504 23.0205 107.613 24.1101L111.593 23.7121C111.502 22.8019 111.453 21.6238 111.453 20.1614H107.453ZM107.608 24.0536C107.653 24.6852 107.855 25.4793 108.489 26.1128C109.145 26.7694 109.97 26.961 110.653 26.961V22.961C110.686 22.961 111.011 22.9777 111.317 23.2843C111.601 23.5679 111.603 23.837 111.598 23.7686L107.608 24.0536ZM112.564 25.5492C113.34 23.0296 114.129 21.5711 114.801 20.8658L111.904 18.1072C110.576 19.5017 109.566 21.6929 108.741 24.3729L112.564 25.5492ZM114.833 20.8318C115.45 20.1532 116.16 19.8366 117.102 19.8366V15.8366C115.045 15.8366 113.256 16.62 111.873 18.1412L114.833 20.8318ZM117.102 19.8366C117.611 19.8366 118.162 19.9091 118.762 20.0691L119.793 16.2041C118.893 15.9641 117.994 15.8366 117.102 15.8366V19.8366ZM118.762 20.0691C119.242 20.197 119.433 20.3571 119.507 20.4403L122.497 17.7828C121.771 16.9661 120.813 16.4762 119.793 16.2041L118.762 20.0691ZM119.454 20.378C119.591 20.5459 119.862 21.0572 120.091 22.2035L124.013 21.4191C123.742 20.0656 123.313 18.7771 122.55 17.8451L119.454 20.378ZM120.094 22.2192C120.311 23.2591 120.427 24.4689 120.427 25.861H124.427C124.427 24.2532 124.293 22.7633 124.01 21.4034L120.094 22.2192ZM120.427 25.861C120.427 26.6114 120.344 27.3324 120.18 28.0277L124.074 28.9438C124.31 27.9392 124.427 26.9104 124.427 25.861H120.427ZM120.15 28.1816C120.108 28.4591 120.064 28.6686 120.024 28.8204C119.982 28.9801 119.955 29.0317 119.963 29.0162L123.541 30.805C123.835 30.2165 123.996 29.4876 124.104 28.7899L120.15 28.1816ZM119.963 29.0162C120.031 28.88 120.147 28.7106 120.331 28.557C120.519 28.4003 120.729 28.3017 120.929 28.2516C121.296 28.1599 121.527 28.2524 121.485 28.2382L120.22 32.033C120.627 32.1688 121.233 32.2988 121.9 32.1321C122.668 31.94 123.23 31.4272 123.541 30.8051L119.963 29.0162ZM121.485 28.2382L119.685 27.6383L118.42 31.433L120.22 32.033L121.485 28.2382ZM119.814 27.6863C118.702 27.2284 117.515 27.0107 116.277 27.0107V31.0107C117.039 31.0107 117.703 31.1429 118.291 31.385L119.814 27.6863ZM116.277 27.0107C114.358 27.0107 112.616 27.5732 111.207 28.805C109.828 30.0095 108.936 31.7065 108.396 33.6857L112.254 34.7387C112.661 33.2502 113.233 32.3464 113.839 31.8171C114.413 31.3151 115.175 31.0107 116.277 31.0107V27.0107ZM84.1098 26.2655C82.1381 26.1295 80.3041 26.7248 78.6675 27.9209L81.0276 31.1504C81.9907 30.4466 82.9065 30.192 83.8346 30.256L84.1098 26.2655ZM86.2721 32.0854C86.2721 30.7988 86.2474 29.7789 86.191 29.0605C86.1641 28.7167 86.1238 28.3542 86.0502 28.0417C86.0175 27.9026 85.9478 27.6352 85.7956 27.358C85.7114 27.2045 85.1762 26.2608 83.9722 26.2608V30.2608C83.4078 30.2608 82.9767 30.0235 82.7132 29.7996C82.4732 29.5955 82.3448 29.3841 82.2893 29.283C82.2274 29.1703 82.1945 29.0801 82.1805 29.0388C82.1649 28.993 82.1579 28.9634 82.1566 28.9579C82.1545 28.9492 82.1613 28.9771 82.1718 29.0578C82.1818 29.1342 82.1927 29.238 82.2033 29.3733C82.2469 29.9299 82.2721 30.8223 82.2721 32.0854H86.2721ZM86.0833 37.5022C86.1725 37.0565 86.2099 36.3361 86.2338 35.5386C86.2596 34.6723 86.2721 33.5185 86.2721 32.0854H82.2721C82.2721 33.5021 82.2597 34.6107 82.2355 35.4192C82.2234 35.8241 82.2088 36.1411 82.1925 36.3771C82.1746 36.6369 82.1592 36.7269 82.161 36.7178L86.0833 37.5022ZM84.0824 40.9212C84.8301 39.9065 85.4467 38.933 85.911 38.0044L82.3333 36.2156C81.9976 36.8869 81.5144 37.6633 80.8622 38.5484L84.0824 40.9212ZM82.8724 42.5847C83.0358 42.3668 83.4484 41.7992 84.0937 40.9058L80.8509 38.5638C80.1963 39.4702 79.809 40.0026 79.6724 40.1846L82.8724 42.5847ZM79.4299 46.348C80.6571 45.2882 81.8051 44.0255 82.8795 42.5751L79.6653 40.1942C78.7398 41.4435 77.7881 42.4807 76.8154 43.3207L79.4299 46.348ZM75.3479 48.2592C76.86 48.2592 78.2611 47.3574 79.4299 46.348L76.8154 43.3207C76.342 43.7295 75.9682 43.9813 75.6904 44.1239C75.4074 44.2692 75.3065 44.2592 75.3479 44.2592V48.2592ZM72.7173 45.6284C72.8118 46.0693 72.9678 46.6054 73.2718 47.0783C73.5958 47.5822 74.2712 48.2592 75.3479 48.2592V44.2592C75.6887 44.2592 76.0013 44.3661 76.2464 44.5295C76.4703 44.6788 76.5891 44.8414 76.6365 44.9152C76.7155 45.0381 76.6841 45.0493 76.6286 44.7902L72.7173 45.6284ZM72.448 42.3596C72.448 43.5824 72.5266 44.6754 72.7118 45.6016L76.6341 44.8171C76.5194 44.2434 76.448 43.4365 76.448 42.3596H72.448ZM72.8469 37.7762C72.5854 39.4501 72.448 40.9813 72.448 42.3596H76.448C76.448 41.2381 76.5606 39.9195 76.799 38.3937L72.8469 37.7762ZM74.8932 32.2811C73.8851 34.0172 73.1993 35.8344 72.8552 37.7272L76.7907 38.4427C77.0465 37.0357 77.5606 35.6532 78.3524 34.2896L74.8932 32.2811ZM78.6374 27.9433C77.1495 29.0741 75.9071 30.5349 74.8932 32.2811L78.3524 34.2896C79.1383 32.936 80.0457 31.8971 81.0577 31.128L78.6374 27.9433Z" fill="#2B2B2B" mask="url(#path-2-outside-1_3_22)"/>
</svg>
