<svg width="50" height="50" viewBox="0 0 50 50" fill="none" xmlns="http://www.w3.org/2000/svg">
<path fill-rule="evenodd" clip-rule="evenodd" d="M17.951 41.1975C32.2903 41.1975 40.1335 29.5002 40.1335 19.3577C40.1335 19.0247 40.1335 18.6942 40.1107 18.365C41.6364 17.28 42.9531 15.9329 44 14.3915C42.5788 15.0126 41.0683 15.4198 39.5236 15.5994C41.15 14.6398 42.3679 13.1321 42.9512 11.3532C41.4198 12.2473 39.7459 12.8784 37.9998 13.217C35.0472 10.1267 30.1091 9.97697 26.9684 12.8839C24.9449 14.7583 24.0842 17.553 24.7131 20.2186C18.445 19.9081 12.6044 16.9937 8.6448 12.1993C6.5757 15.7067 7.634 20.192 11.0597 22.4442C9.819 22.4087 8.6049 22.0798 7.52 21.485V21.5824C7.5219 25.2357 10.1382 28.3815 13.7748 29.1054C12.6272 29.414 11.4226 29.4588 10.256 29.2362C11.2763 32.3639 14.2042 34.5061 17.5387 34.5679C14.778 36.7041 11.3675 37.8641 7.8563 37.8604C7.2369 37.8585 6.6175 37.8229 6 37.75C9.5663 40.0022 13.714 41.1975 17.951 41.1919" fill="white" fill-opacity="0.55"/>
<circle cx="25" cy="25" r="24.5" stroke="white" stroke-opacity="0.55"/>
</svg>
