<svg width="762" height="617" viewBox="0 0 762 617" fill="none" xmlns="http://www.w3.org/2000/svg">
<g filter="url(#filter0_i_33_336)">
<path d="M654.237 -45.2041C835.181 -120.242 666.347 30.433 643.929 50.0837C642.327 51.4874 640.651 52.7513 638.874 53.9246L548.977 113.276C543.049 117.189 536.355 119.795 529.341 120.919L433.121 136.341C424.363 137.744 415.474 136.814 406.946 134.379C364.986 122.398 222.837 92.9747 24.373 169.985C-18.1562 186.488 -51.054 200.601 -76.4036 212.653C-115.923 231.441 -211.019 317.203 -249.657 337.742C-351.504 391.883 -389.959 393.006 -498.757 436.862C-597.338 476.601 -641.332 506.603 -658.483 520.572C-665.032 525.907 -672.044 530.807 -679.93 533.836C-708.616 544.851 -782.69 573.296 -834 593" stroke="#C86BFA" stroke-width="50"/>
</g>
<defs>
<filter id="filter0_i_33_336" x="-842.962" y="-91.0005" width="1608.96" height="730.939" filterUnits="userSpaceOnUse" color-interpolation-filters="sRGB">
<feFlood flood-opacity="0" result="BackgroundImageFix"/>
<feBlend mode="normal" in="SourceGraphic" in2="BackgroundImageFix" result="shape"/>
<feColorMatrix in="SourceAlpha" type="matrix" values="0 0 0 0 0 0 0 0 0 0 0 0 0 0 0 0 0 0 127 0" result="hardAlpha"/>
<feOffset dx="4" dy="24"/>
<feGaussianBlur stdDeviation="11.8"/>
<feComposite in2="hardAlpha" operator="arithmetic" k2="-1" k3="1"/>
<feColorMatrix type="matrix" values="0 0 0 0 0.239216 0 0 0 0 0 0 0 0 0 0.4 0 0 0 0.25 0"/>
<feBlend mode="normal" in2="shape" result="effect1_innerShadow_33_336"/>
</filter>
</defs>
</svg>
