<svg width="50" height="50" viewBox="0 0 50 50" fill="none" xmlns="http://www.w3.org/2000/svg">
<circle cx="25" cy="25" r="24.5" stroke="white" stroke-opacity="0.55"/>
<path d="M27.9825 24.2325C27.3791 24.0056 27.3791 23.1391 27.3417 22.5357C27.1908 20.3863 27.9451 17.1049 27.04 15.7098C26.3991 14.8795 23.306 14.9555 21.4209 15.0689C20.8923 15.145 20.2515 15.2572 19.7989 15.4841C19.3463 15.711 18.8938 16.0875 18.8938 16.4266C18.8938 16.9166 20.0258 16.8418 20.4397 17.4826C20.8923 18.1621 20.8923 19.632 20.8923 20.8389C20.8923 22.234 20.6654 24.0828 20.1006 24.1577C19.2329 24.1951 18.7429 23.3274 18.2904 22.6865C17.3852 21.4423 16.4801 19.8951 15.8006 18.3865C15.4615 17.5949 15.272 16.7271 14.7821 16.388C14.0278 15.8594 12.6701 15.822 11.3498 15.8594C10.143 15.8968 8.40752 15.746 8.0684 16.4628C7.8041 17.2545 8.37011 18.0088 8.67182 18.6508C10.2178 22.0071 11.8772 24.9494 13.9143 27.7396C15.8006 30.3415 17.5723 32.4161 21.042 33.5095C22.0231 33.8112 26.3219 34.6789 27.1896 33.5095C27.4913 33.0569 27.4165 32.0383 27.5673 31.2841C27.7182 30.5298 27.9065 29.7755 28.6233 29.7381C29.2268 29.7007 29.5659 30.2281 29.9436 30.6058C30.3588 31.021 30.6979 31.3601 30.9996 31.7378C31.7165 32.4547 32.4707 33.4347 33.3759 33.8124C34.6201 34.341 36.5438 34.1901 38.3541 34.1141C39.8252 34.0767 40.8812 33.775 40.9947 32.9073C41.0707 32.2278 40.3152 31.2479 39.8627 30.6819C38.7306 29.2867 38.2032 28.8716 36.9204 27.5887C36.3544 27.0227 35.6375 26.4193 35.6375 25.741C35.6001 25.3259 35.9392 24.9494 36.2409 24.5342C37.5612 22.5731 38.8815 21.178 40.0883 19.1408C40.4275 18.5374 41.2204 17.1423 40.9186 16.4628C40.5795 15.7086 38.6932 15.9342 37.5238 15.9342C36.0152 15.9342 34.0541 15.8208 33.6764 16.1225C32.9595 16.6125 32.6578 17.4054 32.3187 18.1597C31.5644 19.8951 30.5458 21.6667 29.4898 22.987C29.1121 23.4396 28.3964 24.3821 27.9813 24.2313L27.9825 24.2325Z" fill="white" fill-opacity="0.55"/>
</svg>
