<svg width="50" height="50" viewBox="0 0 50 50" fill="none" xmlns="http://www.w3.org/2000/svg">
<circle cx="25" cy="25" r="24.5" stroke="white" stroke-opacity="0.55"/>
<g clip-path="url(#clip0_43_986)">
<path fill-rule="evenodd" clip-rule="evenodd" d="M21.2507 30.0237V20.2031C25.054 21.8436 27.9996 23.4283 31.4834 25.1369C28.61 26.5977 25.054 28.2366 21.2507 30.0237ZM42.4465 15.3188C41.7904 14.5265 40.6722 13.9097 39.4818 13.7055C35.9828 13.0964 14.1537 13.0947 10.6566 13.7055C9.70194 13.8696 8.85187 14.2661 8.12164 14.8821C5.04476 17.5 6.00891 31.5385 6.75055 33.8126C7.06242 34.7969 7.46559 35.5068 7.97333 35.9727C8.6275 36.5888 9.52316 37.013 10.552 37.2032C13.433 37.7495 28.2753 38.0549 39.4209 37.2852C40.4478 37.1212 41.3568 36.6833 42.0737 36.0411C44.9186 33.4337 44.7247 18.6068 42.4465 15.3188Z" fill="white" fill-opacity="0.55"/>
</g>
<defs>
<clipPath id="clip0_43_986">
<rect width="38.1818" height="35" fill="white" transform="translate(6 8)"/>
</clipPath>
</defs>
</svg>
